<?xml version="1.0" encoding="UTF-8" standalone="no"?>
<!-- Created with Inkscape (http://www.inkscape.org/) -->

<svg
   width="114.64297mm"
   height="115.56717mm"
   viewBox="0 0 114.64297 115.56717"
   version="1.1"
   id="svg1"
   xml:space="preserve"
   xmlns="http://www.w3.org/2000/svg"
   xmlns:svg="http://www.w3.org/2000/svg"><defs
     id="defs1" /><g
     id="layer1"
     transform="translate(-218.814,-150.07082)"><path
       id="path1-2-6"
       style="fill:none;stroke:#000000;stroke-width:12.5;stroke-linecap:round;stroke-dashoffset:8.50394;paint-order:stroke markers fill"
       d="m 83.585313,243.3115 c 0.0017,0.037 0.05442,0.0573 0.117336,0.0448 0.06259,-0.0124 0.195357,0.0142 0.294602,0.0586 0.105252,0.0471 0.264369,0.0745 0.380149,0.0653 0.155561,-0.0123 0.171911,-0.007 0.06303,0.0319 -0.103631,0.0366 -0.10115,0.0478 0.01846,0.047 0.120397,-9e-4 0.118477,0.0119 -0.02074,0.0613 -0.132893,0.0472 -0.14134,0.062 -0.02584,0.0613 0.08254,-4.9e-4 0.150928,0.0103 0.151934,0.0244 0.001,0.0141 -0.0519,0.0229 -0.117545,0.0193 -0.06825,-0.004 -0.08798,0.008 -0.04536,0.0284 0.04056,0.0192 0.01265,0.04 -0.06277,0.0459 -0.09924,0.008 -0.101861,0.022 -0.0052,0.0531 0.105057,0.0339 0.09585,0.0456 -0.05728,0.0571 -0.151268,0.0114 -0.162013,0.0185 -0.03661,0.0381 0.158162,0.0248 0.458514,-0.0333 0.415497,-0.0787 -0.01114,-0.0118 0.04274,-0.0319 0.119429,-0.0451 0.09157,-0.0157 0.117514,-0.002 0.07467,0.0402 -0.0356,0.0354 -0.0165,0.0537 0.04296,0.0404 0.05845,-0.0131 0.217495,-0.026 0.349458,-0.0291 0.172363,-0.004 0.155902,0.009 -0.266884,0.0653 -0.31765,0.0424 -0.509302,0.0782 -0.507728,0.10129 0.0014,0.0204 -0.103059,0.0457 -0.232359,0.0552 -0.128273,0.01 -0.30916,0.0451 -0.398119,0.0787 -0.171124,0.0646 -0.767437,0.16073 -0.98058,0.15762 -0.05102,-7.5e-4 -0.419409,0.0262 -0.79385,0.0513 -0.428612,0.0288 -0.988996,0.047 -1.460393,0.0458 -0.422661,-0.001 -0.800466,-7e-4 -0.838917,0.0105 -0.03881,0.0113 -0.190944,0.0145 -0.339675,0.006 -0.131871,-0.007 -0.620861,-0.002 -1.015299,0.006 -0.418304,0.008 -0.834439,-9.6e-4 -0.956795,-0.014 -0.114471,-0.0122 -0.244725,-0.0149 -0.288157,-0.005 -0.04358,0.009 -0.01707,0.0246 0.05983,0.0335 0.130202,0.015 0.136578,0.13417 -0.07789,0.1123 -0.06823,-0.007 -0.370301,-0.027 -0.671387,-0.0491 -0.308353,-0.0226 -0.675112,-0.0696 -0.846716,-0.10575 -0.157512,-0.0332 -0.484011,-0.0822 -0.694927,-0.10493 -0.249534,-0.0269 -0.676522,-0.0834 -1.08868,-0.14928 -1.044458,-0.16693 -1.601843,-0.27574 -1.607792,-0.25193 -0.0031,0.0123 1.56643,0.40653 3.356084,0.68115 1.963038,0.30122 3.618839,0.39468 4.583923,0.41257 0.902249,0.0167 1.085818,0.01 1.495933,0.0464 0.243811,0.0218 0.460174,0.0376 0.498545,0.0393 0.03432,0.002 0.226374,0.0144 0.427049,0.0264 0.203171,0.0121 0.450863,0.01 0.561113,-0.004 0.107774,-0.0135 1.768696,-0.0868 3.656014,-0.36971 1.711441,-0.25655 3.056959,-0.60253 3.718539,-0.79354 0.09472,-0.0229 0.165533,-0.0411 0.206391,-0.0524 0.457001,-0.12666 1.014982,-0.27023 1.95121,-0.56577 0.790821,-0.24964 1.480915,-0.51423 1.613291,-0.57809 0.109493,-0.0528 0.478965,-0.19211 0.783511,-0.29972 0.31364,-0.11084 0.590864,-0.22619 0.620646,-0.2519 0.02911,-0.0251 0.103807,-0.0589 0.16556,-0.0749 0.0619,-0.0161 0.107595,-0.0409 0.101613,-0.055 -0.006,-0.0141 0.02863,-0.0392 0.07687,-0.056 0.194509,-0.0675 1.147581,-0.53577 1.138749,-0.55465 -0.01087,-0.0233 0.815635,-0.45638 1.13617,-0.60505 0.119111,-0.0552 0.295509,-0.16758 0.396543,-0.25257 0.09881,-0.0831 0.26633,-0.19934 0.366867,-0.25436 0.147527,-0.0806 0.433008,-0.2352 0.832358,-0.46344 0.376917,-0.2154 0.804417,-0.48399 1.050097,-0.6541 0.22415,-0.1552 0.58085,-0.40146 0.79305,-0.54693 0.21264,-0.14579 0.35271,-0.25879 0.31528,-0.2493 -0.11835,0.03 0.13925,-0.0813 1.84392,-1.39317 0.0906,-0.0697 0.14958,-0.13018 0.13157,-0.13383 -0.018,-0.004 0.0522,-0.0789 0.15529,-0.16786 0.10679,-0.0921 0.28266,-0.26048 0.40569,-0.38907 0.19064,-0.19925 0.48091,-0.42836 1.25262,-1.10141 0.65416,-0.57053 1.01138,-0.91113 1.21864,-1.09874 0.11981,-0.10855 0.31989,-0.31913 0.45771,-0.48313 0.13908,-0.16549 0.27486,-0.30834 0.31522,-0.32863 0.0141,-0.007 0.51798,-0.37533 0.34069,-0.28932 -0.0992,0.0481 -0.006,-0.0385 0.24941,-0.24354 0.52081,-0.41889 2.55405,-2.81671 2.6839,-3.13023 0.0404,-0.0975 0.0311,-0.11762 -0.0239,-0.0582 -0.0476,0.0514 -0.0949,0.0868 -0.10489,0.0788 -0.01,-0.008 0.0352,-0.0706 0.10027,-0.13947 0.0273,-0.029 0.0547,-0.0621 0.0785,-0.0942 0.0323,-0.0444 0.0577,-0.0866 0.0664,-0.11246 0.0138,-0.0409 -0.0292,9.1e-4 -0.10008,0.086 -0.13163,0.15549 -0.39076,0.49601 -0.52981,0.70634 -0.10715,0.16207 -0.33155,0.46442 -0.53013,0.70978 -0.22207,0.27439 -0.38188,0.46564 -0.48887,0.59403 -0.0759,0.0911 -0.14998,0.15484 -0.16407,0.14212 -0.0181,-0.0164 -0.12572,0.0924 -0.37394,0.3665 -0.28235,0.31178 -0.31353,0.33226 -0.2226,0.20922 0.0718,-0.0971 0.10367,-0.16295 0.072,-0.14646 -0.0685,0.0357 0.39736,-0.47011 1.24339,-1.49033 0.48182,-0.58102 0.61736,-0.75539 0.70079,-0.808 0.0692,-0.0436 0.0886,-0.0664 0.0709,-0.0823 -0.0151,-0.0134 0.0567,-0.11862 0.15937,-0.25039 0.14063,-0.18379 0.34862,-0.43027 0.46236,-0.53263 0.093,-0.0837 0.15969,-0.15939 0.14873,-0.16758 -0.0121,-0.009 0.22447,-0.3269 0.58609,-0.82034 0.39137,-0.53404 0.76286,-1.07061 1.09976,-1.58229 0.23396,-0.35532 0.64752,-0.98593 0.72907,-1.10274 0.13018,-0.18647 0.29104,-0.44941 0.37031,-0.60358 0.0767,-0.14906 0.16648,-0.29687 0.19968,-0.32669 0.0371,-0.0332 0.0242,-0.005 -0.0356,0.0754 -0.0599,0.0804 -0.0738,0.10917 -0.0346,0.0744 0.0742,-0.0659 0.3844,-0.56056 0.70923,-1.17518 0.19113,-0.36162 0.23638,-0.43356 0.2835,-0.42248 0.0506,0.0119 0.0259,0.0941 -0.29673,0.74729 -0.20768,0.42039 -0.42726,0.82991 -0.52348,0.99412 -0.052,0.0887 -0.10432,0.17726 -0.15698,0.26559 0.0651,-0.0885 0.12994,-0.17723 0.1944,-0.2663 0.31169,-0.43067 0.6492,-0.97154 1.12353,-1.90133 0.26283,-0.51522 0.63445,-1.26317 0.8322,-1.65945 0.45483,-0.91142 1.6151,-4.23774 1.60777,-4.39933 -0.003,-0.0554 0.0219,-0.1612 0.054,-0.23446 0.0831,-0.18968 0.63952,-2.37715 0.59711,-2.30801 -0.0397,0.0647 -3e-4,0.0508 0.26384,-1.52201 0.14122,-0.84088 0.27817,-1.85238 0.34736,-3.2547 0.0392,-0.79439 0.0595,-1.17333 0.12846,-1.63937 0.0254,-0.17123 0.0402,-0.15302 0.0858,0.29977 0.035,0.34707 0.0455,0.80384 0.0116,1.45185 -0.061,1.16531 -0.16397,2.15378 -0.26102,2.97006 -0.055,0.46302 -0.0612,0.55705 -0.0132,0.51603 0.0345,-0.0295 0.0658,-0.12144 0.0752,-0.2228 0.009,-0.0949 0.0285,-0.17035 0.0443,-0.16766 0.0157,0.003 0.0125,0.10063 -0.008,0.21767 -0.0311,0.17739 -0.0305,0.19121 0.02,0.0349 0.0359,-0.11093 0.0482,-0.12524 0.0315,-0.0297 -0.0143,0.0817 -0.003,0.12008 0.0254,0.085 0.0349,-0.0429 0.0409,0.0807 0.009,0.41515 -0.0153,0.1596 -0.0316,0.31926 -0.049,0.47895 0.0865,-0.39569 0.16634,-0.79254 0.23937,-1.19035 0.13558,-0.73863 0.23369,-1.44414 0.28724,-1.93181 0.0445,-0.40492 0.0743,-0.73652 0.076,-0.73635 0.002,1.6e-4 0.0203,0.11368 0.04,0.25273 0.0197,0.13908 0.0269,0.25234 0.0172,0.25131 -0.01,-0.001 -0.0135,0.12506 -0.01,0.28043 0.004,0.16811 -0.0289,0.68385 -0.0891,1.20232 -0.0515,0.44325 -0.12038,0.96953 -0.17183,1.41279 -0.0328,0.28637 -0.0971,0.68027 -0.15272,0.93944 -0.20955,0.97578 -0.41989,2.12627 -0.36147,1.92539 0.0154,-0.053 0.0695,-0.22756 0.10857,-0.35212 0.0471,-0.15032 0.0897,-0.29011 0.11934,-0.38916 0.079,-0.26387 0.11437,-0.30253 0.0645,-0.0259 -0.0251,0.13938 -0.0577,0.41892 -0.0704,0.59891 -0.0132,0.18784 -0.0581,0.45696 -0.10137,0.6098 -0.0422,0.14901 -0.0809,0.34089 -0.0844,0.42199 -0.005,0.10986 0.0344,0.0383 0.21372,-0.55165 0.14345,-0.47187 0.2314,-0.78421 0.31284,-1.07201 0.13612,-0.481 0.5306,-2.42642 0.53679,-2.56346 0.008,-0.18486 0.20947,-1.61812 0.23137,-1.61532 0.0115,0.001 0.0247,0.0893 0.0287,0.19533 0.004,0.106 0.0189,0.1946 0.0339,0.19667 0.0149,0.002 0.0246,-0.0346 0.0214,-0.0814 -0.003,-0.0466 0.0174,-0.15958 0.0453,-0.25026 0.0281,-0.0916 0.0393,-0.16687 0.0255,-0.16858 -0.0137,-0.002 -0.0143,-0.0882 -0.002,-0.19208 0.0322,-0.27097 0.0569,-0.24836 0.042,0.20443 -0.0134,0.40835 0.006,0.47524 0.13702,-0.34302 0.1015,-0.63384 0.16909,-0.8706 0.15672,-0.31473 -0.0177,0.79376 -0.24451,2.67285 -0.61425,4.31089 -0.14455,0.64037 -0.31193,1.31182 -0.35149,1.49614 -0.024,0.11171 -0.0484,0.22336 -0.0734,0.33495 0.0525,-0.11274 0.10454,-0.22579 0.15603,-0.33916 0.0861,-0.18959 0.17727,-0.43357 0.20786,-0.5529 0.0754,-0.29431 0.13758,-0.38129 0.15923,-0.20349 0.0261,0.2143 -0.14281,1.28144 -0.27991,1.74898 -0.054,0.18407 -0.0761,0.2949 -0.0482,0.25472 0.0268,-0.0387 0.0791,-0.17297 0.11615,-0.29995 0.0619,-0.21251 0.19163,-0.43199 0.22273,-0.37306 0.0318,0.0602 0.49152,-1.96751 0.48009,-2.14757 -0.009,-0.13751 0.45558,-3.42683 0.51765,-3.74756 0.0197,-0.10181 0.039,-0.20372 0.0578,-0.30573 -3e-5,0.10122 -4.9e-4,0.20249 -0.001,0.30382 -0.002,0.19815 -0.0794,1.21496 -0.25416,2.39357 -0.3112,2.09914 -0.42101,2.61358 -0.12573,1.24943 0.0899,-0.4154 0.18177,-0.80688 0.22529,-0.92536 0.0503,-0.13687 0.12893,-0.4576 0.2563,-1.474 0.2302,-1.83709 0.25115,-3.17151 0.25055,-3.33477 -6.5e-4,-0.17539 0.009,-0.22832 0.0396,-0.19375 0.0439,0.0499 0.0799,0.45671 0.0726,1.09409 -0.003,0.26282 0.0522,0.49923 0.0872,-0.48767 0.0133,-0.37584 0.0214,-0.74566 0.0238,-1.14228 0.001,-0.19668 7.9e-4,-0.39331 -0.001,-0.58987 0.028,0.16439 0.0549,0.32919 0.0806,0.49438 0.0424,0.27256 0.0779,0.49694 0.0831,0.49719 0.005,2.6e-4 0.0364,-0.36627 0.0582,-0.81535 0.0514,-1.06178 0.0881,-1.63295 0.1746,-1.62709 0.0456,0.003 0.122,0.86119 0.11217,1.66084 -0.006,0.52659 -0.006,0.8798 -0.0321,1.66278 -0.0219,0.66292 -0.0776,1.40579 -0.14419,1.99313 -0.0578,0.51016 -0.15721,1.28465 -0.21708,1.72158 -0.37182,2.71361 -0.5963,3.30989 -0.61374,3.428 -0.0103,0.0696 0.0625,-0.12383 0.15967,-0.44464 0.0969,-0.3198 0.18577,-0.57584 0.20434,-0.57147 0.043,0.0101 -0.18009,1.35574 -0.49934,2.55354 -0.15572,0.58427 -0.26786,1.01415 -0.28494,1.16465 -0.0156,0.13769 -0.12661,0.57102 -0.26586,1.00523 -0.2545,0.7936 -0.34399,1.13998 0.18545,-0.0568 0.0969,-0.21902 0.17816,-0.36928 0.18278,-0.33151 0.0113,0.0922 -0.14668,0.69668 -0.26911,1.02066 -0.0495,0.13089 -0.0664,0.20733 -0.036,0.16862 0.0302,-0.0385 0.21944,-0.49951 0.4065,-1.02934 0.28265,-0.80054 0.45942,-1.29517 0.33325,-0.78481 -0.0963,0.38973 0.50003,-1.52689 0.71729,-2.49225 0.27054,-1.20216 0.41617,-1.85382 0.49322,-1.83732 0.0355,0.008 0.0175,0.36887 -0.13016,1.35594 -0.13584,0.90834 -0.21024,1.31288 -0.15276,1.17461 0.0762,-0.18334 0.0776,-0.026 -0.14615,0.9231 -0.3017,1.27931 -0.54042,2.31557 -0.42291,2.20908 0.0791,-0.0717 -0.023,0.44006 -0.81186,2.43278 -0.3921,0.99051 -0.82046,1.97043 -0.90601,2.19487 -0.0914,0.23974 -0.28354,0.67374 -0.45961,1.0293 -0.46533,0.93966 -1.4048,2.71811 -1.53644,3.00697 -0.066,0.14492 -0.21733,0.41597 -0.34661,0.61857 -0.12116,0.18998 -0.299,0.48181 -0.36998,0.6092 -0.098,0.17592 -0.086,0.17469 0.17863,-0.22177 0.68614,-1.02792 0.99185,-1.53055 1.12693,-1.66828 0.0789,-0.0805 0.17351,-0.22384 0.2728,-0.41656 0.12303,-0.2388 0.14331,-0.27643 0.0503,-0.0621 -0.0562,0.12955 -0.15928,0.32421 -0.23309,0.44033 -0.0718,0.1129 -0.16928,0.28819 -0.21272,0.38292 -0.0479,0.10448 -0.16697,0.28933 -0.29477,0.45533 -0.16908,0.21964 -0.24049,0.33011 -0.33448,0.52186 -0.0754,0.15387 -0.14517,0.2643 -0.18862,0.30098 -0.0367,0.0309 -0.26896,0.36363 -0.51911,0.72968 -0.25747,0.37673 -0.56062,0.77583 -0.69902,0.93064 -0.28497,0.31877 -0.37341,0.42994 -0.34508,0.45085 0.0116,0.009 0.0804,-0.0644 0.15225,-0.16268 0.0717,-0.098 0.11832,-0.14474 0.10344,-0.1023 -0.0147,0.0418 0.057,-0.0274 0.15932,-0.15598 0.10193,-0.12816 0.18147,-0.20242 0.17726,-0.1635 -0.007,0.0653 -0.28293,0.52918 -1.24907,1.80017 -0.0915,0.12063 -0.18982,0.24888 -0.29479,0.38396 -1.09438,1.40832 -1.43897,1.7704 -1.41963,1.78756 0.0102,0.009 0.0825,-0.0557 0.16039,-0.14415 0.0786,-0.0894 0.15878,-0.14584 0.18086,-0.12662 0.0291,0.0254 -0.0225,0.10698 -0.19642,0.30352 -0.23945,0.27057 -0.32544,0.4237 -0.0236,0.11531 0.11226,-0.11469 0.56669,-0.63037 1.04838,-1.22479 0.28312,-0.34933 0.53278,-0.6668 0.7435,-0.93862 0.80918,-1.04071 1.17022,-1.5441 1.40752,-1.81719 0.15293,-0.176 0.295,-0.35608 0.31951,-0.40176 0.0241,-0.0448 0.056,-0.0408 0.071,0.009 0.0327,0.10916 0.17866,-0.0363 0.98356,-1.27907 0.44907,-0.69337 0.54181,-0.85868 0.3771,-0.52743 -0.29681,0.59693 -1.10068,1.92326 -1.83893,2.95647 -0.32424,0.45379 -0.64515,0.90972 -0.73879,1.06858 -0.0675,0.11453 -0.12967,0.21263 -0.18958,0.29868 0,0 0,0 0,0 -0.12605,0.18186 -0.24413,0.31287 -0.38865,0.43792 -0.0939,0.0812 -0.32972,0.34532 -0.55053,0.61043 -0.68565,0.82331 -3.40183,3.76422 -3.77887,4.15797 -0.35044,0.36597 -0.36576,0.37994 -0.22473,0.37026 0.0868,-0.006 0.10732,0.038 0.0511,0.11226 -0.0634,0.0838 -0.0475,0.096 0.0537,0.0367 0.13449,-0.0788 0.17766,0.0421 -1.62058,1.52788 -1.27783,1.05581 -1.70199,1.35267 -1.95276,1.57888 -0.35028,0.31598 -1.44702,1.15213 -2.45909,1.81889 -0.21319,0.14059 -0.63976,0.42916 -0.85295,0.56976 -0.20374,0.13484 -0.40863,0.26806 -0.61465,0.39963 0.1924,-0.10691 0.38405,-0.21525 0.57494,-0.32501 0.37339,-0.2147 1.18289,-0.72171 2.03104,-1.31672 0.96283,-0.67547 1.73635,-1.26314 2.46927,-1.84186 0.67181,-0.53048 1.55236,-1.28705 2.37527,-2.07279 1.59137,-1.51945 2.68417,-2.74931 3.40724,-3.56127 0.20556,-0.2308 0.38871,-0.45752 0.41261,-0.50492 0.023,-0.0457 0.17604,-0.2417 0.33572,-0.43385 0.16033,-0.19293 0.28216,-0.35836 0.27293,-0.366 -0.009,-0.008 0.0832,-0.12291 0.20442,-0.25708 0.1796,-0.19885 0.17763,-0.20396 0.0605,-0.0918 -0.14118,0.13518 -0.13362,0.12099 0.001,-0.046 0.0882,-0.10921 0.14946,-0.20724 0.13688,-0.21735 -0.014,-0.0113 0.0767,-0.11594 0.23373,-0.27303 0.0347,-0.0347 0.0668,-0.0672 0.0963,-0.0974 0,0 0,0 0,0 0.2151,-0.21941 0.28499,-0.31035 0.1981,-0.2474 -0.0374,0.0271 0.008,-0.0582 0.0993,-0.18893 0.095,-0.1363 0.17553,-0.23091 0.18948,-0.22036 0.014,0.0106 0.16405,-0.16492 0.35276,-0.41963 0.20718,-0.27962 0.30673,-0.43851 0.27771,-0.43271 -0.0315,0.006 0.0569,-0.12373 0.27791,-0.4213 0.36227,-0.48772 0.74681,-0.95211 0.78898,-0.92795 0.0184,0.01 0.0447,-0.034 0.074,-0.12385 0.0354,-0.10856 0.0594,-0.1313 0.10849,-0.10101 0.0809,0.0498 0.0155,0.29633 -0.14541,0.53414 -0.0688,0.10169 -0.0934,0.15831 -0.053,0.12493 0.0398,-0.033 0.007,0.0389 -0.0754,0.16058 -0.27711,0.41038 -0.43186,0.65238 -0.59785,0.94994 -0.14428,0.25865 -0.5683,0.80549 -0.60031,0.78139 -0.006,-0.004 0.0478,-0.0751 0.11871,-0.15742 0.0714,-0.0829 0.16752,-0.23673 0.21506,-0.34416 0.076,-0.1718 0.0688,-0.16475 -0.0199,-0.012 -0.0815,0.14033 -0.10033,0.15473 -0.0831,0.0695 0.0135,-0.0671 -0.0294,-0.0557 -0.10668,0.0271 -0.16561,0.17744 -0.35782,0.42699 -0.15105,0.21381 0.10513,-0.10839 0.0795,-0.061 -0.19581,0.28247 -0.16844,0.2102 -0.36985,0.47711 -0.4639,0.61632 0,0 0,0 0,0 -0.0128,0.019 -0.0239,0.0361 -0.033,0.0509 -0.10701,0.17291 -0.1817,0.26589 -0.30163,0.37692 -0.12866,0.11912 -0.16617,0.16947 -0.19499,0.26479 -0.0196,0.0647 -0.0223,0.11528 -0.006,0.11223 0.0165,-0.003 -0.0291,0.067 -0.10197,0.15543 -0.0727,0.0883 -0.13843,0.1886 -0.14543,0.22278 -0.007,0.0345 -0.13415,0.21376 -0.28479,0.39782 -0.14934,0.18245 -0.31069,0.40235 -0.35277,0.4836 -0.043,0.083 -0.12013,0.18494 -0.17181,0.2273 -0.0513,0.0421 -0.0507,0.0593 0.002,0.0379 0.12791,-0.0518 -0.0747,0.17127 -0.1886,0.22007 -0.0791,0.0339 -0.1051,0.0647 -0.24103,0.27311 -0.14476,0.22196 -0.15612,0.2328 -0.19247,0.20225 -0.0325,-0.027 -0.0493,-0.0109 -0.10642,0.0995 -0.0993,0.1919 -0.0744,0.18759 0.2097,-0.0954 0.17792,-0.17722 0.26228,-0.23893 0.27997,-0.2009 0.0283,0.0609 -0.28347,0.47466 -0.69843,0.90267 -0.38629,0.39845 -0.70776,0.76955 -0.67631,0.80067 0.0203,0.02 -0.0768,0.13194 -0.37262,0.41562 -0.35963,0.34492 -1.21622,1.19967 -1.39341,1.39536 -0.11703,0.12927 -0.11278,0.13299 0.0715,-0.0321 0.18996,-0.17027 0.40492,-0.36016 0.77396,-0.69907 1.03188,-0.94759 2.00809,-1.97946 2.48583,-2.54613 0.2663,-0.31582 0.36015,-0.42238 0.3247,-0.34852 -0.0285,0.0594 0.002,0.0346 0.0815,-0.0686 0.0746,-0.0968 0.22384,-0.23032 0.35844,-0.32115 0.16387,-0.11057 0.20011,-0.11644 0.12081,-0.0128 -0.0726,0.0948 -0.044,0.0859 0.0944,-0.0363 0.17288,-0.15269 0.18992,-0.16291 -0.0992,0.15093 -0.16262,0.17653 -0.24978,0.27517 -0.1706,0.19862 0.24086,-0.23294 0.19285,-0.11782 -0.22479,0.35081 -0.25171,0.28244 -0.41109,0.43734 -0.42741,0.42437 -0.0194,-0.0148 -0.0417,0.011 -0.0865,0.0985 -0.0382,0.0748 -0.0921,0.1379 -0.1447,0.16984 -0.0921,0.0559 -0.21428,0.19394 -0.51455,0.55868 -0.10744,0.1305 -0.33478,0.37968 -0.5304,0.57869 -0.43557,0.44311 -0.53393,0.63109 -0.0991,0.19567 0.17172,-0.17195 0.34098,-0.32017 0.39096,-0.33945 0.0593,-0.0228 0.024,0.0326 -0.11315,0.17178 -0.11091,0.11253 -0.23116,0.25425 -0.26486,0.31322 -0.0924,0.16176 -0.4827,0.62004 -0.61486,0.7219 -0.0587,0.0452 -0.12959,0.12051 -0.15709,0.16692 -0.028,0.0472 -0.18571,0.21299 -0.35393,0.36939 -0.12138,0.11284 -0.61,0.58982 -0.88745,0.86175 -0.48445,0.47481 -0.58355,0.56535 -0.3228,0.3681 0.17435,-0.13188 1.08291,-0.91036 2.08013,-1.88313 0.97272,-0.94891 1.79064,-1.82825 1.87283,-1.90032 0.0853,-0.0748 0.16987,-0.17256 0.19729,-0.22754 0.0369,-0.0739 1.3748,-1.61244 2.25529,-2.74104 0,0 0,0 0,0 0.46867,-0.59526 0.82163,-1.06636 0.85487,-1.09205 0.034,-0.0263 0.11856,-0.13644 0.18809,-0.24595 0.0864,-0.136 0.0876,-0.15668 0.0109,-0.0723 -0.0654,0.0719 0.009,-0.0428 0.15544,-0.24518 0.14785,-0.20493 0.27634,-0.36745 0.28764,-0.35947 0.0113,0.008 0.0683,-0.0789 0.12599,-0.19327 0.0575,-0.11403 0.13911,-0.24339 0.18088,-0.28596 0.0416,-0.0424 -4.3e-4,0.0736 -0.0967,0.25961 -0.0582,0.11236 -0.11679,0.22455 -0.17589,0.33654 0.0696,-0.10546 0.13887,-0.21119 0.20767,-0.31718 0.16564,-0.25516 0.20113,-0.30992 0.0534,-0.0551 -0.22752,0.39258 -0.63355,0.95009 -0.92769,1.27466 -0.27683,0.30549 -0.58001,0.71931 -0.54057,0.7498 0.0117,0.009 -0.056,0.11283 -0.21935,0.32819 -0.0894,0.119 -0.21095,0.27598 -0.36314,0.46627 -0.38576,0.48225 -0.63092,0.75546 -0.64482,0.7438 -0.0122,-0.0102 -0.0619,0.0592 -0.11075,0.15412 -0.0572,0.11084 -0.32135,0.46446 -0.92374,1.15455 -0.46622,0.53409 -1.14403,1.28507 -1.49919,1.67513 -0.37913,0.41637 -0.78246,0.83158 -0.99963,1.04161 -0.11179,0.10816 -0.66635,0.65969 -0.88415,0.87731 -0.50509,0.50466 -0.4209,0.47635 0.96015,-0.86676 0.85034,-0.82697 1.47397,-1.49641 1.59856,-1.62825 0.0862,-0.0911 1.1531,-1.25149 2.26485,-2.66153 0.23197,-0.29421 0.46051,-0.59075 0.68597,-0.89014 0.91566,-1.20403 1.56033,-2.16509 1.8732,-2.62894 0.33403,-0.49522 0.57262,-0.88581 0.54259,-0.85978 -0.0306,0.0265 0.1077,-0.19913 0.3007,-0.50191 0.22689,-0.35583 0.62888,-1.03046 1.01743,-1.74539 0.61531,-1.13215 1.93262,-3.85836 1.77856,-3.47619 -0.0392,0.0972 -0.0454,0.14704 -0.0129,0.11004 0.0319,-0.0363 -0.0229,0.10597 -0.12541,0.31774 -0.0954,0.19707 -0.27969,0.62176 -0.38292,0.88017 -0.11868,0.29709 -0.24461,0.59776 -0.32207,0.7757 -0.38029,0.87356 -2.06067,4.0833 -4.46053,7.29256 -0.81989,1.10801 -1.53339,1.96637 -1.9404,2.43762 -0.54222,0.62778 -1.48613,1.69655 -2.76896,2.95998 -1.31882,1.29887 -2.5448,2.35176 -3.5065,3.12467 -1.09603,0.88088 -1.3399,1.04331 -1.99483,1.55328 -0.4193,0.32649 -0.6204,0.46143 -0.69241,0.48547 -0.0958,0.032 -1.42805,0.94923 -3.11656,1.94544 -0.32335,0.19077 -0.99785,0.5774 -1.82003,1.00606 -1.70509,0.88902 -3.087629,1.52231 -4.664393,2.18135 -0.343228,0.14345 -0.68176,0.26895 -0.763188,0.28847 -0.07828,0.0188 -1.090828,0.3993 -2.278196,0.78132 -1.642057,0.52829 -2.370484,0.66806 -2.537718,0.6911 -0.01667,0.002 -0.03358,0.005 -0.0509,0.007 -0.284248,0.051 -0.675528,0.17273 -1.953887,0.48499 -2.595606,0.63401 -4.910502,0.95144 -6.756561,1.11554 -0.827207,0.0735 -1.535164,0.11748 -2.211212,0.1492 -0.567116,0.0266 -1.164152,0.0337 -1.481544,0.0263 -0.220092,-0.005 -0.89181,-0.008 -1.216214,-0.006 -0.221851,0.001 -2.418288,0.008 -5.524149,-0.42607 -1.277491,-0.17835 -2.704495,-0.4317 -4.00179,-0.71435 -1.008938,-0.21983 -2.04273,-0.48194 -3.035718,-0.76971 -0.910108,-0.26375 -1.618671,-0.49806 -1.945208,-0.60747 -1.652877,-0.5538 -2.125882,-0.79506 -2.361602,-0.94188 -0.168813,-0.10514 -0.30068,-0.20448 -0.294187,-0.21958 0.0065,-0.0151 -0.03718,-0.0472 -0.09695,-0.0714 -0.061,-0.0249 -0.236387,-0.10185 -0.412481,-0.18236 2e-5,1e-5 -0.02155,-0.01 -0.02153,-0.01 -0.274804,-0.12363 -0.296123,-0.14416 -0.16244,-0.12889 0.203651,0.0232 0.06833,-0.0694 -0.204616,-0.14917 -0.344122,-0.10055 -0.195973,-0.0895 0.138681,-0.0114 0.08447,0.0197 0.203474,0.0554 0.338226,0.0999 0,0 0,0 0,0 0.170103,0.0577 0.370578,0.1316 0.555507,0.20556 0.494223,0.19766 0.536039,0.20161 0.403436,0.11058 -0.117785,-0.0809 -0.08455,-0.0665 -0.910813,-0.42471 -0.298218,-0.12671 -3.938602,-1.5901 -7.956838,-4.20163 -0.684924,-0.44513 -1.481317,-0.99817 -2.238476,-1.5665 -0.821651,-0.61676 -1.650169,-1.27036 -2.565519,-2.04812 -0.865282,-0.73521 -1.608201,-1.42404 -2.146023,-1.94575 -0.334904,-0.32488 -0.891936,-0.87833 -1.226839,-1.20321 -0.293556,-0.2856 -1.131454,-1.17208 -2.01625,-2.23898 -0.485395,-0.58529 -1.131191,-1.45925 -1.616587,-2.04454 -0.181305,-0.21876 -2.276551,-3.2771 -2.719625,-4.04432 -0.198705,-0.34411 -0.389376,-0.71818 -0.439182,-0.85012 -0.05845,-0.15485 -0.16122,-0.35226 -0.463563,-0.93376 -0.254824,-0.46317 -0.917406,-1.65888 -1.624495,-3.17032 -0.752739,-1.60902 -1.178044,-2.71356 -1.427553,-3.30395 -0.141642,-0.33516 -0.741672,-1.8277 -1.384398,-4.27116 -0.626478,-2.38173 -1.074899,-4.78205 -1.352675,-7.29089 -0.206368,-1.86387 -0.258785,-3.30896 -0.274882,-4.09473 -0.016,-0.78124 -0.02422,-2.27257 0.113105,-4.20856 0.116669,-1.64485 0.300841,-3.12168 0.482735,-4.32546 0.110385,-0.76955 0.247353,-1.61302 0.417733,-2.5066 0.07773,-0.40771 0.125537,-0.66459 0.08427,-0.50278 -0.03732,0.14632 -0.07928,0.26382 -0.09411,0.26079 -0.01779,-0.004 0.06058,-0.43764 0.262248,-1.26791 0.222464,-0.91585 0.635753,-2.54144 1.326174,-4.55697 0.705926,-2.06081 1.457633,-3.78692 2.043444,-5.01143 1.593436,-3.33071 3.241773,-5.79321 4.167276,-7.10374 2.249359,-3.18512 4.472499,-5.4964 6.02903,-6.97628 0.611436,-0.60892 1.226734,-1.18825 1.840366,-1.7374 1.205382,-1.0787 2.314821,-1.9439 3.053411,-2.48701 0.753056,-0.55377 1.323166,-0.95172 1.98739,-1.40357 0.59343,-0.40365 1.413949,-0.92394 2.258462,-1.4099 1.018708,-0.5862 2.89333,-1.65612 5.514895,-2.78733 2.430062,-1.04857 4.511699,-1.68258 4.978403,-1.80874 0.658625,-0.17806 0.900507,-0.25083 1.845896,-0.49307 0.705588,-0.18079 1.347777,-0.32356 1.66615,-0.38809 0.791764,-0.16049 2.416255,-0.49317 4.383712,-0.75408 0.154748,-0.0205 0.30947,-0.0402 0.46422,-0.059 1.553779,-0.19891 3.501737,-0.36175 5.805955,-0.35468 0.517353,0.002 0.929996,0.009 1.319028,0.0192 0.382793,0.01 0.982217,0.0297 1.705076,0.0739 0.783154,0.0479 1.573235,0.11399 2.395307,0.20375 0.678288,0.074 1.265667,0.15822 1.307569,0.16789 0.04192,0.01 0.469106,0.0732 0.9478,0.15086 0.492644,0.0799 0.95507,0.16876 1.090573,0.20061 0.121816,0.0286 0.829043,0.1587 1.56733,0.31199 2.027741,0.42101 2.015761,0.4643 2.005806,0.50566 -0.0051,0.0211 0.06234,0.056 0.149757,0.078 0.08711,0.0219 0.11374,0.0145 0.05779,-0.0172 -0.06779,-0.0384 -0.02041,-0.0316 0.156692,0.0262 0.133444,0.0435 0.414668,0.12594 0.587599,0.17257 0.222595,0.06 0.332359,0.10866 0.338225,0.14713 0.01052,0.0689 -0.07122,0.0475 -0.356718,-0.084 -0.298387,-0.13741 -0.651639,-0.2237 -0.559685,-0.14039 0.04524,0.041 0.02699,0.0427 -0.04616,0.005 -0.07274,-0.0371 -0.51076,-0.15936 -1.326308,-0.33062 -1.079917,-0.22677 -2.833689,-0.56844 -4.482801,-0.80972 -0.916713,-0.13412 -1.71636,-0.22275 -2.300502,-0.27838 -0.465339,-0.0443 -0.927563,-0.0827 -1.026291,-0.0938 -0.09896,-0.0112 -0.22082,-0.004 -0.271426,0.0152 -0.0692,0.0266 -0.213304,0.0236 -0.565689,-0.004 -0.352689,-0.0274 -1.106135,-0.0802 -2.380351,-0.0898 -0.594839,-0.005 -1.123331,6.8e-4 -1.174314,-0.003 -0.10762,-0.008 -2.144129,0.0244 -4.907698,0.40458 9.8e-5,-1e-5 -0.07888,0.0104 -0.07878,0.0104 -1.632969,0.21743 -3.168602,0.49627 -3.955607,0.6322 -0.525354,0.0907 -4.130406,1.04464 -4.124516,1.06397 0.003,0.01 0.45664,-0.11295 1.011314,-0.25986 0.589609,-0.15615 1.111431,-0.27928 1.312655,-0.3234 1.310471,-0.28733 3.228366,-0.70744 5.848059,-1.02367 0.337953,-0.0428 0.668769,-0.0815 0.992796,-0.11669 0.596741,-0.0647 1.140976,-0.10336 1.23781,-0.10128 0.07492,0.002 1.289236,-0.0835 2.518325,-0.11124 1.229089,-0.0277 2.471214,0.003 2.597794,-1.4e-4 0.06023,-0.002 0.62926,0.0144 1.263424,0.0521 0.980426,0.0582 3.474172,0.31944 4.097459,0.40458 0.23191,0.0316 0.240806,0.068 0.03792,0.0632 -0.150323,-0.004 -1.300302,-0.14305 -2.344183,-0.23938 -0.31724,-0.0293 -0.63629,-0.0699 -0.702275,-0.093 -0.08447,-0.0296 -0.36139,-0.0572 -1.029875,-0.0738 -0.503606,-0.0126 -0.949104,-0.011 -1.01034,-0.006 -0.05628,0.004 -0.207955,-0.0123 -0.335472,-0.0363 -0.128132,-0.0242 -0.269345,-0.0337 -0.314435,-0.0217 -0.0871,0.0232 -3.18893,0.0765 -4.088051,0.11537 -0.331153,0.0143 -0.781604,0.0439 -1.157261,0.0772 -0.324213,0.0288 -0.788516,0.0622 -0.959956,0.0666 -0.272942,0.007 -0.340569,0.017 -0.33716,0.0449 0.0024,0.0196 -0.181049,0.0588 -0.450184,0.10003 0,0 0,0 0,0 -0.01322,0.002 -0.02664,0.004 -0.04025,0.006 -1.403992,0.20137 -2.679598,0.41637 -4.200834,0.72819 -1.013706,0.20778 -1.287163,0.29639 -1.200931,0.28534 0.695843,-0.0892 -0.585675,0.22393 -2.201579,0.67051 -1.337732,0.36971 -1.942699,0.59091 -2.406612,0.76942 -0.300269,0.11554 -0.814173,0.30314 -1.024885,0.37248 -0.625797,0.20591 -3.79441,1.51478 -5.150897,2.2187 -0.81151,0.42112 -1.384439,0.73662 -2.034192,1.10213 -0.5847,0.32893 -1.336029,0.77568 -2.114688,1.27948 -0.874324,0.56569 -2.075604,1.37615 -3.473213,2.46687 -1.415727,1.10486 -2.699791,2.25245 -3.800163,3.34505 -9.1e-5,8e-5 -0.02695,0.0255 -0.02705,0.0256 -1.499559,1.42198 -1.632473,1.63702 -1.664369,1.72872 -0.03035,0.0873 -0.228145,0.27526 -1.190383,1.394 -0.668571,0.77743 -1.248304,1.52508 -1.515596,1.895 -0.136176,0.18846 -0.270841,0.37786 -0.403992,0.56819 0.239399,-0.30449 0.482679,-0.60598 0.729808,-0.90438 0.596869,-0.72069 0.716453,-0.84783 1.100993,-1.30184 0.241685,-0.28528 0.951313,-1.08743 1.849879,-1.98951 0.339372,-0.3407 0.77117,-0.76563 1.286905,-1.24702 0.821027,-0.8045 1.621952,-1.52974 2.405549,-2.1978 1.238674,-1.05603 2.318546,-1.84524 2.515094,-1.98213 0.260703,-0.18156 1.305246,-0.96323 2.866731,-1.94465 2.502555,-1.5729 4.686912,-2.60547 6.070218,-3.20795 0.569477,-0.24803 1.741639,-0.75043 3.284558,-1.29492 1.393876,-0.49189 2.653154,-0.84658 2.770972,-0.87487 0.131819,-0.0316 0.334796,-0.078 0.513392,-0.11658 0.139828,-0.0302 0.579208,-0.13801 0.867636,-0.21079 0.315145,-0.0795 0.649529,-0.1414 0.751582,-0.14259 0.2028,-0.002 0.472054,-0.0931 1.891273,-0.38089 0.943851,-0.1914 1.790477,-0.32104 1.874539,-0.32598 0.08401,-0.005 0.660657,-0.0857 1.283214,-0.16343 0.15177,-0.0189 0.303502,-0.0372 0.455194,-0.0547 0,0 10e-7,0 10e-7,0 2.998468,-0.36164 5.422806,-0.37322 6.904392,-0.3499 1.023956,0.0161 2.427388,0.0874 3.943576,0.25708 1.57172,0.17593 2.777553,0.37858 3.756804,0.55565 5.164068,0.93376 8.981445,2.53632 10.979484,3.48663 0.85522,0.40676 1.69036,0.82986 2.61596,1.33934 0.63162,0.34767 1.14706,0.66067 1.34793,0.79189 0,0 0,0 0,0 0.0416,0.0263 0.0667,0.0433 0.0725,0.0491 0.0159,0.016 -0.0176,0.004 -0.0841,-0.0288 0,0 0,0 0,0 0,0 0,0 0,0 -0.0686,-0.0348 -0.17301,-0.0919 -0.29553,-0.16147 -0.27606,-0.15672 -0.57576,-0.32083 -0.81993,-0.45 -0.20866,-0.11039 -0.40406,-0.22102 -0.43114,-0.24671 -0.0279,-0.0265 -0.27891,-0.15515 -0.56151,-0.28322 -0.20018,-0.0907 -0.98886,-0.4738 -1.40287,-0.67629 -0.66518,-0.32534 -2.953936,-1.39628 -6.011386,-2.32596 -3.258087,-0.99068 -5.999144,-1.43196 -7.758636,-1.66128 -2.426403,-0.31622 -3.123119,-0.3147 -1.528119,-0.14081 0.442464,0.0482 0.835715,0.10376 0.874935,0.11511 0.09998,0.0289 -0.443649,0.0168 -0.905151,-0.014 -0.680124,-0.0454 -0.5544,-8.2e-4 -0.248561,0.0271 0.263625,0.0241 1.176215,0.11353 2.30585,0.2802 1.347636,0.19882 2.872588,0.47311 4.618106,0.90118 2.413651,0.5919 2.647545,0.73859 2.6357,0.77854 -0.01644,0.0554 0.609118,0.10747 3.976738,1.51893 1.357944,0.56915 2.465324,1.13504 2.498924,1.16497 0.0327,0.0292 0.32906,0.18511 0.65181,0.34928 1.64012,0.83423 0.21719,0.20823 -0.62043,-0.16278 -0.29145,-0.12911 -1.01477,-0.45191 -1.16389,-0.52141 -1.655127,-0.77135 -1.226641,-0.55017 0.60452,0.36405 0.8874,0.44305 1.5995,0.83079 2.24868,1.19778 0.26412,0.14932 0.59832,0.34345 0.97269,0.57091 0.3704,0.21709 0.71416,0.4265 1.01821,0.61725 0.76963,0.48281 1.59473,1.0189 2.60099,1.73346 1.02667,0.72905 1.52458,1.14414 1.59024,1.22363 0.0511,0.0619 0.4634,0.40741 0.90242,0.77278 0.44182,0.3677 0.82981,0.72406 0.88265,0.79304 0.0476,0.0621 0.4613,0.44474 0.89406,0.84491 0.44684,0.4132 0.87275,0.8467 0.999,0.99837 0.14024,0.16849 0.57851,0.60815 1.19389,1.24943 1.31336,1.36864 2.23727,2.53485 2.27191,2.61311 0.0121,0.0273 -0.79839,-0.82624 -0.94693,-1.03498 -0.0474,-0.0666 -0.0948,-0.11345 -0.10498,-0.10432 -0.0102,0.009 0.13075,0.19416 0.31043,0.41319 0.3793,0.46235 0.36984,0.5075 0.10897,0.24609 -0.41265,-0.41351 0.1417,0.26829 0.98738,1.38915 0.76214,1.01015 1.18883,1.68702 0.83716,1.22382 -0.36221,-0.47707 0.17601,0.3056 0.64253,0.98558 0.29787,0.43416 0.5588,0.85091 0.6019,0.94094 0.037,0.0772 0.30044,0.51306 0.55751,0.94014 1.12058,1.86164 0.26812,0.57304 -0.10287,0.0142 -0.29862,-0.44978 -0.58718,-0.83664 -0.69237,-0.94762 -0.16874,-0.178 -0.26278,-0.33259 -0.81196,-1.11557 -1.03267,-1.47227 -1.40466,-1.84442 -1.57256,-1.97217 -0.11262,-0.0857 -0.19327,-0.12781 -0.1793,-0.095 0.014,0.033 0.2983,0.40396 0.62143,0.832 0.32628,0.4322 0.60817,0.83752 0.64903,0.91255 0.0358,0.0657 0.2502,0.38569 0.45873,0.69372 0.90368,1.33481 0.0928,0.23525 -0.27152,-0.2639 -0.34486,-0.47242 -0.66827,-0.87839 -0.7158,-0.9214 -0.0452,-0.0409 -0.42109,-0.51445 -0.85121,-1.03946 -0.54383,-0.66382 -0.81489,-0.95144 -0.86037,-0.9689 -0.0464,-0.0179 0.0505,0.10617 0.29411,0.39314 0.20948,0.24665 0.47891,0.58755 0.65475,0.82729 0.1639,0.22345 0.63095,0.8408 1.02442,1.38182 0.39732,0.54631 0.732,1.05327 0.77488,1.13967 0.0399,0.0805 0.0998,0.17382 0.13277,0.20667 0.0336,0.0334 0.13729,0.18875 0.2308,0.34783 0.15706,0.26724 0.0126,0.0553 -0.41284,-0.52995 -0.5661,-0.7788 -1.16731,-1.51176 -1.57095,-1.95538 -0.32463,-0.35677 0.17811,0.27543 1.02706,1.508 0.45676,0.66318 0.80433,1.22276 0.79721,1.22756 -0.007,0.005 0.22546,0.35109 0.50701,0.77635 0.41141,0.62135 0.49737,0.78257 0.47105,0.79875 -0.0406,0.025 -0.34426,-0.31656 -0.49026,-0.5461 -0.0874,-0.1375 -0.0876,-0.14514 0.0278,-0.005 0.1124,0.13697 0.11934,0.13909 2.8e-4,-0.0477 -0.0752,-0.11782 -0.17288,-0.23532 -0.21734,-0.26227 -0.0685,-0.0415 -0.19431,-0.26642 -0.99822,-1.42149 -1.08332,-1.55653 -1.25789,-1.63765 -1.17372,-1.45823 0.11807,0.25171 1.58133,2.59526 2.23905,3.64104 0.48706,0.77444 0.69482,1.20673 0.64208,1.23754 -0.0264,0.0154 -0.13986,-0.17909 -0.59491,-0.91474 -0.31536,-0.50988 -0.71296,-1.1385 -0.87324,-1.40382 -0.19628,-0.32489 -0.92738,-1.42522 -1.8776,-2.64393 -1.60362,-2.05673 -1.71382,-2.06305 -1.76617,-2.04442 -0.0518,0.0184 0.0361,0.17029 0.2272,0.40306 0.0658,0.0801 0.41538,0.50926 0.83351,1.05729 1.27991,1.67749 2.41161,3.37854 3.38366,5.01577 0.97036,1.63438 1.10569,2.08344 1.02555,2.00421 -0.0317,-0.0313 -0.0804,-0.11329 -0.10796,-0.18157 -0.0277,-0.0685 -0.0559,-0.10162 -0.0625,-0.074 -0.007,0.0279 -0.0627,-0.0455 -0.12599,-0.1635 -0.0631,-0.1177 -0.10828,-0.18212 -0.10014,-0.14485 0.008,0.038 -0.0955,-0.11409 -0.23245,-0.33435 -0.30248,-0.48646 -0.40431,-0.5544 -0.32924,-0.27875 0.0417,0.15319 0.0277,0.17846 -0.0482,0.0977 -0.12868,-0.13697 -0.0868,-0.0149 0.0841,0.2821 0.0695,0.12071 0.12133,0.22225 0.11607,0.22523 -0.005,0.003 -0.007,0.0514 -0.004,0.10754 0.005,0.0938 -0.0293,0.007 -0.59679,-0.96843 -0.40975,-0.70431 -0.67963,-1.13426 -0.90189,-1.49509 -0.21597,-0.35062 -0.28105,-0.43432 -0.30814,-0.41607 -0.0187,0.0126 -0.0988,-0.0539 -0.17846,-0.14731 -0.21206,-0.24861 -0.21735,0.009 -0.0278,0.34312 0.14627,0.25782 0.13014,0.23474 -0.01,0.0324 -0.16384,-0.23657 -0.14899,-0.2128 -0.0217,0.0146 0.18864,0.33692 -0.13639,-0.17855 -0.89367,-1.21055 -0.34522,-0.47046 -0.64325,-0.79887 -0.67803,-0.77244 -0.0187,0.0142 -0.11557,-0.0896 -0.25925,-0.27389 -0.13264,-0.17014 -0.31769,-0.39251 -0.43773,-0.52691 -0.19793,-0.22163 -0.19607,-0.21265 -0.0829,-0.0209 0.0662,0.11222 0.22992,0.3444 0.35339,0.50275 0.13457,0.17273 0.43443,0.62696 0.69272,1.06572 0.2382,0.40462 0.57821,0.9649 0.70061,1.14271 0.46518,0.67577 1.11814,1.77619 1.06815,1.73307 -0.0275,-0.0237 0.007,0.0445 0.0741,0.15096 0.0678,0.10681 0.11648,0.22338 0.10878,0.25898 -0.0178,0.0824 -0.51765,-0.54342 -0.72724,-0.89574 -0.0839,-0.14109 -0.17612,-0.26708 -0.2042,-0.28104 -0.0291,-0.0145 -0.97562,-1.35375 -1.3011,-1.84864 -0.17884,-0.27191 -0.91977,-1.29258 -1.8756,-2.41914 -1.55087,-1.82792 -2.09719,-2.28687 -1.50685,-1.61277 0.16322,0.18637 0.39162,0.4528 0.63193,0.74327 0.12812,0.15486 0.63748,0.76246 0.75548,0.90097 0.20358,0.2391 0.35808,0.44452 0.34691,0.45375 -0.0112,0.009 0.0402,0.0894 0.11364,0.17852 0.0752,0.0913 0.19992,0.26427 0.28383,0.3944 0.1524,0.23629 0.14214,0.22403 -0.0734,0.005 -0.4261,-0.43392 -0.27978,-0.18692 0.21059,0.52537 0.26835,0.38978 0.48242,0.74404 0.48616,0.78471 0.004,0.0399 0.0328,0.11925 0.0645,0.17595 0.10306,0.18428 -0.11346,0.0259 -0.23391,-0.1621 -0.0631,-0.0986 -0.0978,-0.14351 -0.0782,-0.10325 0.0201,0.0413 -0.0785,-0.0278 -0.21898,-0.15091 -0.18821,-0.1649 -0.34991,-0.34336 -0.6111,-0.6634 -0.19698,-0.24136 -0.35099,-0.41169 -0.33983,-0.3835 0.0114,0.0287 -0.3344,-0.39205 -0.7865,-0.92004 -0.63835,-0.7455 -0.89668,-0.99285 -1.01713,-1.08224 -0.1348,-0.10005 -1.17269,-1.1226 -1.58267,-1.55298 -0.178,-0.18687 -0.31852,-0.31286 -0.3718,-0.33787 -0.0465,-0.0219 -0.18823,-0.13573 -0.31388,-0.25081 -0.29244,-0.26785 -0.55758,-0.46786 -0.57777,-0.44529 -0.009,0.01 0.0486,0.0743 0.1269,0.14415 0.0785,0.0701 0.16704,0.17386 0.19782,0.23149 0.0345,0.0647 0.3945,0.43178 0.92618,0.98771 1.04753,1.09532 1.71996,1.98728 1.60826,1.94695 -0.0427,-0.0154 -0.12974,-0.0941 -0.19317,-0.17413 -0.0637,-0.0805 -0.1012,-0.11406 -0.0837,-0.0762 0.0178,0.0384 -0.0998,-0.0185 -0.26126,-0.12386 -0.21732,-0.14184 -0.33787,-0.24241 -0.46366,-0.38965 -0.0944,-0.11053 -0.15511,-0.1672 -0.13648,-0.12944 0.0189,0.0384 -0.10912,-0.0761 -0.28517,-0.25018 -0.1982,-0.19597 -0.60581,-0.56862 -1.01144,-0.912 -0.2317,-0.19615 -0.46546,-0.38959 -0.7012,-0.58026 0.0578,0.0797 0.11526,0.15959 0.17239,0.23962 0.0937,0.13123 0.2106,0.27756 0.25801,0.32147 0.0502,0.0465 0.21832,0.22877 0.38001,0.41566 0.28183,0.32576 0.27666,0.33075 0.10545,0.24496 -0.11589,-0.0581 -0.15273,-0.0536 -0.10163,0.01 0.045,0.0557 0.0461,0.0842 0.003,0.0637 -0.0505,-0.0241 -0.0982,-0.074 -0.13453,-0.14054 -0.0366,-0.0669 -0.0876,-0.11957 -0.14503,-0.14979 -0.0475,-0.025 -0.22749,-0.15351 -0.39596,-0.28046 -0.10281,-0.0775 -0.20594,-0.15441 -0.30938,-0.23081 0.0981,0.0927 0.19569,0.18586 0.29282,0.27951 0.3325,0.32063 0.4194,0.50013 0.18932,0.316 -0.0837,-0.067 -0.17173,-0.1483 -0.19454,-0.18022 -0.0233,-0.0326 -0.19682,-0.17186 -0.38862,-0.30865 -0.17315,-0.12349 -0.53504,-0.39827 -0.72551,-0.55024 -0.21022,-0.16773 -0.44678,-0.33563 -0.53395,-0.38231 -0.24985,-0.13381 -0.21464,-0.14074 -1.15027,-0.94678 -0.78072,-0.67259 -1.08481,-0.86751 -1.45959,-1.03726 -0.24512,-0.11103 -0.29061,-0.14946 -0.84308,-0.54806 -0.62954,-0.45422 -2.17142,-1.42102 -2.04254,-1.27454 0.0249,0.0282 0.39719,0.27124 0.81995,0.55134 1.17348,0.77749 1.0755,0.7682 0.98825,0.72567 -0.30465,-0.14853 0.96057,0.80428 2.22966,1.82821 0.33658,0.27155 0.62248,0.5242 0.6414,0.55399 0.019,0.0299 -0.078,0.004 -0.21528,-0.056 -0.2324,-0.10156 -0.23849,-0.0946 -0.12112,0.0532 0.0706,0.0889 0.12381,0.16697 0.11881,0.17311 -0.0205,0.0252 -1.67081,-1.29246 -2.2156,-1.72588 -0.86424,-0.68755 -2.39123,-1.68297 -2.67375,-1.7738 -0.0968,-0.0311 -0.1057,-0.0156 -0.0348,0.0529 0.0965,0.0932 0.2838,0.176 1.62713,1.15106 0.41891,0.30408 0.61714,0.47422 0.60226,0.49598 -0.0188,0.0275 -0.138,-0.0576 -0.78225,-0.48581 -0.49083,-0.32621 -0.80167,-0.50607 -0.85428,-0.51733 -0.0454,-0.01 -0.0233,0.0176 0.0479,0.0606 0.0717,0.0433 0.10164,0.0687 0.0678,0.0569 -0.047,-0.0164 -0.56792,-0.35617 -1.02696,-0.64449 0,0 0,0 0,0 -0.31185,-0.20671 -0.603598,-0.39556 -0.656863,-0.43852 -0.107159,-0.0864 -1.667842,-0.96836 -2.016301,-1.12693 -0.107728,-0.049 -0.202209,-0.075 -0.20969,-0.0586 -0.0075,0.0164 -0.0461,0.0324 -0.08571,0.0355 -0.06265,0.005 1.072715,0.53991 2.899098,1.70926 0,0 0,0 0,0 0.17676,0.10714 0.35988,0.21998 0.54878,0.33866 0.3491,0.21932 0.74089,0.48913 0.95484,0.65174 0.18326,0.13929 0.51401,0.37579 0.67731,0.4836 0.44787,0.29563 1.11112,0.81989 0.96878,0.7588 -0.0564,-0.0242 -0.67523,-0.44637 -1.39573,-0.90476 -0.72051,-0.45838 -1.31919,-0.79881 -1.31079,-0.79105 0.008,0.008 0.23881,0.17133 0.50818,0.36827 0.48621,0.35544 0.45694,0.34673 0.23555,0.24213 -0.19667,-0.0929 -0.36896,-0.20029 -0.75904,-0.45476 -0.31953,-0.20845 -0.51696,-0.32938 -0.60774,-0.38009 -0.0868,-0.0513 -0.10928,-0.0556 -0.11654,-0.0429 -0.0036,0.006 0.033,0.038 0.0933,0.0832 0.0525,0.0373 0.12291,0.0843 0.20027,0.1335 0.71053,0.45157 0.264,0.22204 -0.24177,-0.0614 -7.4e-4,-4.4e-4 -0.0307,-0.0182 -0.0315,-0.0187 -0.399944,-0.23745 -0.79847,-0.4412 -1.014337,-0.53004 -0.208945,-0.086 -0.442442,-0.19924 -0.577285,-0.2817 -0.214415,-0.13112 -1.398905,-0.74535 -2.81684,-1.32345 -1.342406,-0.5473 -2.687537,-0.96269 -2.659266,-0.94155 0.119788,0.0896 -1.395132,-0.38321 -2.711426,-0.73992 -2.687289,-0.72806 -5.02248,-1.00675 -6.568219,-1.09782 -1.102621,-0.065 -1.862975,-0.0864 -2.833644,-0.10001 -0.855591,-0.012 -1.840856,0.01 -2.821368,0.0745 -0.837812,0.0554 -1.556392,0.12931 -1.600029,0.12913 -0.01285,-5e-5 -0.06213,0.004 -0.137749,0.0109 -0.186489,0.019 -0.498669,0.0555 -0.861425,0.10625 -0.59395,0.0831 -1.022515,0.1542 -1.346079,0.20808 -0.776901,0.12934 -2.42664,0.45962 -4.282874,1.0165 -1.353899,0.40617 -2.637922,0.85523 -3.977012,1.39869 -0.485945,0.19722 -1.735179,0.73336 -3.184235,1.50948 -1.55279,0.83167 -2.671684,1.55836 -3.426704,2.0605 -0.703626,0.46797 -1.944992,1.35901 -3.267975,2.53183 -0.869498,0.77081 -1.473831,1.39051 -1.729473,1.66031 -0.300661,0.29253 -0.401635,0.41041 -0.422001,0.45069 -0.04639,0.0917 -0.06991,0.11547 -0.158229,0.15945 -0.06882,0.0343 -0.185654,0.14047 -0.345346,0.31901 -0.131399,0.14692 -0.290568,0.30506 -0.351673,0.34701 -0.06361,0.0437 -0.237683,0.20681 -0.391067,0.3697 -0.136573,0.14505 -0.369483,0.38874 -0.448976,0.46818 -0.531243,0.53087 -1.005572,1.09472 -1.183496,1.36714 -0.142129,0.21762 -0.52929,0.67203 -0.505377,0.59818 0.01027,-0.0317 -0.360014,0.43217 -0.797872,1.05129 -1.179112,1.66725 -1.249805,1.88025 -1.405041,2.05831 -0.126558,0.14518 -0.133661,0.16201 -0.07574,0.15306 0.04472,-0.007 0.03218,0.0398 -0.03737,0.14482 -0.05944,0.0898 -0.163451,0.25909 -0.242912,0.39657 -0.07685,0.13283 -0.146744,0.23774 -0.156463,0.23234 -0.0097,-0.005 -0.06846,0.0649 -0.130063,0.1568 -0.08163,0.12172 -0.09136,0.15451 -0.0393,0.12177 0.05014,-0.0315 0.04312,-0.007 -0.02043,0.0792 -0.05519,0.0744 -0.348554,0.58196 -0.65043,1.16659 -0.242371,0.4694 -0.510686,1.0099 -0.825953,1.71235 -0.240494,0.53585 -1.158937,2.58184 -1.95735,5.36917 -0.634289,2.21435 -0.95431,4.01907 -1.126567,5.0913 -0.03614,0.23745 -0.06052,0.4063 -0.07373,0.49023 -0.06721,0.42715 -0.115829,0.85259 -0.11914,0.97595 -0.0057,0.21356 -0.203366,4.29459 -0.172402,5.54898 0.02481,1.00526 0.226892,2.05989 0.230164,1.46333 5.08e-4,-0.0938 0.0232,-0.0278 0.05605,0.15229 0.03096,0.16973 0.06938,0.33665 0.08481,0.37411 0.04468,0.1085 0.17846,1.20419 0.179087,1.47773 4.11e-4,0.17929 0.05022,0.69568 0.174697,1.45921 0.138426,0.8491 0.433044,2.54738 1.035365,4.62082 0.543741,1.8718 1.206682,3.45988 1.276281,3.60738 0.06961,0.1475 0.34229,0.78293 0.629463,1.40008 0.293118,0.62992 0.596027,1.19127 0.67956,1.3138 0.05019,0.0736 0.541029,0.88283 0.690966,1.13345 0.04941,0.0911 0.0865,0.16123 0.102695,0.19697 0.09904,0.2186 0.297723,0.58026 0.511406,0.91829 0.115524,0.18274 0.289644,0.46518 0.347482,0.56642 0.08077,0.14143 0.160114,0.27811 0.242936,0.41853 0.07942,0.13469 0.39479,0.62124 0.776489,1.1552 0.480188,0.67178 0.70798,0.96211 0.996234,1.34782 0.174324,0.23336 0.363646,0.46042 0.424605,0.51566 0.05644,0.0511 0.22572,0.23416 0.367222,0.39434 0.213987,0.24224 0.256917,0.29972 0.229027,0.32316 -0.03019,0.0254 0.02505,0.11033 0.549472,0.69156 0.45181,0.50074 1.0544,1.16835 1.956739,2.05708 0.817281,0.80496 1.607786,1.4846 1.94895,1.75245 0.286246,0.22472 0.544498,0.42136 0.569718,0.44235 0.02536,0.0211 0.0041,-0.0197 -0.04634,-0.0902 -0.04961,-0.0693 -0.235346,-0.2494 -0.406394,-0.39668 -0.172343,-0.14839 -0.308522,-0.2751 -0.304538,-0.27968 0.004,-0.005 -0.0055,-0.0446 -0.02104,-0.0889 -0.03818,-0.10921 0.216142,0.11838 0.384596,0.34073 0.09513,0.12555 0.149004,0.17567 0.192144,0.18119 0.0329,0.004 0.09402,0.0453 0.135815,0.0911 0.04186,0.0459 0.08232,0.0759 0.08979,0.0669 0.0075,-0.009 0.10942,0.0619 0.227249,0.15668 0.156758,0.12607 0.735968,0.58548 1.487271,1.12531 0.920289,0.66126 1.95041,1.36386 3.270466,2.15399 1.132203,0.67768 2.117652,1.17828 2.306116,1.26501 0.312467,0.1438 1.020422,0.49032 2.041786,0.92518 0,0 0,0 0,0 1.073646,0.44359 2.040062,0.79307 2.930171,1.09092 2.942974,0.98476 5.286874,1.30693 5.781484,1.28417 0.152371,-0.007 0.422884,0.0121 0.608087,0.0423 1.784134,0.29178 3.459587,0.41051 4.644783,0.42716 0.520516,0.007 0.962227,0.008 1.537295,-9.4e-4 0.502438,-0.008 1.03426,-0.0347 1.413325,-0.0645 0.327282,-0.0258 0.613382,-0.053 0.637026,-0.0543 0.02364,-0.001 0.04435,0.0279 0.046,0.0649 0,0 2.01e-4,1.8e-4 2.01e-4,1.8e-4 z m 0.01072,0.23909 c 0.0013,0.0287 0.05442,0.0283 0.234474,-0.004 0.139157,-0.0254 0.20331,-0.0573 0.161041,-0.078 -0.05494,-0.027 -0.108158,-0.0255 -0.233923,0.006 -0.08965,0.0221 -0.162507,0.0565 -0.161592,0.077 z m -19.860521,-3.94776 c -0.23033,-0.099 -0.642633,-0.27633 0.479148,0.27487 0.710052,0.34889 1.302252,0.61304 1.708493,0.78777 0,0 0,0 0,0 0.800548,0.33454 1.097487,0.43384 1.101975,0.42286 0.0054,-0.0131 -0.48187,-0.21007 -1.082136,-0.4676 -0.852346,-0.37631 -1.928163,-0.89779 -2.20748,-1.0179 z m 49.877928,-13.16462 c 0.005,0.003 0.0534,-0.0646 0.10764,-0.15073 0.0542,-0.0861 0.0885,-0.16283 0.0766,-0.17026 -0.0119,-0.007 -0.0598,0.0607 -0.10689,0.15112 -0.0471,0.0905 -0.0821,0.16681 -0.0773,0.16987 z m -5.5628,6.99274 c -0.0202,0.0404 0.0601,-0.0214 0.18485,-0.14504 0.12147,-0.12032 0.23515,-0.25146 0.25461,-0.29192 0.02,-0.0416 -0.0599,0.0234 -0.18336,0.14668 -0.12022,0.11999 -0.2364,0.25087 -0.2561,0.29028 z m 3.99103,-4.32493 c 0.0217,0.0163 0.11328,-0.10055 0.25784,-0.33565 0.18647,-0.30326 0.0643,-0.17978 -0.10198,0.066 -0.0954,0.14097 -0.16606,0.26201 -0.15585,0.26969 -1e-5,0 -1e-5,0 -1e-5,0 z m -60.660335,1.23594 c -0.272655,-0.29348 -0.338049,-0.36178 -0.205361,-0.18005 0.193455,0.26496 2.833616,3.16477 4.444948,4.52685 0.218929,0.18506 -0.507834,-0.4495 -1.327848,-1.24944 -0.952144,-0.92883 -1.592751,-1.64186 -2.018237,-2.11258 -0.159754,-0.17674 -0.830895,-0.91739 -0.893502,-0.98478 z m -2.556607,-3.3797 c -0.05443,-0.0766 0.02649,0.0693 0.290319,0.46698 0.576454,0.86888 0.844034,1.18589 0.483128,0.6313 -0.138614,-0.21301 -0.356499,-0.53258 -0.448588,-0.65483 -0.112254,-0.14904 -0.236299,-0.31878 -0.324862,-0.44345 z m 65.861862,-1.70566 c -0.11983,0.20855 -0.13408,0.23373 0.0402,-0.0149 0.19543,-0.27873 0.32507,-0.53951 0.28546,-0.56175 -0.0144,-0.008 -0.063,0.0658 -0.10875,0.16417 -0.0472,0.10146 -0.14137,0.28095 -0.21696,0.41247 0,-1e-5 1e-5,-2e-5 2e-5,-3e-5 z m -66.82096,0.14501 c -0.02136,-0.0241 0.07622,0.16779 0.224304,0.42771 0.148043,0.25985 0.302365,0.49381 0.340783,0.52543 0.05132,0.0422 -0.02582,-0.0878 -0.232413,-0.42333 -0.162477,-0.26388 -0.311659,-0.50605 -0.332676,-0.52981 z m 48.816463,-55.24837 c 0.04724,0.004 -0.124703,-0.0832 -0.467162,-0.22346 -0.559402,-0.22915 -0.443203,-0.17143 -0.21517,-0.0636 0.494929,0.23402 0.586056,0.27971 0.682332,0.28706 z m 23.332827,43.03445 c 0.0243,-0.0874 0.0429,-0.19289 0.0417,-0.23549 -0.001,-0.0429 -0.0203,0.0296 -0.0433,0.1585 -0.025,0.13988 -0.026,0.17638 0.002,0.077 0,-2e-5 0,-3e-5 1e-5,-5e-5 z m -0.27043,1.45186 c -0.038,0.23458 -0.0427,0.27613 0.007,0.0659 0.0325,-0.13779 0.0715,-0.35245 0.0893,-0.49322 0.0465,-0.36797 -0.0359,0.0544 -0.0963,0.42732 0,1e-5 0,2e-5 0,3e-5 z m -0.42617,1.62675 c -0.0209,0.10743 -0.0181,0.20117 0.007,0.20825 0.0387,0.011 0.0678,-0.0634 0.17488,-0.50603 0.20674,-0.85443 0.10676,-0.64588 0.07,-0.50205 -0.0367,0.14352 -0.0875,0.29045 -0.11265,0.32831 -0.0528,0.0795 -0.0853,0.19497 -0.13912,0.47152 z m -10.8415,-39.36663 c 0.01,-0.0105 -0.0554,-0.0878 -0.14583,-0.17121 -0.14374,-0.13258 -0.14364,-0.1264 -0.0412,-0.003 0.15504,0.18704 0.16492,0.19728 0.18699,0.17396 0,0 -1e-5,-1e-5 -1e-5,-1e-5 z m 11.31751,42.85437 c 0.0398,-0.0863 0.0773,-0.19227 0.0838,-0.2364 0.007,-0.0444 -0.0255,0.0273 -0.0716,0.15672 -0.05,0.14048 -0.0576,0.17779 -0.0123,0.0796 -1e-5,2e-5 -2e-5,3e-5 -3e-5,4e-5 z m 0.42892,-0.98562 c 0.0404,0.0136 0.16313,-0.3301 0.27203,-0.79778 0.13984,-0.60051 0.0301,-0.3071 -0.13144,0.22395 -0.11491,0.3778 -0.16399,0.56595 -0.1406,0.57383 0,0 0,0 10e-6,0 z m -0.86564,2.276 c 0.0887,-0.10546 0.2712,-0.53842 0.23439,-0.55269 -0.0207,-0.008 -0.083,0.11215 -0.1573,0.2988 -0.0681,0.17104 -0.10389,0.28578 -0.0771,0.25389 z m 0.38981,-0.91464 c -0.0316,0.13342 -0.003,0.0856 0.12761,-0.26754 0.094,-0.25394 0.15702,-0.46643 0.14338,-0.47127 -0.0316,-0.0112 -0.21097,0.4851 -0.27099,0.73881 z m -1.96377,-38.81658 c 0.012,-0.008 -0.0137,-0.0673 -0.0573,-0.13146 -0.0436,-0.0641 -0.0893,-0.10981 -0.10126,-0.10164 -0.0119,0.008 0.0141,0.0671 0.0577,0.13118 0.0436,0.0641 0.0889,0.11001 0.1009,0.10192 z m 0.97572,0.58875 c -0.0473,-0.0873 -0.13335,-0.2202 -0.19372,-0.2991 -0.0623,-0.0814 -0.0183,-0.004 0.086,0.15654 0.10426,0.16098 0.1565,0.23264 0.10771,0.14256 z m -0.93983,-1.95407 c -0.1015,-0.15364 -0.26441,-0.37881 -0.37861,-0.52329 -0.12563,-0.15895 -0.0126,1e-5 0.181,0.26762 0.19362,0.26761 0.30929,0.42471 0.19761,0.25567 z m -4.08412,-5.24852 c 0.008,-0.008 -0.34553,-0.41056 -0.8002,-0.88223 -0.45467,-0.47167 -0.94675,-0.95971 -1.08069,-1.09651 -0.15209,-0.15534 -0.22573,-0.21707 -0.19671,-0.16928 0.0262,0.0432 0.4609,0.47379 0.95019,0.97177 0.50036,0.50925 0.90893,0.95457 0.9712,1.02644 0.0574,0.0663 0.0995,0.11522 0.11789,0.13661 0.013,0.015 0.0302,0.021 0.0383,0.0132 1e-5,0 1e-5,1e-5 1e-5,1e-5 z m -2.49786,65.24962 c -0.16676,0.17371 -0.18391,0.19528 0.0912,-0.0485 0.16124,-0.1428 0.31266,-0.29562 0.33954,-0.34006 0.0589,-0.0973 -0.15261,0.0989 -0.43073,0.38858 z m 2.07038,-66.24902 c 0.009,-0.009 -0.43925,-0.49009 -1.01622,-1.04965 -1.2996,-1.26036 -1.57157,-1.4466 -1.45267,-1.30109 0.0499,0.061 0.63108,0.5858 1.26809,1.19072 0.637,0.60491 1.14883,1.13231 1.1616,1.14782 0.0128,0.0155 0.0304,0.021 0.0392,0.0122 0,0 0,0 0,0 z m 3.86497,60.62607 c -0.0151,0.0373 0.0243,0.003 0.0889,-0.078 0,0 10e-6,0 10e-6,0 0.004,-0.005 0.009,-0.011 0.0133,-0.0168 0.0725,-0.0922 0.1237,-0.17396 0.11419,-0.18136 -0.01,-0.007 -0.0554,0.0355 -0.10211,0.095 -0.0189,0.0241 -0.0386,0.0517 -0.0564,0.0787 -0.0262,0.0399 -0.0483,0.0785 -0.058,0.1023 z m -14.93708,12.46133 c 0.0979,-0.0421 0.20884,-0.10126 0.24807,-0.13185 0.0395,-0.0308 -0.0411,0.005 -0.17696,0.077 -0.14704,0.0779 -0.18281,0.10291 -0.0711,0.0548 -10e-6,1e-5 -3e-5,2e-5 -5e-5,3e-5 z m 16.86644,-14.93481 c 0.0119,0.008 0.0871,-0.0804 0.16642,-0.19748 0.12641,-0.18665 0.11911,-0.18402 -8.5e-4,-0.0449 -0.1821,0.21121 -0.19204,0.22422 -0.16558,0.2424 0,-10e-6 1e-5,-10e-6 1e-5,-2e-5 z m -0.30215,0.50527 c 0.005,0.004 0.0476,-0.0473 0.0941,-0.11345 0.0464,-0.0661 0.0739,-0.12757 0.0613,-0.13633 -0.0126,-0.009 -0.0546,0.0424 -0.0937,0.11368 -0.039,0.0712 -0.067,0.13242 -0.0617,0.1361 z m -5.26921,6.50679 c -0.15891,0.17364 -0.55182,0.58027 -0.98251,0.99892 -0.319,0.31007 -0.79873,0.76424 -1.11773,1.07432 -0.20417,0.19829 -0.37397,0.35784 -0.37476,0.35692 -0.007,-0.008 -0.74584,0.6858 -1.11531,1.02939 -0.47969,0.4461 -0.65954,0.65453 -0.0228,0.14896 0.28398,-0.22548 0.41238,-0.31586 0.42992,-0.29448 0.0258,0.0314 -0.4757,0.47006 -1.36672,1.12205 -0.21064,0.15414 -1.64785,1.25791 -1.72154,1.32003 -0.16085,0.13559 0.43947,-0.2269 1.25495,-0.81768 0.5061,-0.36665 0.94884,-0.72668 1.43599,-1.17052 0.36078,-0.32871 0.82909,-0.75742 0.93124,-0.84303 0.19169,-0.16071 0.19214,-0.16901 0.0533,-0.0768 -0.099,0.0657 -0.21872,0.15866 -0.26392,0.20523 -0.0456,0.047 -0.0902,0.0768 -0.099,0.0662 -0.0151,-0.0182 0.23373,-0.22835 1.06213,-1.00019 0.19886,-0.18529 0.37445,-0.37398 0.39366,-0.41896 0.0284,-0.0666 0.07,-0.10424 0.2294,-0.21205 0.16401,-0.1109 0.17825,-0.12711 0.10193,-0.10376 -0.0685,0.0209 -0.0279,-0.0284 0.14486,-0.18382 0.13737,-0.12355 0.38313,-0.36523 0.57555,-0.56829 0.23526,-0.24825 0.38765,-0.39535 0.50875,-0.4839 0.0972,-0.0711 0.16446,-0.13483 0.15413,-0.14517 -0.0206,-0.0206 0.70885,-0.88033 0.97825,-1.16623 0.0955,-0.10135 0.16121,-0.19573 0.14671,-0.20923 -0.0196,-0.0183 -0.15733,0.12322 -0.55281,0.54157 -0.23194,0.24536 -0.70589,0.74554 -0.78372,0.83059 1e-5,-2e-5 2e-5,-3e-5 2e-5,-4e-5 z m -3.99137,4.73086 c 0.0908,-0.061 0.21242,-0.16354 0.27259,-0.22943 0.079,-0.0866 0.025,-0.0473 -0.16338,0.11104 -0.15299,0.12866 -0.20574,0.18323 -0.10921,0.11838 z M 85.058176,158.99818 c 7.86e-4,-0.0108 -0.203936,-0.0379 -0.454948,-0.0574 -0.26219,-0.0204 -0.417763,-0.02 -0.368263,-0.003 0.103289,0.0358 0.821556,0.0893 0.823212,0.0603 z m 24.300774,85.07229 c -0.10059,0.0759 -0.20149,0.15133 -0.30268,0.22639 0.0997,-0.0629 0.1992,-0.12625 0.29848,-0.18996 0.33646,-0.2159 0.86592,-0.6526 0.84089,-0.68426 -0.009,-0.0115 -0.13177,0.0784 -0.27535,0.19998 -0.15135,0.12821 -0.38643,0.31591 -0.56135,0.44784 z M 83.862481,158.76281 c 5.75e-4,-0.0121 -0.100933,-0.0271 -0.225622,-0.0327 -0.12472,-0.006 -0.227132,2.1e-4 -0.227595,0.0123 -4.63e-4,0.0121 0.101135,0.026 0.225707,0.0316 0.124541,0.006 0.226935,8.5e-4 0.22751,-0.0112 z m 0.632073,0.0396 c -0.108838,-0.0145 -0.238436,-0.0212 -0.289439,-0.0153 -0.05144,0.006 0.03889,0.017 0.197324,0.0255 0.171534,0.009 0.21629,0.006 0.09207,-0.0102 1.4e-5,0 2.7e-5,1e-5 4.1e-5,2e-5 z m 22.763496,86.7994 c 0.0956,-0.0543 0.20303,-0.12728 0.24009,-0.16282 0.0373,-0.0358 -0.0414,0.01 -0.17287,0.099 -0.14234,0.0963 -0.1764,0.12576 -0.0673,0.0638 2e-5,-10e-6 3e-5,-2e-5 5e-5,-3e-5 z m 12.22415,-11.65065 c 0.0117,0.009 0.0616,-0.0393 0.11085,-0.10667 0.0492,-0.0673 0.0797,-0.12945 0.0679,-0.13794 -0.0117,-0.008 -0.0613,0.0397 -0.11046,0.10695 -0.0491,0.0672 -0.08,0.1291 -0.0683,0.13766 z m -2.39853,3.12159 c 0.0223,0.0193 0.18802,-0.21354 0.21263,-0.29953 0.0244,-0.0853 0.008,-0.0672 -0.0952,0.0964 -0.0684,0.10826 -0.12157,0.19955 -0.11744,0.20312 z m -1.00981,1.12892 c 0.016,0.0147 0.0473,0.007 0.0694,-0.0171 0.0222,-0.0242 0.0536,-0.0848 0.0699,-0.13503 0.0163,-0.0502 -0.015,-0.0421 -0.0693,0.0173 -0.0544,0.0595 -0.086,0.12012 -0.07,0.13484 0,0 0,0 0,0 z M 92.050696,158.81531 c -0.107762,-0.0319 -0.237623,-0.0595 -0.290047,-0.0619 -0.0528,-0.002 0.03675,0.023 0.195445,0.0571 0.171636,0.0368 0.217758,0.0413 0.09455,0.005 1.7e-5,0 3.5e-5,0 5.2e-5,1e-5 z m -30.660718,91.76083 c -0.0504,-0.008 -0.03639,0.018 0.03193,0.057 0.02043,0.0117 0.04371,0.0227 0.06776,0.0324 0,0 0,0 0,0 0,0 0,0 0,0 0,0 0,0 0,0 0,0 0,0 0,0 0,0 0,0 0,0 0.05603,0.0231 0.116089,0.039 0.153679,0.0391 0.0778,2.4e-4 -0.01478,-0.0569 -0.128179,-0.0966 0,0 0,0 0,0 -0.04121,-0.0141 -0.08531,-0.0259 -0.125205,-0.0319 6e-6,0 1.2e-5,1e-5 1.8e-5,1e-5 z m 53.388692,-27.58129 c 0.0479,-0.0533 0.066,-0.0553 0.0396,-0.003 -0.0259,0.0508 0.01,0.011 0.0814,-0.094 0.16244,-0.23784 0.10417,-0.0265 -0.20944,0.55701 -0.16316,0.30372 -0.19243,0.3394 -0.13169,0.20493 0.0993,-0.21984 0.11216,-0.38667 0.0274,-0.22601 -0.16557,0.31396 -0.26118,0.55601 -0.19992,0.52587 0.0587,-0.0289 0.0528,-0.017 -0.0568,0.0975 -0.14187,0.14814 -0.61761,0.95888 -0.61458,1.04325 0.002,0.048 -0.0237,0.0909 -0.12397,0.2052 -0.16334,0.18626 -0.31414,0.23873 -0.20086,0.0824 0.0459,-0.0632 0.0878,-0.0919 0.0933,-0.0633 0.007,0.036 0.0338,-0.0122 0.088,-0.16282 0.0718,-0.19937 0.17994,-0.36942 0.61086,-1.13545 0.3337,-0.59322 0.53776,-0.9658 0.59664,-1.0314 10e-6,1e-5 2e-5,2e-5 4e-5,2e-5 z m 0.78365,-1.46557 c 0.0854,-0.1336 0.11023,-0.046 0.0278,0.13016 -0.0592,0.12665 -0.17749,0.2019 -0.14329,0.0943 0.0152,-0.0479 0.0676,-0.14943 0.11549,-0.22444 1e-5,0 1e-5,0 1e-5,0 z m -0.96881,2.38888 c 0.104,-0.0945 0.10609,-0.0822 -0.009,0.13522 -0.0712,0.13389 -0.16876,0.31591 -0.21628,0.40476 -0.15689,0.29334 -0.2038,0.3214 -0.14378,0.11618 0.078,-0.26671 0.21996,-0.5202 0.36955,-0.65616 z m -62.319076,6.755 c -0.0048,0.004 -0.04987,-0.0288 -0.100067,-0.0736 -0.05016,-0.0448 -0.08162,-0.0898 -0.07005,-0.0998 0.01157,-0.0101 0.05637,0.0232 0.09976,0.0739 0.04337,0.0506 0.07514,0.0953 0.07036,0.0996 z m -0.920894,-1.08251 c -0.06518,-0.053 -0.131779,-0.12441 -0.148545,-0.15891 -0.01686,-0.0347 0.03632,0.01 0.117856,0.0966 0.115786,0.12355 0.127385,0.14091 0.0307,0.0623 -6e-6,0 -1.1e-5,-10e-6 -1.6e-5,-2e-5 z m 57.6921,2.48159 c 0.009,0.009 -0.0305,0.0884 -0.0891,0.17703 -0.0825,0.12489 -0.13506,0.18022 -0.23239,0.24575 -0.0984,0.0663 -0.10047,0.0505 -0.0158,-0.0649 0.1385,-0.18897 0.31516,-0.37843 0.33729,-0.35783 0,0 0,0 0,-1e-5 z M 68.232987,169.9129 c -0.0048,-0.0137 0.06693,-0.0518 0.159617,-0.0842 0.09287,-0.0325 0.204719,-0.0585 0.249392,-0.0584 0.04472,1.3e-4 -0.02811,0.0373 -0.160064,0.0831 -0.132265,0.0459 -0.244165,0.0731 -0.248945,0.0594 z m -1.972109,0.72827 c -0.01136,-0.0278 0.294992,-0.15691 0.384389,-0.1614 0.03541,-0.002 -0.03545,0.0385 -0.155909,0.0899 -0.120671,0.0515 -0.223337,0.0841 -0.228484,0.0715 z m 31.070284,70.34815 c 0.122524,0.009 -0.01743,0.0894 -0.426147,0.22314 -0.213365,0.0698 -0.332342,0.0987 -0.273905,0.0708 0.467322,-0.22358 0.630406,-0.29899 0.700052,-0.29392 z M 53.482654,179.28643 c -0.01046,-0.01 -0.0021,-0.0353 0.0187,-0.0562 0.02082,-0.021 0.07011,-0.0538 0.1098,-0.0731 0.03976,-0.0193 0.03089,0.006 -0.01888,0.0561 -0.04991,0.0501 -0.09915,0.0832 -0.10962,0.0732 2e-6,-1e-5 4e-6,-1e-5 6e-6,-1e-5 z m -1.216393,1.26536 c -0.04866,0.0272 -0.07225,0.0206 -0.05199,-0.0153 0.0548,-0.0973 0.160334,-0.16291 0.149821,-0.0942 -0.0074,0.0483 -0.02648,0.0695 -0.09784,0.10945 3e-6,2e-5 7e-6,3e-5 1e-5,5e-5 z m 0.303003,-0.3286 c -0.146087,0.13459 -0.197498,0.12548 0.02969,-0.0958 0.09635,-0.0939 0.183467,-0.16289 0.192959,-0.15435 0.01861,0.0168 -0.04524,0.0867 -0.222653,0.25014 z m 53.418106,-4.0004 c -0.0886,-0.11244 -0.0317,-0.1068 0.11907,0.0194 0.0786,0.0658 0.13109,0.13342 0.11697,0.14993 -0.0267,0.0312 -0.14593,-0.0549 -0.23604,-0.1693 z m -19.347417,68.26972 c 0.03393,0.007 -0.04418,0.0293 -0.175151,0.0495 -0.131073,0.0202 -0.206811,0.0204 -0.169778,0.002 0.08248,-0.0412 0.260961,-0.0678 0.344929,-0.0515 z m -1.096248,0.18434 c -0.03662,0.0258 -0.156848,0.0574 -0.268022,0.07 -0.186585,0.0209 -0.374574,0.0442 -0.755111,0.0831 -0.4143,0.0424 -0.489102,0.0387 -0.371035,0.0133 0.15463,-0.0333 0.149598,-0.0373 0.0087,-0.0277 -0.09653,0.007 -0.140186,0.002 -0.09882,-0.01 0.03963,-0.0113 0.411268,-0.0488 0.814537,-0.0909 0.607731,-0.0634 0.73086,-0.0808 0.669746,-0.0378 -9e-6,0 -1.8e-5,0 -2.7e-5,1e-5 z M 119.8176,212.06524 c 0.0457,-0.0859 0.0396,0.14964 -0.009,0.30777 -0.0416,0.13625 -0.0713,0.0327 -0.0439,-0.13432 0.01,-0.0589 0.0334,-0.13716 0.0527,-0.17345 z m 0.46844,1.27758 c 0.0134,0.003 0.0208,0.061 0.0163,0.12992 -0.005,0.0721 -0.0192,0.0903 -0.0338,0.0438 -0.0284,-0.0908 -0.0195,-0.18083 0.0175,-0.17373 0,0 0,0 -1e-5,-1e-5 z m -0.17259,0.90728 c 0.0205,0.004 0.021,0.0539 8.6e-4,0.10985 -0.0202,0.0561 -0.0404,0.0673 -0.0448,0.0256 -0.0114,-0.1068 6.2e-4,-0.14478 0.044,-0.13537 0,-1e-5 0,-2e-5 0,-3e-5 z m -0.92619,-28.7379 c -0.041,-0.10565 -0.0469,-0.14065 -0.0102,-0.0728 0.0366,0.0678 0.0987,0.20781 0.13996,0.31602 0.0412,0.10829 0.0443,0.1387 0.01,0.0729 -0.0346,-0.0658 -0.0984,-0.21058 -0.13936,-0.31609 -1e-5,-2e-5 -2e-5,-4e-5 -3e-5,-6e-5 z m 0.9313,43.19237 c 0.01,0.006 -0.0481,0.1224 -0.12969,0.2586 -0.0816,0.1362 -0.15858,0.24136 -0.1702,0.2343 -0.0116,-0.007 0.0479,-0.12275 0.13122,-0.25764 0.0834,-0.1349 0.15887,-0.24105 0.16867,-0.23526 z m -3.09681,5.22076 c 0.0831,-0.0791 0.16603,-0.15858 0.24866,-0.23841 -0.0881,0.12001 -0.1768,0.23959 -0.26607,0.35875 -0.0844,0.11318 -0.16931,0.226 -0.25476,0.33844 -0.32491,0.42752 -0.71362,0.90888 -1.02448,1.27264 -0.27283,0.31936 -0.49498,0.58193 -0.48767,0.58855 0.0152,0.0137 -0.59647,0.62993 -0.70813,0.71088 -0.0415,0.0301 0.0697,-0.0904 0.24148,-0.26619 0.19515,-0.19972 0.40805,-0.45211 0.56305,-0.66687 0.12269,-0.17001 0.48668,-0.62521 0.73843,-0.92916 0.26742,-0.32294 0.47386,-0.59687 0.46479,-0.6042 -0.0264,-0.0213 0.181,-0.2642 0.40843,-0.49036 0,0 0,0 0,0 0.0252,-0.025 0.0508,-0.0498 0.0763,-0.0741 0,0 0,1e-5 0,1e-5 z m 1.09458,-1.46818 c -0.0213,0.0445 -0.0937,0.14611 -0.16197,0.22657 -0.0777,0.0917 -0.0574,0.054 0.0389,-0.0803 0.0888,-0.12388 0.14456,-0.19118 0.12309,-0.1463 0,2e-5 -10e-6,3e-5 -10e-6,5e-5 z m 1.79208,-1.99159 c 0.0266,0.01 0.0213,0.0472 -0.0123,0.0834 -0.0337,0.0363 -0.0556,0.0283 -0.0487,-0.0175 0.008,-0.0507 0.0314,-0.0765 0.0611,-0.066 -2e-5,3e-5 -4e-5,5e-5 -6e-5,8e-5 z m -2.11846,3.40967 c -0.0155,0.0396 0.0706,-0.0221 0.1912,-0.13909 0.19256,-0.18671 0.23516,-0.22238 -0.27475,0.559 -0.0466,0.0715 -0.0904,0.13803 -0.13101,0.19938 -0.47376,0.72072 -0.53676,0.78054 -0.58591,0.74033 -0.0251,-0.0206 0.0219,-0.11009 0.12151,-0.23394 0.13422,-0.16696 0.12954,-0.16954 0.0124,-0.0536 -0.0805,0.0797 -0.224,0.24595 -0.31323,0.36244 -0.0905,0.11814 -0.17442,0.20658 -0.18574,0.19715 -0.0113,-0.009 0.1189,-0.18122 0.28703,-0.38353 0.18047,-0.21715 0.37375,-0.45863 0.48432,-0.60206 0.0342,-0.0443 0.0608,-0.0795 0.0798,-0.1053 0,0 0,0 0,0 0.0548,-0.0742 0.0477,-0.0734 -0.0151,-0.0119 0,0 0,0 0,0 0,0 0,0 0,0 -0.0119,0.0117 -0.0257,0.0256 -0.0417,0.0417 -0.13759,0.13891 -0.12944,0.12374 0.002,-0.0449 0.005,-0.006 0.009,-0.0115 0.0133,-0.0172 0,0 0,0 0,0 0.0804,-0.10417 0.13525,-0.19346 0.12444,-0.20188 -0.0114,-0.009 0.0427,-0.0975 0.11969,-0.19722 0.0768,-0.0996 0.12703,-0.14948 0.11138,-0.10938 0,-1e-5 0,-2e-5 0,-2e-5 z m -1.00658,1.60598 c 0.10603,-0.10277 0.11293,-0.0939 0.0228,0.0549 -0.12707,0.20963 -0.27055,0.32971 -0.20255,0.17605 0.0246,-0.0556 0.10423,-0.15767 0.17978,-0.23092 0,0 1e-5,0 1e-5,-1e-5 z m 3.97806,-3.49854 c 0.0402,-0.0346 0.0177,0.0212 -0.052,0.12572 -0.0695,0.10422 -0.15951,0.21667 -0.20062,0.2514 -0.0411,0.0348 -0.0168,-0.0218 0.0528,-0.12529 0.0694,-0.10318 0.15963,-0.21721 0.19984,-0.25183 z m -1.70014,2.59616 c -0.0957,0.20134 -0.14603,0.27372 -0.17285,0.25312 -0.0102,-0.008 0.0438,-0.10752 0.11948,-0.22179 0.11285,-0.17048 0.12529,-0.18259 0.0533,-0.0313 10e-6,-1e-5 2e-5,-3e-5 3e-5,-4e-5 z m -16.56846,-71.52091 c 0.20078,0.0615 1.04114,0.47462 1.2292,0.60441 0.0964,0.0665 0.11003,0.087 0.0358,0.0485 -0.7386,-0.3833 -1.33312,-0.67373 -1.26495,-0.65286 -1e-5,-1e-5 -2e-5,-2e-5 -4e-5,-2e-5 z m -0.82692,-0.44099 c -0.10342,-0.0637 -0.0264,-0.0376 0.25253,0.0975 0.23226,0.11244 0.41691,0.21552 0.41162,0.22634 -0.0123,0.0251 -0.44134,-0.1865 -0.66417,-0.32378 z m -3.631249,-1.57466 c -0.421373,-0.17574 -2.28622,-0.91782 -4.984776,-1.6042 -0.98989,-0.25179 -1.949972,-0.46547 -2.123923,-0.51715 -0.193227,-0.0574 -0.859057,-0.19866 -1.682833,-0.32832 -0.753045,-0.11852 -1.371469,-0.19825 -1.371041,-0.20157 0.0012,-0.009 0.897412,0.0407 1.002489,0.0569 0.05107,0.008 0.04835,0.0195 -0.0049,0.0259 -0.05822,0.007 0.09705,0.041 0.366742,0.0848 0.255236,0.0415 0.4658,0.066 0.468194,0.0517 0.0024,-0.0143 0.07661,-0.0135 0.164936,0.002 0.08865,0.0156 0.106414,0.034 0.04111,0.0407 -0.08985,0.009 -0.05955,0.0154 0.103552,0.0248 0.124966,0.007 0.356555,0.0393 0.524897,0.0732 0.230388,0.0463 0.597971,0.11988 1.101045,0.2309 0.438908,0.0969 0.763235,0.18432 0.722555,0.18603 -0.04067,0.002 0.341817,0.0963 0.847476,0.22147 0.516134,0.12777 1.02131,0.27573 1.170421,0.33243 0.168784,0.0642 0.255133,0.0877 0.260288,0.0692 0.0042,-0.0152 0.08593,0.004 0.181266,0.0427 0.09534,0.0389 0.740342,0.23962 1.426897,0.4674 0.686575,0.22778 1.242142,0.43336 1.241578,0.43497 -5.94e-4,0.002 0.324311,0.12267 0.719271,0.2765 0.394945,0.1538 0.731006,0.29459 0.74953,0.30539 0.03332,0.0194 0.174743,0.0833 0.420373,0.19444 0.111845,0.0506 -0.586416,-0.14854 -0.707162,-0.19949 -0.07375,-0.0314 -0.290118,-0.1258 -0.637574,-0.27071 -1.23e-4,-4e-5 -2.46e-4,-9e-5 -3.7e-4,-1.3e-4 z m -5.926779,-1.90223 c 0.0027,-0.0124 -0.126044,-0.0523 -0.286474,-0.0875 -0.160854,-0.0354 -0.330082,-0.0609 -0.377827,-0.0579 -0.04789,0.003 0.08256,0.0406 0.286986,0.0852 0.204938,0.0447 0.374589,0.0727 0.377315,0.0603 z m 7.863487,2.45035 c -0.04377,-0.0346 -0.141494,-0.0814 -0.217937,-0.10428 -0.07625,-0.0229 -0.134237,-0.0523 -0.12881,-0.0656 0.01923,-0.0474 0.250329,0.048 0.401398,0.16688 0.0841,0.0662 0.12335,0.10796 0.0884,0.093 -0.035,-0.015 -0.0996,-0.0556 -0.14307,-0.09 z m -3.057292,-1.27697 c -0.145863,-0.0791 -0.297326,-0.14767 -0.337166,-0.15379 -0.03948,-0.006 -0.3949,-0.11419 -0.79164,-0.23313 -0.700281,-0.20993 -1.514569,-0.49605 -1.30178,-0.47363 0.208701,0.022 1.182169,0.31904 1.419314,0.43281 0.2139,0.10261 0.636278,0.2415 0.827193,0.27144 0.175317,0.0275 0.900577,0.28624 1.002582,0.35815 0.127179,0.0897 -0.112618,0.0981 -0.345448,0.0158 -0.112792,-0.0399 -0.329326,-0.13971 -0.473051,-0.21762 z m 1.495726,0.56051 c -0.05473,-0.04 -0.03243,-0.0374 0.05822,0.009 0.08276,0.0419 0.195987,0.0813 0.250864,0.0869 0.148751,0.0153 0.325694,0.0929 0.309316,0.1351 -0.01676,0.0431 -0.48378,-0.1322 -0.618422,-0.23054 7e-6,0 1.3e-5,1e-5 2e-5,1e-5 z m -5.760144,92.15394 c -0.04878,0.0215 -0.178872,0.0554 -0.290804,0.0753 -0.128306,0.0228 -0.08346,0.006 0.08826,-0.0384 0.159081,-0.0409 0.251835,-0.0587 0.202596,-0.037 -1.6e-5,1e-5 -3.3e-5,2e-5 -4.9e-5,3e-5 z m -30.872483,-1.99088 c -0.0058,0.0133 -0.03895,0.0117 -0.07371,-0.004 -0.03487,-0.0153 -0.09827,-0.0562 -0.141207,-0.0911 -0.04301,-0.035 -0.0095,-0.0329 0.07367,0.004 0.0834,0.0369 0.146994,0.0776 0.141236,0.0909 6e-6,0 1.3e-5,1e-5 1.9e-5,1e-5 z m -3.297751,-1.56746 c 0.19869,0.13651 0.147459,0.16355 -0.106016,0.0169 -0.154012,-0.0891 -0.259742,-0.13312 -0.286552,-0.11778 -0.02377,0.0136 -0.06096,0.0344 -0.08428,0.047 -0.02299,0.0124 -0.156974,-0.0369 -0.297555,-0.11059 -0.135114,-0.0708 -0.308301,-0.16065 -0.361172,-0.1866 -0.07674,-0.0377 -0.278411,-0.13711 -0.528592,-0.26398 -0.511947,-0.25963 -0.808222,-0.39258 -0.721328,-0.30418 0.03418,0.0348 -0.05795,-0.007 -0.205979,-0.0941 -0.147862,-0.0875 -0.290932,-0.19066 -0.319454,-0.22917 -0.03585,-0.0484 -0.08992,-0.0827 -0.177483,-0.11291 -0.227925,-0.0787 -0.639967,-0.31651 -0.839967,-0.48512 -0.155585,-0.13116 -0.176282,-0.14538 -0.09658,-0.0567 0.06997,0.0778 0.04156,0.0666 -0.128948,-0.0591 -0.118241,-0.0871 -0.306686,-0.21958 -0.400475,-0.28114 -0.09825,-0.0645 -0.201227,-0.15967 -0.22963,-0.21175 -0.03304,-0.0606 -0.138067,-0.14672 -0.293488,-0.24221 -0.169548,-0.10417 -0.517944,-0.24208 -0.002,0.0836 0.245451,0.15491 0.298415,0.18693 0.0026,0.0198 -0.159099,-0.0899 -0.467482,-0.2867 -0.71609,-0.45939 -0.520596,-0.36148 -0.520703,-0.35456 -1.233165,-0.85685 -1.12686,-0.79447 -3.821287,-2.98857 -4.970469,-4.0811 -0.624008,-0.59323 -1.111226,-1.08607 -1.468316,-1.45344 -0.56045,-0.57658 -1.722835,-1.80332 -3.047994,-3.47301 -0.614877,-0.77473 -1.116799,-1.45345 -1.53967,-2.04579 -0.920665,-1.28963 -1.8373,-2.79781 -2.067081,-3.25677 -0.05971,-0.11925 -0.253392,-0.48939 -0.425726,-0.82533 -0.172339,-0.33594 -0.301276,-0.61754 -0.291938,-0.62264 0.0093,-0.005 0.126816,0.13545 0.262433,0.31049 0.213057,0.27499 0.306441,0.43358 0.643186,1.0216 0.238566,0.41675 0.405055,0.67233 0.402016,0.63647 -0.0028,-0.0332 -0.290121,-0.53616 -0.621699,-1.12915 -0.230165,-0.41161 -0.413064,-0.76681 -0.535486,-1.02168 -0.163846,-0.322 -0.218031,-0.46644 -0.137219,-0.36113 0.01666,0.0217 0.09077,0.14894 0.195698,0.32935 0.309453,0.56143 0.912637,1.60831 0.902141,1.61423 -0.0068,0.004 0.234193,0.42604 0.548077,0.92911 0.31389,0.50308 0.794436,1.25926 1.064607,1.6835 0.270171,0.42423 0.522702,0.79077 0.552197,0.82067 0.0281,0.0285 0.233909,0.30539 0.45624,0.60481 0.237864,0.32031 0.520618,0.67819 0.691627,0.88091 0.167329,0.19836 0.326457,0.40639 0.387157,0.50964 0.06163,0.10483 0.523496,0.71166 1.073231,1.36357 0.672777,0.79782 0.977807,1.13731 0.91707,1.09885 -0.04819,-0.0305 0.003,0.0218 0.117913,0.11834 0.145137,0.12193 0.336792,0.32403 0.634565,0.65655 0.284991,0.31824 0.413731,0.44245 0.382624,0.38628 -0.05635,-0.10175 -0.05588,-0.0717 0.971639,0.92537 0.420771,0.40833 0.85068,0.7963 1.01824,0.93406 0.151038,0.12416 0.268934,0.23196 0.26097,0.24085 -0.0079,0.009 0.116753,0.13579 0.278384,0.28075 0.161629,0.14495 0.300695,0.25558 0.307833,0.24737 0.0071,-0.008 0.09592,0.0583 0.197754,0.14729 0.101574,0.0887 0.151369,0.14483 0.108863,0.1243 -0.101953,-0.0492 1.165026,0.96176 1.274929,1.01248 0.201203,0.0928 2.581943,1.82213 2.552805,1.86351 -0.0089,0.0126 0.04493,0.0664 0.119874,0.1192 0.07515,0.053 0.109124,0.0632 0.07633,0.0237 -0.09253,-0.11131 0.213202,0.0732 0.389193,0.23447 0.116758,0.10697 0.178929,0.14749 0.241851,0.15924 0.05548,0.0104 0.27272,0.1473 0.618421,0.37986 0.294929,0.19842 0.544405,0.34782 0.551699,0.33638 0.02346,-0.0368 0.690148,0.41686 0.798076,0.54078 0.05755,0.0661 0.166371,0.14909 0.242539,0.18503 0.07605,0.0359 0.112115,0.0378 0.08068,0.005 -0.03173,-0.0332 0.03462,-0.0122 0.146856,0.0456 0.112141,0.0577 0.235457,0.13652 0.272729,0.17481 0.04156,0.0427 0.217554,0.14032 0.451798,0.24761 0.353558,0.16193 1.86094,0.92867 1.939531,0.98267 0,0 -3.8e-5,-9e-5 -3.8e-5,-9e-5 z m 1.962343,1.09645 c -0.01953,0.0418 -0.108004,0.009 -0.214431,-0.0816 -0.03935,-0.0334 -0.0029,-0.0366 0.08018,-0.008 0.08327,0.0288 0.143783,0.069 0.13423,0.0894 8e-6,0 1.5e-5,0 2.3e-5,0 z m -0.555027,-0.21077 c -0.08971,-0.0258 -0.24256,-0.0913 -0.342351,-0.14696 -0.106232,-0.0593 -0.03035,-0.0351 0.161586,0.0474 0.236238,0.10153 0.298679,0.13341 0.18076,0.0995 z M 31.931879,206.87944 c -0.0037,0.19487 -0.01451,0.35462 -0.02558,0.35481 -0.03228,5.8e-4 -0.02407,-0.6847 0.0096,-0.75252 0.01683,-0.034 0.02908,-0.0379 0.02726,-0.009 -0.002,0.0309 -0.0075,0.20985 -0.01127,0.40679 -1e-6,-1.3e-4 -2e-6,-2.5e-4 -3e-6,-3.7e-4 z m 0.091,3.26866 c -0.07376,-0.48435 -0.07162,-0.6248 -0.02971,-0.39323 0.02287,0.12636 0.05055,0.34284 0.06009,0.47002 0.01122,0.14888 0.002,0.13601 -0.03037,-0.0767 -10e-7,-1e-5 -2e-6,-3e-5 -3e-6,-4e-5 z m -0.06412,-0.95326 c -0.01011,0.0487 -0.02117,-0.052 -0.02322,-0.22633 -0.0048,-0.41177 0.01399,-0.37253 0.02917,-0.09 0.0067,0.12434 0.0042,0.2674 -0.006,0.3163 0,1e-5 1e-6,2e-5 2e-6,3e-5 z m 5.364814,19.53881 c 0.0039,0.0117 0.09131,0.37754 -0.871401,-1.62384 -0.575907,-1.19697 -0.867335,-1.90979 -1.017769,-2.2411 -0.08114,-0.1787 -0.150699,-0.36219 -0.156506,-0.40923 -0.0057,-0.0458 -0.09537,-0.28789 -0.195573,-0.53565 -0.271755,-0.67193 -0.236929,-0.68806 0.03754,-0.0176 0.129372,0.31598 0.218926,0.54703 0.192447,0.51181 -0.08069,-0.10733 0.02127,0.11322 0.155752,0.32988 0.140371,0.22614 0.419455,0.85695 0.441675,0.99982 0.01036,0.0666 0.06673,0.19345 0.168965,0.37506 0.173239,0.30793 0.29685,0.6199 0.187979,0.48939 -0.04643,-0.0557 -0.03316,-0.0212 0.04475,0.10838 0.05576,0.0928 0.298711,0.56237 0.514057,0.97779 0.32662,0.63006 0.424682,0.81622 0.498335,1.03572 -8.3e-5,-1.3e-4 -1.66e-4,-2.6e-4 -2.5e-4,-3.9e-4 z m -4.339168,-11.94792 c -0.01417,0.003 -0.03254,-0.0253 -0.04073,-0.0627 -0.0082,-0.0376 -0.0126,-0.11348 -0.0097,-0.16907 0.0029,-0.0557 0.02109,-0.0269 0.04051,0.0628 0.01948,0.09 0.0241,0.16599 0.0099,0.16897 z m 1.717538,6.10048 c 0.03405,0.13744 0.03259,0.1639 -0.0076,0.0547 -0.03609,-0.0982 -0.06892,-0.22317 -0.07352,-0.27909 -0.01075,-0.13054 0.0085,-0.0685 0.08109,0.22432 6e-6,1e-5 1.3e-5,3e-5 1.9e-5,5e-5 z m 15.8491,-55.78065 c 0.06851,-0.0923 -0.457468,0.31316 -0.521341,0.38577 -0.115103,0.13086 -0.655125,0.59113 -0.67236,0.57039 -0.01066,-0.0128 -0.362364,0.27563 -0.939969,0.808 -0.782057,0.72081 -0.923709,0.86765 -1.336568,1.21202 -0.222852,0.18588 -0.355491,0.29494 -0.229868,0.18177 0.110731,-0.0998 0.21133,-0.20437 0.222574,-0.23273 0.0114,-0.0287 0.09581,-0.13009 0.188516,-0.2255 0.09199,-0.0947 0.199755,-0.21874 0.236766,-0.2733 0.03748,-0.0553 0.08662,-0.082 0.108995,-0.0596 0.03839,0.0386 0.05549,0.0214 0.338613,-0.28786 0.265923,-0.29051 0.324689,-0.34014 0.496563,-0.43987 0.184312,-0.10695 0.192613,-0.11218 0.09347,-0.0834 -0.07754,0.0224 -0.03763,-0.0294 0.188073,-0.22773 0.16121,-0.14168 0.36041,-0.28671 0.445778,-0.32624 0.08508,-0.0394 0.145733,-0.0833 0.136144,-0.0991 -0.01782,-0.03 0.340787,-0.34926 0.362422,-0.32268 0.0068,0.008 0.428936,-0.335 0.949116,-0.74762 0.520166,-0.41269 0.98899,-0.75132 1.030922,-0.76807 0.04142,-0.0166 0.199741,-0.12256 0.350466,-0.23317 0.223784,-0.16421 0.243523,-0.16874 0.133554,-0.057 -0.141842,0.14415 -1.656601,1.32692 -1.581803,1.22608 z m 2.087765,-1.57105 c -0.0069,-0.01 0.03084,-0.0497 0.0839,-0.0884 0.05313,-0.0386 0.280996,-0.20598 0.508343,-0.3693 0.511181,-0.3672 0.722306,-0.45273 0.232317,-0.098 -0.484429,0.35066 -0.809591,0.57737 -0.824566,0.55573 z m -8.597112,7.63638 c -0.0109,-0.01 -0.199861,0.18423 -0.41633,0.43357 -0.217454,0.25047 -0.414739,0.50208 -0.445852,0.56202 -0.03688,0.071 -0.06248,0.10171 -0.07728,0.0921 -0.02877,-0.0191 -0.644834,0.71414 -0.614896,0.73759 0.01041,0.008 -0.02714,0.0616 -0.0833,0.11894 -0.131958,0.13478 -0.98006,1.16433 -1.863745,2.40638 -0.27935,0.39262 -0.50343,0.71683 -0.506143,0.71505 -0.01475,-0.01 -1.143542,1.75392 -1.197767,1.87732 -0.09669,0.22036 -0.870111,1.60597 -0.894884,1.59251 -0.01178,-0.006 -0.07348,0.082 -0.136541,0.1969 -0.06306,0.11486 -0.104017,0.21443 -0.09166,0.22099 0.01402,0.007 -0.534906,0.98264 -1.326291,2.66069 -0.729334,1.54648 -1.22188,2.81359 -1.324315,3.07929 -0.06354,0.16492 -0.243434,0.60635 -0.342937,0.84419 -0.122893,0.29371 -0.192708,0.49271 -0.178982,0.49751 0.02264,0.008 -0.162825,0.52962 -0.234612,0.66405 -0.02072,0.0388 -0.254065,0.72119 -0.491344,1.52435 -0.292922,0.99146 -0.429342,1.51357 -0.496566,1.67457 -0.06784,0.16239 -0.07904,0.21128 -0.05223,0.2202 0.0216,0.008 0.01382,0.0503 -0.02133,0.11715 -0.03339,0.0635 -0.276624,0.93219 -0.541659,2.18827 -0.121771,0.57711 -0.345026,1.6775 -0.550391,3.07305 0,0 0,0 0,0 -0.232682,1.49614 -0.410697,3.08911 -0.508917,4.76946 -0.214367,3.66757 0.01302,6.78182 0.301288,9.06415 0.227147,1.7983 0.51524,3.25689 0.506366,3.25875 -0.0089,0.002 0.05894,0.3899 0.160132,0.86055 0.101197,0.47067 0.200391,0.85228 0.210991,0.8499 0.0106,-0.002 0.03653,0.0695 0.05795,0.15971 0.02136,0.0899 0.01745,0.12382 -0.0094,0.0741 -0.0265,-0.0491 -0.02287,0.0184 0.0094,0.15166 0.03219,0.13275 0.04761,0.24404 0.03353,0.24738 -0.01409,0.003 -0.0074,0.0798 0.0153,0.17 0.02275,0.0905 0.04203,0.1177 0.0428,0.062 8.65e-4,-0.0615 0.05376,0.10926 0.13228,0.40931 0.09794,0.37449 0.11913,0.46681 0.04897,0.28525 -0.06273,-0.16231 -0.0736,-0.17546 -0.0325,-0.0211 0.04101,0.15422 0.03233,0.15569 -0.04603,-0.0177 -0.05602,-0.12393 -0.137061,-0.36398 -0.182614,-0.54257 -0.045,-0.17641 -0.09304,-0.31814 -0.108078,-0.31458 -0.01623,0.004 -0.0538,-0.12937 -0.09066,-0.32774 -0.04149,-0.22332 -0.06213,-0.2993 -0.06445,-0.22163 -0.0019,0.0619 -0.01305,0.0717 -0.02504,0.0209 -0.01197,-0.0508 -0.01033,-0.15062 0.0037,-0.22233 0.0085,-0.0434 0.01708,-0.0867 0.02571,-0.13003 -0.04904,-0.13291 -0.09753,-0.26608 -0.145456,-0.39952 -0.09839,-0.27395 -0.140163,-0.43775 -0.135779,-0.51563 0.0046,-0.0813 -0.01152,-0.1505 -0.0553,-0.23884 -0.05016,-0.10116 -0.475958,-1.15666 -0.85483,-5.78189 -0.291837,-3.56272 -0.140453,-6.56797 0.04994,-8.56359 0.08573,-0.89863 0.210325,-1.95152 0.396924,-3.12535 0.147832,-0.98378 0.309876,-1.86298 0.464782,-2.6195 1.173201,-5.72963 2.000585,-7.07142 2.057688,-7.19018 0.0962,-0.20009 0.630341,-1.52316 0.664055,-1.64065 0.03323,-0.11582 0.08962,-0.24297 0.133743,-0.30246 0.05683,-0.0766 0.08185,-0.1428 0.09943,-0.26208 0.01293,-0.0879 0.03523,-0.15629 0.04921,-0.15209 0.01624,0.004 0.387426,-0.90746 1.119387,-2.42342 1.156776,-2.39579 3.646455,-6.21997 3.669971,-6.2047 0.0068,0.004 0.323913,-0.45328 0.721188,-1.00652 0.680818,-0.94812 2.409833,-3.018 2.743138,-3.36261 0.124275,-0.12849 0.131621,-0.12147 0.05033,0.0199 -0.08458,0.14707 -0.07408,0.14163 0.03593,0.002 0.08603,-0.10947 0.25497,-0.31802 0.42357,-0.5197 0.176277,-0.21088 0.256593,-0.32474 0.202362,-0.29513 -0.04693,0.0256 -0.0168,-0.002 0.07043,-0.0636 0.139054,-0.0979 0.256497,-0.2309 0.754494,-0.77303 0.348537,-0.37942 0.698972,-0.7266 0.828818,-0.83445 0.09888,-0.0821 0.304843,-0.26778 0.469314,-0.42063 0.02638,-0.0256 0.05211,-0.0508 0.07656,-0.0749 0.344846,-0.34017 0.256924,-0.24753 0.05688,-0.0349 -0.04962,0.0527 -0.08863,0.095 -0.116911,0.12666 0,0 0,1e-5 0,1e-5 -0.09,0.0963 -0.07712,0.0947 0.01941,0.0197 0,0 0,0 0,0 0.0028,-0.002 0.0056,-0.005 0.0086,-0.007 0.07643,-0.0625 0.09806,-0.0751 0.0071,0.0229 -0.148271,0.15292 -0.601078,0.57411 -1.546358,1.58077 -0.539106,0.57412 -0.898445,0.9688 -0.910216,0.95847 -4.1e-5,3e-5 -8.3e-5,7e-5 -1.25e-4,1e-4 z m -11.575577,43.01314 c -0.01117,0.0535 -7.67e-4,0.15861 0.02329,0.23398 0.07141,0.22376 0.095,0.14187 0.0442,-0.10202 -0.02889,-0.1387 -0.05512,-0.19131 -0.0675,-0.13202 4e-6,2e-5 8e-6,4e-5 1.1e-5,6e-5 z m 2.82481,8.86117 c -0.108806,-0.13101 -0.113663,-0.12446 -0.01114,0.082 0.09979,0.20093 0.101722,0.21703 -0.0098,0.0834 -0.0425,-0.0509 -0.08492,-0.10196 -0.127237,-0.1531 -0.0024,-0.0565 -0.0048,-0.11293 -0.007,-0.16935 -0.0076,-0.19314 -0.123208,-0.50471 -0.226459,-0.60898 -0.03888,-0.0392 -0.04965,-0.018 -0.02336,0.0479 0.0262,0.0657 0.03114,0.12592 0.01076,0.13382 -0.03013,0.0117 -0.09212,-0.12043 -0.304869,-0.71428 -0.17876,-0.49898 -0.264399,-0.72893 -0.283524,-0.72222 -0.01554,0.005 -0.115302,-0.22866 -0.220333,-0.52802 -0.124933,-0.35607 -0.162635,-0.50471 -0.123312,-0.44554 0.04581,0.069 0.02165,0.003 -0.07318,-0.21522 -0.112833,-0.25923 -0.121112,-0.29572 -0.06637,-0.23337 0.03701,0.0422 0.0878,0.138 0.112684,0.21237 0.02494,0.0745 0.05682,0.13185 0.07058,0.12738 0.05214,-0.0169 -0.06996,-0.28082 -0.201551,-0.43967 -0.151451,-0.18283 -0.157668,-0.19385 -0.242963,-0.58446 -0.0434,-0.19881 -0.03429,-0.26593 0.02726,-0.22678 0.04858,0.0309 0.06628,-0.003 0.03978,-0.0753 -0.02656,-0.0723 -0.04737,-0.16889 -0.04643,-0.215 9.97e-4,-0.0494 0.119701,0.31092 0.305262,0.87785 0.292283,0.89303 0.323642,0.95282 0.321557,1.14035 -0.002,0.18233 0.173817,0.74841 0.224875,0.73031 0.01444,-0.005 -0.0052,-0.0737 -0.04335,-0.1526 -0.03927,-0.0812 -0.03923,-0.11147 -0.001,-0.0703 0.03973,0.0426 0.09792,0.17408 0.140531,0.31569 0.04781,0.15886 0.06945,0.20078 0.06219,0.12664 -0.013,-0.13271 0.195212,0.35838 0.413498,0.93472 0.07976,0.2106 0.20046,0.48692 0.276547,0.63514 0.118426,0.2307 0.123567,0.24778 0.0065,0.10684 -3.8e-5,-2e-5 -7.7e-5,-4e-5 -1.16e-4,-6e-5 z m -1.595625,-4.07729 c -0.02493,-0.0394 -0.01547,0.0244 0.02223,0.14314 0.03771,0.11873 0.06688,0.17656 0.06458,0.13024 -0.0023,-0.0466 -0.01251,-0.11112 -0.02265,-0.14302 -0.01014,-0.0319 -0.03912,-0.0908 -0.06417,-0.13036 z m 2.481107,6.0488 c 0.009,0.0486 -0.05087,-0.0379 -0.132671,-0.19474 -0.09848,-0.18886 -0.146487,-0.25021 -0.144406,-0.17867 0.0017,0.0583 -0.02549,0.0447 -0.06043,-0.031 -0.09463,-0.20521 0.0037,-0.19834 0.135349,-0.004 0.136859,0.20219 0.17963,0.28694 0.20216,0.40827 z m -0.479638,-0.86491 c -0.03623,-0.0336 -0.07417,-0.08 -0.0845,-0.10316 -0.01033,-0.0232 -0.01926,-0.082 -0.01982,-0.131 -5.66e-4,-0.0491 0.0372,-0.002 0.08417,0.10328 0.04696,0.10541 0.05651,0.16461 0.02015,0.13088 z m -0.317836,-0.53846 c -0.08986,-0.15289 -0.219729,-0.41425 -0.296217,-0.59674 -0.152969,-0.36499 -0.196065,-0.58434 -0.08868,-0.38155 0.03867,0.073 0.06854,0.16344 0.06591,0.20084 -0.0034,0.0506 0.03465,0.14495 0.155642,0.37371 0.208598,0.39434 0.377678,0.76843 0.163334,0.40374 z m 0.89176,1.94556 c -0.03166,-0.0448 -0.09296,-0.16882 -0.136641,-0.27738 -0.0501,-0.12449 -0.02378,-0.0827 0.05667,0.0811 0.07447,0.15178 0.111931,0.24148 0.07999,0.1963 -6e-6,-1e-5 -1.3e-5,-2e-5 -1.9e-5,-4e-5 z m -3.023727,-7.89306 c 0.03357,0.19578 0.03141,0.20545 -0.03589,-0.0317 -0.04201,-0.14816 -0.06419,-0.27252 -0.05019,-0.27622 0.03104,-0.008 0.03487,0.009 0.08608,0.30791 -1e-6,0 -2e-6,-1e-5 -3e-6,-1e-5 z m 0.202851,0.83544 c -0.0091,0.0804 -0.02369,0.0453 -0.07584,-0.21026 -0.07866,-0.38545 -0.05872,-0.38316 0.02373,-0.10401 0.03463,0.11727 0.05834,0.25911 0.05211,0.31426 1e-6,0 2e-6,0 3e-6,1e-5 z"
       transform="translate(194.35803,-1.0805653)" /></g></svg>
