<?xml version="1.0" encoding="UTF-8" standalone="no"?>
<!-- Created with Inkscape (http://www.inkscape.org/) -->

<svg
   width="105.35313mm"
   height="115.80489mm"
   viewBox="0 0 105.35313 115.80489"
   version="1.1"
   id="svg1"
   xml:space="preserve"
   xmlns="http://www.w3.org/2000/svg"
   xmlns:svg="http://www.w3.org/2000/svg"><defs
     id="defs1" /><g
     id="layer1"
     transform="translate(-219.40725,-150.0812)"><path
       id="path1-2-6"
       style="fill:none;stroke:#000000;stroke-width:12.5;stroke-linecap:round;stroke-dashoffset:8.50394;paint-order:stroke markers fill"
       d="m 83.48888,243.26771 c 0.0021,0.0369 0.05528,0.0571 0.118303,0.0446 0.0627,-0.0124 0.196297,0.014 0.296481,0.0583 0.106226,0.047 0.266383,0.0742 0.382607,0.0649 0.156236,-0.0124 0.172622,-0.007 0.06369,0.0319 -0.103751,0.0366 -0.10107,0.0478 0.01907,0.0469 0.121021,-9.4e-4 0.119142,0.0118 -0.02016,0.0612 -0.133033,0.0472 -0.141271,0.062 -0.02528,0.0613 0.08292,-5.3e-4 0.151768,0.0102 0.152934,0.0243 0.0012,0.0141 -0.0519,0.0229 -0.117897,0.0194 -0.06862,-0.004 -0.0883,0.008 -0.04526,0.0284 0.04097,0.0192 0.01315,0.04 -0.06255,0.0458 -0.09962,0.008 -0.102056,0.022 -0.0046,0.0531 0.105945,0.0338 0.09676,0.0455 -0.0569,0.0571 -0.151854,0.0115 -0.162448,0.0185 -0.03634,0.0381 0.158848,0.0246 0.461018,-0.0326 0.416548,-0.0788 -0.01133,-0.0117 0.0426,-0.0318 0.119534,-0.045 0.09187,-0.0157 0.11809,-0.002 0.07549,0.0402 -0.0354,0.0353 -0.016,0.0536 0.04363,0.0404 0.05864,-0.0131 0.218326,-0.0259 0.351044,-0.0289 0.174106,-0.004 0.156065,0.009 -0.267644,0.0651 -0.318871,0.0423 -0.510963,0.0781 -0.509124,0.1012 0.0016,0.0204 -0.103027,0.0456 -0.232771,0.0553 -0.128755,0.01 -0.309888,0.0452 -0.398822,0.0788 -0.170786,0.0646 -0.768504,0.16134 -0.981798,0.15858 -0.05138,-6.7e-4 -0.419915,0.0268 -0.794836,0.0527 -0.42848,0.0296 -0.990014,0.0493 -1.460864,0.0494 -0.422626,1.4e-4 -0.800043,0.002 -0.838321,0.0131 -0.03863,0.0114 -0.19058,0.0151 -0.339204,0.007 -0.132108,-0.007 -0.619669,4.9e-4 -1.01337,0.01 -0.417224,0.01 -0.832274,0.002 -0.954355,-0.0102 -0.114256,-0.0117 -0.244106,-0.0139 -0.287285,-0.004 -0.04333,0.01 -0.01673,0.0246 0.06001,0.0332 0.130147,0.0145 0.137465,0.13322 -0.07636,0.11229 -0.06808,-0.007 -0.369362,-0.0255 -0.669542,-0.0462 -0.307445,-0.0212 -0.673145,-0.0666 -0.844371,-0.1019 -0.157157,-0.0324 -0.482707,-0.0799 -0.692793,-0.10167 -0.248641,-0.0258 -0.673964,-0.0803 -1.084527,-0.14424 -1.040351,-0.16205 -1.595007,-0.26837 -1.600724,-0.24459 -0.003,0.0123 1.559942,0.39888 3.344741,0.66514 1.955889,0.29178 3.613707,0.37921 4.57687,0.3941 0.900335,0.0139 1.087779,0.007 1.496831,0.0423 0.244239,0.0212 0.46127,0.0366 0.499647,0.0382 0.03439,0.001 0.226897,0.0139 0.428112,0.0256 0.203643,0.0118 0.452034,0.009 0.562351,-0.005 0.901209,-0.11364 2.051484,-0.15576 2.952693,-0.26939 0,0 0,0 0,0 0.233696,-0.029 0.472793,-0.0609 0.717207,-0.096 1.978813,-0.28362 3.600101,-0.70309 3.970282,-0.81497 0.478966,-0.14477 1.003666,-0.29117 1.966279,-0.61064 0.796527,-0.26436 1.494401,-0.53849 1.62727,-0.60374 0.111635,-0.0548 0.482275,-0.19764 0.79046,-0.30856 0.316247,-0.11383 0.596031,-0.23136 0.626191,-0.25734 0.02954,-0.0255 0.104916,-0.0598 0.167108,-0.0762 0.06233,-0.0164 0.108499,-0.0416 0.102671,-0.0558 -0.0058,-0.0142 0.02923,-0.0396 0.07785,-0.0566 0.196062,-0.0687 1.158127,-0.54117 1.149543,-0.56016 -0.01057,-0.0234 0.823773,-0.45805 1.146813,-0.60642 0.119985,-0.0551 0.298316,-0.16738 0.400628,-0.25226 0.100205,-0.0831 0.269396,-0.19894 0.370838,-0.2537 0.149148,-0.0804 0.436157,-0.23365 0.838955,-0.46007 0.379368,-0.21322 0.810968,-0.47949 1.058108,-0.64742 0.22593,-0.15351 0.58519,-0.39672 0.79873,-0.54021 0.21397,-0.14378 0.35511,-0.25536 0.3177,-0.24625 -0.11824,0.0288 0.1434,-0.0821 1.85252,-1.37153 0.0909,-0.0686 0.15013,-0.12816 0.13231,-0.13203 -0.0178,-0.004 0.0528,-0.0781 0.15619,-0.16566 0.1072,-0.0907 0.28352,-0.25644 0.40707,-0.38328 0.19375,-0.19892 0.4795,-0.41895 1.25223,-1.08283 0.64889,-0.55749 1.01091,-0.89882 1.21334,-1.08019 0.11926,-0.10696 0.31763,-0.31401 0.45459,-0.47599 0.13802,-0.16324 0.27255,-0.30405 0.31248,-0.32384 0.004,-0.002 0.52258,-0.37333 0.33721,-0.2846 -0.0983,0.0471 -0.005,-0.0384 0.24661,-0.24003 0.26174,-0.20956 0.84549,-0.80624 1.41661,-1.47592 0.61921,-0.72066 1.15414,-1.44784 1.22432,-1.62137 0.0392,-0.097 0.0298,-0.11701 -0.0243,-0.0579 -0.0468,0.0511 -0.0934,0.0862 -0.10346,0.0783 -0.01,-0.008 0.0344,-0.0702 0.0983,-0.13865 0.0641,-0.0686 0.12816,-0.16081 0.14312,-0.2052 0.0346,-0.10308 -0.39586,0.44436 -0.61948,0.78678 -0.10543,0.16144 -0.32491,0.45988 -0.52067,0.70303 -0.10433,0.12956 -0.20296,0.25045 -0.29835,0.3661 0,0 0,0 0,0 -0.0816,0.0997 -0.14577,0.17716 -0.18214,0.22117 -0.0745,0.0901 -0.1474,0.15309 -0.16141,0.14034 -0.018,-0.0164 -0.12366,0.0912 -0.36798,0.36195 -0.27912,0.30937 -0.30782,0.32665 -0.21935,0.2064 0.0707,-0.0961 0.10193,-0.16126 0.0707,-0.14511 -0.0531,0.0275 0.21565,-0.27613 0.73666,-0.89407 0.14303,-0.16828 0.30655,-0.36261 0.48502,-0.57922 0.47445,-0.57588 0.60536,-0.74803 0.68873,-0.80082 0.0683,-0.0433 0.0874,-0.0659 0.0696,-0.0817 -0.0363,-0.0321 0.41783,-0.59945 0.61579,-0.77702 0.0925,-0.083 0.15877,-0.15811 0.1478,-0.16627 -0.0121,-0.009 0.22284,-0.32434 0.58106,-0.81483 0.38778,-0.53099 0.75473,-1.0649 1.08725,-1.57506 0.22636,-0.34728 0.64304,-0.99019 0.71887,-1.10023 0.12845,-0.18638 0.2866,-0.44879 0.36448,-0.60295 0.0752,-0.14888 0.16361,-0.29669 0.19646,-0.32659 0.0367,-0.0333 0.0241,-0.005 -0.0349,0.0754 -0.059,0.0804 -0.0727,0.1092 -0.0339,0.0743 0.0735,-0.0661 0.37868,-0.56058 0.69752,-1.17594 0.18757,-0.36201 0.2321,-0.43421 0.2792,-0.42349 0.0506,0.0115 0.0267,0.094 -0.28967,0.7475 -0.20381,0.421 -0.41904,0.8296 -0.51387,0.99411 -0.0511,0.0887 -0.1026,0.17719 -0.15442,0.26545 0.0643,-0.0885 0.12816,-0.17726 0.19172,-0.26638 0.30721,-0.43068 0.63959,-0.97225 1.10478,-1.90347 0.25787,-0.51621 0.62249,-1.26649 0.8167,-1.66435 0.44667,-0.91506 1.58585,-4.26101 1.57783,-4.42348 -0.003,-0.0557 0.0213,-0.16225 0.0531,-0.23614 0.0824,-0.19126 0.63519,-2.39744 0.59273,-2.32759 -0.0397,0.0653 -0.003,0.0523 0.2664,-1.53712 0.14495,-0.85531 0.28523,-1.86702 0.37087,-3.29336 0.0481,-0.80059 0.0754,-1.19367 0.15139,-1.66113 0.0284,-0.17451 0.0426,-0.15349 0.0812,0.30511 0.0297,0.35299 0.0336,0.81483 -0.008,1.47162 -0.0741,1.18234 -0.18221,2.17685 -0.28254,3.00384 -0.0567,0.46773 -0.0629,0.56257 -0.0147,0.52117 0.0346,-0.0298 0.0661,-0.12259 0.0759,-0.22494 0.009,-0.0958 0.029,-0.17201 0.0449,-0.16928 0.0158,0.003 0.0122,0.10164 -0.009,0.2198 -0.0317,0.17938 -0.031,0.19273 0.02,0.0352 0.0363,-0.11209 0.0486,-0.1263 0.0317,-0.03 -0.0145,0.0825 -0.003,0.12121 0.0252,0.0858 0.0351,-0.0434 0.0407,0.0815 0.008,0.41894 -0.0155,0.16102 -0.0321,0.32206 -0.0497,0.4831 0.0869,-0.39907 0.16766,-0.79945 0.2421,-1.20092 0.13784,-0.74353 0.24104,-1.45981 0.29826,-1.95065 0.0477,-0.40911 0.0808,-0.74428 0.0826,-0.7441 0.002,1.8e-4 0.0192,0.11513 0.0377,0.25585 0.0185,0.14074 0.0247,0.25527 0.0151,0.25417 -0.01,-0.001 -0.0146,0.12634 -0.0121,0.28338 0.003,0.16905 -0.034,0.69174 -0.0967,1.21411 -0.0612,0.51026 -0.14506,1.15119 -0.17667,1.4252 -0.0332,0.28807 -0.0982,0.68646 -0.15374,0.94691 -0.20923,0.98064 -0.41735,2.14376 -0.35868,1.93866 0.0154,-0.0538 0.0687,-0.22853 0.10764,-0.35448 0.0467,-0.15117 0.0891,-0.29228 0.11856,-0.39184 0.0787,-0.26642 0.11377,-0.30403 0.0645,-0.0263 -0.0249,0.14061 -0.0568,0.42125 -0.069,0.60252 -0.0127,0.18877 -0.0568,0.45963 -0.0995,0.61325 -0.0417,0.14993 -0.0796,0.34274 -0.0828,0.42424 -0.004,0.11092 0.0345,0.0378 0.21172,-0.55509 0.14253,-0.4767 0.22869,-0.78702 0.31023,-1.07868 0.13537,-0.48411 0.53185,-2.44325 0.53843,-2.58135 0.009,-0.18629 0.21714,-1.63112 0.23905,-1.62819 0.0115,0.002 0.0242,0.0902 0.0275,0.19716 0.003,0.10694 0.0179,0.19634 0.0328,0.19847 0.0149,0.002 0.0249,-0.0348 0.0219,-0.082 -0.003,-0.047 0.0184,-0.16084 0.0468,-0.2522 0.0288,-0.0922 0.0405,-0.16812 0.0267,-0.16992 -0.0137,-0.002 -0.0137,-0.089 -5.8e-4,-0.19375 0.0346,-0.27601 0.0585,-0.24743 0.0407,0.2064 -0.0164,0.41745 0.003,0.47353 0.13965,-0.34524 0.10705,-0.643 0.17618,-0.87266 0.15942,-0.31645 -0.0238,0.79042 -0.2632,2.70293 -0.62997,4.34051 -0.14428,0.64416 -0.31,1.31922 -0.34904,1.50447 -0.0236,0.11228 -0.0478,0.22449 -0.0724,0.33663 0.0522,-0.1134 0.10386,-0.22713 0.15505,-0.34116 0.0856,-0.19059 0.1763,-0.43619 0.20663,-0.55603 0.0749,-0.29605 0.13702,-0.3833 0.15898,-0.20488 0.0263,0.21403 -0.14009,1.28859 -0.27492,1.75671 -0.0533,0.1849 -0.0748,0.29611 -0.0471,0.25569 0.0267,-0.039 0.0784,-0.17385 0.11494,-0.30137 0.0611,-0.21343 0.19011,-0.4342 0.22144,-0.3752 0.032,0.0603 0.48772,-1.97664 0.4762,-2.15754 -0.009,-0.13817 0.46552,-3.4466 0.52993,-3.76923 0.0204,-0.10241 0.0405,-0.20492 0.0601,-0.30754 -8e-4,0.10194 -0.002,0.20391 -0.004,0.30593 -0.003,0.1975 -0.088,1.22485 -0.26506,2.40782 -0.31585,2.11053 -0.42242,2.62659 -0.12701,1.25581 0.09,-0.41771 0.18231,-0.81058 0.22617,-0.92995 0.0514,-0.13983 0.12866,-0.45753 0.26085,-1.48167 0.23841,-1.84714 0.27616,-3.19051 0.27751,-3.35494 0.001,-0.17665 0.012,-0.22977 0.042,-0.19467 0.0434,0.0508 0.0741,0.46068 0.0607,1.10209 -0.006,0.30225 0.0483,0.46503 0.0924,-0.49 0.0175,-0.37875 0.03,-0.74957 0.0379,-1.14937 0.004,-0.19793 0.006,-0.39584 0.007,-0.59369 0.0255,0.16584 0.05,0.33204 0.0734,0.49859 0.0387,0.2748 0.0714,0.50093 0.0765,0.50125 0.005,3.1e-4 0.041,-0.36807 0.0694,-0.81948 0.0672,-1.06732 0.11598,-1.64064 0.20231,-1.6332 0.0455,0.004 0.1057,0.86739 0.0842,1.67101 -0.0148,0.55557 -0.0176,0.8579 -0.0528,1.67104 -0.0288,0.66393 -0.0907,1.41448 -0.16056,2.0021 -0.0609,0.51231 -0.16357,1.28996 -0.22464,1.72861 -0.37928,2.72425 -0.5964,3.32151 -0.61353,3.43995 -0.0101,0.07 0.0622,-0.12447 0.1587,-0.44618 0.0963,-0.32087 0.18493,-0.57779 0.20353,-0.57344 0.0431,0.0101 -0.17803,1.35958 -0.49204,2.56033 -0.15313,0.58556 -0.26292,1.01663 -0.27916,1.16715 -0.0149,0.13773 -0.12343,0.57214 -0.25986,1.00706 -0.25079,0.79953 -0.33486,1.13742 0.185,-0.0579 0.0955,-0.2196 0.17586,-0.37034 0.18069,-0.3326 0.0118,0.092 -0.14247,0.69768 -0.26263,1.0221 -0.0486,0.13115 -0.065,0.20764 -0.0348,0.16876 0.0299,-0.0386 0.21595,-0.50064 0.3998,-1.03152 0.27835,-0.80379 0.4518,-1.29627 0.32874,-0.78673 -0.0943,0.39034 0.49251,-1.52996 0.70729,-2.49723 0.26745,-1.20455 0.41375,-1.85773 0.4909,-1.84123 0.0356,0.008 0.017,0.36967 -0.12871,1.35831 -0.13422,0.9107 -0.20626,1.31378 -0.14962,1.17619 0.0764,-0.1855 0.0767,-0.0244 -0.14262,0.92409 -0.29627,1.28114 -0.52788,2.31756 -0.41128,2.21066 0.0787,-0.0721 -0.0213,0.44012 -0.795,2.43515 -0.38457,0.99165 -0.80485,1.97264 -0.8886,2.19722 -0.0895,0.23993 -0.27806,0.67431 -0.45123,1.03035 -0.45761,0.94085 -1.38343,2.7213 -1.51308,3.01033 -0.0651,0.1451 -0.2144,0.41631 -0.34236,0.61931 -0.11965,0.18995 -0.29601,0.48284 -0.36603,0.61004 -0.0966,0.17543 -0.0853,0.17551 0.17714,-0.2223 0.67998,-1.03053 0.9802,-1.53247 1.11488,-1.67155 0.0782,-0.0808 0.17171,-0.22446 0.26953,-0.41741 0.12108,-0.23887 0.14128,-0.27701 0.0498,-0.0623 -0.0553,0.12967 -0.15681,0.32452 -0.22974,0.4409 -0.0709,0.11308 -0.16712,0.28869 -0.20987,0.38345 -0.0472,0.10457 -0.16484,0.28975 -0.2914,0.4562 -0.16748,0.22026 -0.23805,0.33082 -0.33082,0.5228 -0.0744,0.154 -0.14345,0.26461 -0.18662,0.30147 -0.0364,0.0311 -0.26652,0.36446 -0.51449,0.73114 -0.25544,0.37767 -0.5561,0.77704 -0.69395,0.93249 -0.28337,0.31956 -0.3714,0.43091 -0.34305,0.45171 0.0117,0.009 0.0801,-0.0646 0.15152,-0.16309 0.0712,-0.0982 0.11765,-0.14505 0.10294,-0.10259 -0.0145,0.0418 0.0569,-0.0275 0.15852,-0.15645 0.1013,-0.12843 0.18042,-0.20295 0.17637,-0.16405 -0.007,0.0714 -0.3263,0.62725 -1.5369,2.18785 -0.76295,0.98354 -1.17048,1.45047 -1.33186,1.65534 0,0 0,0 0,0 -0.07,0.0888 -0.0953,0.12716 -0.0895,0.13236 0.008,0.008 0.0606,-0.0363 0.1231,-0.1026 0,0 0,0 0,0 0.0122,-0.013 0.0249,-0.0268 0.0376,-0.0413 0.0788,-0.0893 0.15906,-0.14573 0.18106,-0.1265 0.0255,0.0223 -0.0116,0.0882 -0.13978,0.23769 0,0 0,0 0,0 -0.0174,0.0203 -0.0366,0.0422 -0.0575,0.0657 -0.23836,0.26798 -0.32897,0.42521 -0.0241,0.11525 0.0232,-0.0236 0.068,-0.072 0.12861,-0.13923 0.21087,-0.23435 0.54975,-0.62619 0.92205,-1.08557 1.36864,-1.68854 1.84615,-2.41531 2.14423,-2.7615 0.15202,-0.17654 0.29305,-0.35708 0.31734,-0.40284 0.0238,-0.0449 0.0557,-0.041 0.0709,0.009 0.0331,0.10889 0.1789,-0.0371 0.97545,-1.28267 0.44375,-0.69388 0.53635,-0.86158 0.37338,-0.52883 -0.29343,0.59915 -1.08706,1.9254 -1.82195,2.96283 -0.32199,0.45453 -0.64216,0.91263 -0.73512,1.07141 -0.20841,0.35597 -0.36593,0.55473 -0.57784,0.73838 -0.0939,0.0814 -0.33014,0.3461 -0.55134,0.61143 -0.17678,0.21209 -0.44799,0.54038 -0.79966,0.94939 -1.46653,1.70255 -2.26903,2.44279 -3.00051,3.19541 -0.35304,0.36324 -0.36871,0.37709 -0.22799,0.36839 0.0866,-0.005 0.1065,0.0386 0.0496,0.11251 -0.0641,0.0833 -0.0484,0.0956 0.0531,0.037 0.1303,-0.0752 0.18135,0.041 -1.63302,1.51416 -1.28623,1.04433 -1.7128,1.33689 -1.96562,1.56076 -0.35319,0.31276 -1.45665,1.13854 -2.47339,1.79702 -0.13512,0.0876 -0.5192,0.34308 -0.85684,0.56305 -0.20463,0.13333 -0.41036,0.26507 -0.61717,0.39522 0.19291,-0.10555 0.3851,-0.21249 0.57658,-0.3208 0.37334,-0.21121 1.18838,-0.71325 2.03986,-1.29994 0.96864,-0.66743 1.74555,-1.24667 2.48389,-1.81918 0.67623,-0.52435 1.56304,-1.27279 2.39243,-2.05225 1.60606,-1.50936 2.70252,-2.73111 3.43259,-3.54518 0.0482,-0.0537 0.0951,-0.10712 0.13926,-0.1584 0,0 0,0 0,0 0.14479,-0.16848 0.25758,-0.31109 0.27574,-0.34688 0.0232,-0.0457 0.17699,-0.24206 0.33721,-0.43446 0.16091,-0.19326 0.28313,-0.35898 0.27391,-0.36662 -0.009,-0.008 0.0835,-0.12311 0.20499,-0.25758 0.18031,-0.19963 0.1777,-0.20411 0.0607,-0.092 -0.14161,0.13569 -0.13371,0.12115 0.001,-0.046 0.0884,-0.10945 0.14978,-0.20767 0.1372,-0.21775 -0.0141,-0.0113 0.0769,-0.11615 0.2341,-0.27372 0.28923,-0.28981 0.39068,-0.41666 0.2939,-0.34599 -0.0373,0.0272 0.008,-0.0583 0.0988,-0.18943 0.0946,-0.13673 0.17483,-0.2317 0.1888,-0.22119 0.0141,0.0106 0.16351,-0.16564 0.35125,-0.42119 0.2061,-0.28055 0.30493,-0.43988 0.27596,-0.43394 -0.0314,0.006 0.0564,-0.12397 0.27599,-0.4225 0.35986,-0.48928 0.7415,-0.95539 0.78371,-0.93149 0.0184,0.01 0.0445,-0.0343 0.0733,-0.12415 0.0348,-0.10866 0.0587,-0.13151 0.1078,-0.10154 0.0811,0.0493 0.0169,0.29596 -0.14264,0.53452 -0.0682,0.102 -0.0925,0.15874 -0.0523,0.12514 0.0396,-0.0331 0.007,0.0388 -0.0746,0.1609 -0.27509,0.41199 -0.42837,0.65413 -0.59328,0.95282 -0.14321,0.25938 -0.56524,0.8084 -0.59729,0.7844 -0.006,-0.004 0.0476,-0.0753 0.11818,-0.15802 0.0711,-0.0833 0.16665,-0.23756 0.21381,-0.34526 0.0755,-0.17233 0.0681,-0.16497 -0.02,-0.0119 -0.081,0.14077 -0.0997,0.15521 -0.0828,0.0699 0.0133,-0.0672 -0.0296,-0.0556 -0.10648,0.0275 -0.16415,0.17741 -0.35703,0.42951 -0.15028,0.21454 0.10431,-0.10844 0.0796,-0.0618 -0.1949,0.28345 -0.1902,0.2392 -0.42019,0.54797 -0.49541,0.66969 -0.10722,0.17328 -0.18214,0.26656 -0.3023,0.37792 -0.12895,0.11951 -0.16655,0.16994 -0.19557,0.2654 -0.0197,0.0648 -0.0225,0.11541 -0.006,0.11232 0.0165,-0.003 -0.0293,0.0671 -0.10237,0.15576 -0.0729,0.0885 -0.13899,0.189 -0.14609,0.22322 -0.007,0.0346 -0.13482,0.21415 -0.28621,0.39859 -0.14998,0.18272 -0.31249,0.40319 -0.35492,0.48446 -0.0276,0.0528 -0.069,0.11334 -0.10898,0.16143 -0.0229,0.0275 -0.0452,0.0508 -0.0641,0.0661 -0.0516,0.0421 -0.0511,0.0594 0.002,0.0379 0.12967,-0.0523 -0.0771,0.1719 -0.19012,0.22007 -0.0794,0.0338 -0.10553,0.0646 -0.24297,0.27292 -0.14635,0.22181 -0.15782,0.2326 -0.19394,0.20197 -0.0323,-0.0271 -0.0492,-0.011 -0.10714,0.0993 -0.10057,0.19145 -0.076,0.18772 0.21039,-0.095 0.17924,-0.17696 0.26407,-0.23863 0.2815,-0.20055 0.0279,0.061 -0.28703,0.47456 -0.7055,0.90146 -0.38954,0.39737 -0.71422,0.76697 -0.68312,0.79822 0.02,0.0201 -0.078,0.13166 -0.3763,0.41383 -0.35891,0.33956 -1.23065,1.19614 -1.40614,1.38663 -0.11816,0.12827 -0.11423,0.1323 0.0717,-0.0316 0.18963,-0.16726 0.41006,-0.35898 0.78029,-0.69396 1.04283,-0.94353 2.02334,-1.96801 2.508,-2.53719 0.26875,-0.31556 0.36366,-0.42264 0.32755,-0.34852 -0.0289,0.0594 0.002,0.0346 0.0821,-0.0686 0.0217,-0.0279 0.0495,-0.0588 0.0813,-0.0907 0.0787,-0.0793 0.18278,-0.16612 0.27931,-0.23119 0.16453,-0.11091 0.20093,-0.11694 0.12099,-0.013 -0.073,0.095 -0.0445,0.0862 0.0947,-0.0365 0.17316,-0.15262 0.19158,-0.16406 -0.10004,0.15132 -0.16351,0.17683 -0.25179,0.27619 -0.17187,0.19919 0.20656,-0.19906 0.20169,-0.15306 -0.0186,0.1113 0,0 0,0 0,0 -0.0564,0.0675 -0.12649,0.14827 -0.20898,0.23998 -0.25418,0.28262 -0.41497,0.43735 -0.43121,0.42435 -0.0193,-0.0148 -0.0419,0.0109 -0.0873,0.0984 -0.0389,0.0748 -0.0933,0.13784 -0.14622,0.1697 -0.0927,0.0558 -0.21589,0.19357 -0.51964,0.55766 -0.10885,0.13046 -0.33812,0.3785 -0.53583,0.57696 -0.43975,0.44142 -0.54007,0.6289 -0.10105,0.19527 0.17336,-0.17122 0.34404,-0.31889 0.39418,-0.33799 0.0595,-0.0226 0.0237,0.0327 -0.11485,0.1714 -0.11198,0.11211 -0.23367,0.25339 -0.26796,0.3122 -0.0942,0.16163 -0.48887,0.61767 -0.6222,0.71899 -0.0591,0.0449 -0.13079,0.11981 -0.15879,0.16606 -0.0285,0.047 -0.18793,0.21193 -0.35775,0.36732 -0.12001,0.10981 -0.61853,0.5883 -0.89632,0.85584 -0.4889,0.47086 -0.58993,0.5614 -0.32681,0.36572 0.175,-0.13013 1.09265,-0.9026 2.09937,-1.87013 0.98251,-0.9443 1.80928,-1.82317 1.89221,-1.8952 0.0861,-0.0747 0.17162,-0.17252 0.19955,-0.22754 0.0142,-0.0279 0.21841,-0.26064 0.51299,-0.60276 0.89851,-1.04778 2.53976,-3.18864 2.61199,-3.24507 0.0339,-0.0265 0.11807,-0.13724 0.18719,-0.24725 0.0859,-0.13666 0.087,-0.1573 0.0106,-0.0725 -0.0652,0.0724 0.009,-0.043 0.15449,-0.24628 0.14699,-0.20592 0.27472,-0.36927 0.28603,-0.36135 0.0113,0.008 0.0679,-0.0793 0.12511,-0.19411 0.057,-0.11441 0.13796,-0.24431 0.17949,-0.28713 0.0413,-0.0426 -1.1e-4,0.0736 -0.0955,0.26029 -0.0576,0.11275 -0.11577,0.22534 -0.1744,0.33776 0.0692,-0.10594 0.13792,-0.21214 0.20622,-0.31858 0.16408,-0.25573 0.19993,-0.31177 0.0532,-0.0555 -0.2258,0.39433 -0.62915,0.95419 -0.92238,1.28102 -0.27577,0.30736 -0.57794,0.72344 -0.53846,0.75382 0.0182,0.014 -0.15334,0.26078 -0.58388,0.79811 -0.38805,0.48418 -0.63498,0.7585 -0.64886,0.74684 -0.0122,-0.0102 -0.0622,0.0595 -0.11165,0.15468 -0.0497,0.0956 -0.23224,0.3416 -0.62142,0.7994 0,0 0,0 0,0 -0.0912,0.10677 -0.19512,0.22672 -0.31143,0.35856 -0.47162,0.53462 -1.15728,1.28453 -1.5166,1.67352 -0.38391,0.41561 -0.79104,0.82826 -1.01082,1.03755 -0.10672,0.10166 -0.6797,0.66215 -0.89365,0.87229 -0.51059,0.50148 -0.4262,0.47499 0.96942,-0.86136 0.86051,-0.82396 1.48899,-1.49009 1.61616,-1.62296 0.0586,-0.0611 0.56606,-0.60185 1.23291,-1.38147 0,0 0,0 0,0 0.32929,-0.38666 0.68353,-0.81575 1.05505,-1.28555 1.2535,-1.58509 2.1038,-2.86069 2.55408,-3.53633 0.3315,-0.49743 0.56777,-0.88946 0.53791,-0.86323 -0.0304,0.0267 0.1066,-0.1998 0.29771,-0.5037 0.22498,-0.35762 0.62204,-1.03356 1.00578,-1.75074 0.60733,-1.135 1.90397,-3.86474 1.75274,-3.48237 -0.0384,0.0972 -0.0443,0.14702 -0.0122,0.10988 0.0316,-0.0365 -0.0222,0.10588 -0.12307,0.3179 -0.0939,0.19736 -0.27501,0.62234 -0.37636,0.88103 -0.11652,0.29737 -0.24022,0.5983 -0.31641,0.77652 -0.12668,0.29636 -1.0277,2.15862 -2.35822,4.29101 -1.41988,2.2756 -2.8146,4.06366 -3.80748,5.23111 -0.0787,0.0921 -0.15002,0.17459 -0.21252,0.24616 -0.55098,0.63098 -1.50308,1.69563 -2.80228,2.95473 -1.33203,1.29092 -2.57273,2.33668 -3.54053,3.10047 -0.77258,0.60973 -1.68591,1.28928 -2.00935,1.53678 -0.4222,0.32308 -0.62416,0.45637 -0.69621,0.47981 -0.0958,0.0312 -1.43526,0.9369 -3.12645,1.92275 -0.324,0.18887 -0.99903,0.57129 -1.82063,0.99648 -1.71156,0.88578 -3.072322,1.50959 -4.646164,2.17609 -0.340526,0.1442 -0.676731,0.27105 -0.757171,0.29077 -0.07758,0.019 -1.081845,0.40301 -2.255097,0.79447 -1.629348,0.54364 -2.330133,0.69135 -2.502624,0.71775 -0.425087,0.0651 -0.507776,0.12023 -1.988925,0.47236 -1.155212,0.27464 -2.362192,0.51611 -3.61704,0.71341 -1.263186,0.19526 -2.337514,0.30886 -3.12616,0.37791 -0.827635,0.0725 -1.533738,0.11606 -2.210202,0.14796 -0.566308,0.0267 -1.16419,0.0343 -1.481049,0.0274 -0.2231,-0.005 -0.888601,-0.006 -1.215794,-0.004 -0.220623,0.002 -2.41808,0.0117 -5.524606,-0.40811 -1.27779,-0.17266 -2.707355,-0.41899 -4.006434,-0.69452 -1.010669,-0.21436 -2.046999,-0.47062 -3.043009,-0.75266 -0.913134,-0.25856 -1.624073,-0.48863 -1.952172,-0.59623 -1.660132,-0.54444 -2.135931,-0.78284 -2.37341,-0.92836 -0.16996,-0.10416 -0.302822,-0.20271 -0.296386,-0.21781 0.0064,-0.0151 -0.03754,-0.0469 -0.09767,-0.0709 -0.06448,-0.0258 -0.252517,-0.10695 -0.436543,-0.18985 -0.275564,-0.1243 -0.296938,-0.14489 -0.163079,-0.12936 0.204069,0.0237 0.06802,-0.0694 -0.205371,-0.14974 -0.345426,-0.10148 -0.195946,-0.0898 0.138789,-0.0112 0.18858,0.0443 0.567476,0.17379 0.897421,0.3033 0.496857,0.19502 0.538753,0.19874 0.405284,0.1085 -0.106291,-0.0719 -0.115443,-0.074 -1.241885,-0.55936 -0.598422,-0.25786 -3.921061,-1.64685 -7.658769,-4.0996 1.09e-4,7e-5 -0.02866,-0.0188 -0.02855,-0.0188 0,0 0,0 0,0 -0.687512,-0.45495 -1.469724,-1.00853 -2.211381,-1.57507 -0.820675,-0.62692 -1.645624,-1.28989 -2.556362,-2.07762 -0.859692,-0.74357 -1.599062,-1.44072 -2.131875,-1.96566 -0.351478,-0.34629 -0.86587,-0.86501 -1.217349,-1.21131 -0.291639,-0.28753 -1.121785,-1.17749 -1.999448,-2.24356 -0.833983,-1.01299 -1.531564,-1.94896 -1.604641,-2.03708 -0.180344,-0.21745 -2.268401,-3.24206 -2.712704,-3.99576 -0.19898,-0.33757 -0.391175,-0.7055 -0.441159,-0.83446 -0.108017,-0.27869 -0.57802,-0.8814 -2.053546,-4.05738 -0.753006,-1.62081 -1.159185,-2.67292 -1.419388,-3.28432 -0.139618,-0.32807 -0.745901,-1.82432 -1.402174,-4.26623 -0.07397,-0.27522 -0.152006,-0.57446 -0.232207,-0.89572 -0.550486,-2.23264 -0.914421,-4.36198 -1.147861,-6.41699 -0.212111,-1.86722 -0.268998,-3.31536 -0.287554,-4.10196 -0.01847,-0.78301 -0.03137,-2.27554 0.09929,-4.21513 0.163341,-2.42493 0.495736,-4.79395 0.892327,-6.84332 0.079,-0.40824 0.127568,-0.66534 0.08583,-0.50339 -0.03775,0.1465 -0.08005,0.26414 -0.09485,0.2611 -0.01775,-0.004 0.06197,-0.43816 0.266151,-1.26949 0.224886,-0.91562 0.643635,-2.54608 1.340698,-4.5638 0.713582,-2.06554 1.472489,-3.79411 2.065725,-5.02356 0.343366,-0.7116 0.672192,-1.34883 0.971237,-1.90475 1.194522,-2.20535 2.376375,-3.97615 3.247039,-5.19646 2.92879,-4.10494 5.945305,-6.98988 7.803943,-8.62944 1.200011,-1.05856 2.301087,-1.91524 3.035797,-2.45557 0.754089,-0.55461 1.309248,-0.94401 1.975075,-1.40039 0.588095,-0.40304 1.407269,-0.92792 2.246126,-1.41751 1.002733,-0.58526 2.890627,-1.68134 5.502068,-2.8329 0.808115,-0.35635 1.580391,-0.66901 2.304978,-0.94231 0,0 0,0 0,0 1.368299,-0.5118 2.457841,-0.84003 2.691905,-0.90411 0.646917,-0.1771 0.918618,-0.2586 1.852909,-0.50017 0.708183,-0.18312 1.351952,-0.32742 1.671417,-0.39277 0.797886,-0.16321 2.419091,-0.49765 4.394212,-0.76201 1.67966,-0.22481 3.780211,-0.40563 6.275748,-0.38693 0.517331,0.004 0.929697,0.0135 1.318621,0.0249 0.382676,0.0113 0.981676,0.0338 1.704036,0.0809 0.782608,0.051 1.571864,0.12003 2.393149,0.21264 0.677602,0.0764 1.264322,0.16239 1.306153,0.17218 0.04185,0.01 0.468539,0.0747 0.946698,0.15369 0.491968,0.0813 0.954101,0.17139 1.089292,0.20353 0.121643,0.0289 0.828112,0.16081 1.565755,0.31566 2.025969,0.42528 2.014277,0.46783 2.004017,0.50905 -0.0052,0.021 0.06205,0.056 0.149393,0.0781 0.08708,0.022 0.113779,0.0146 0.05798,-0.017 -0.06763,-0.0384 -0.0202,-0.0315 0.156713,0.0265 0.133504,0.0438 0.414167,0.12634 0.587239,0.1732 0.222521,0.0602 0.332137,0.10894 0.337744,0.14732 0.01005,0.0687 -0.07168,0.0472 -0.35671,-0.0844 -0.297917,-0.13758 -0.650978,-0.2243 -0.559511,-0.14106 0.04501,0.041 0.02673,0.0426 -0.04626,0.005 -0.0727,-0.0372 -0.510226,-0.15985 -1.325435,-0.33264 -1.076471,-0.22816 -2.834234,-0.57497 -4.478468,-0.8209 -0.915692,-0.13695 -1.71437,-0.22837 -2.297968,-0.28611 -0.464869,-0.046 -0.926653,-0.0861 -1.025269,-0.0976 -0.09885,-0.0116 -0.220695,-0.005 -0.27139,0.014 -0.06931,0.0262 -0.213344,0.0227 -0.565402,-0.006 -0.352475,-0.0288 -1.105046,-0.0845 -2.378943,-0.0997 -0.594659,-0.007 -1.123135,-0.004 -1.174098,-0.008 -0.108598,-0.008 -2.182272,0.0151 -4.991019,0.39201 -1.641124,0.22024 -3.16978,0.49971 -3.963922,0.63813 -0.526643,0.0918 -4.142879,1.05667 -4.136897,1.07589 0.0031,0.01 0.458397,-0.115 1.014899,-0.26384 0.591733,-0.15826 1.11472,-0.28275 1.316699,-0.32747 1.643455,-0.36383 3.819376,-0.83098 6.855384,-1.14555 0.597533,-0.0619 1.142288,-0.098 1.239136,-0.0955 0.07495,0.002 1.290209,-0.0775 2.519305,-0.0997 1.229097,-0.0222 2.470467,0.0138 2.597008,0.0111 0.06021,-0.001 0.628896,0.017 1.262524,0.0572 0.979598,0.0621 3.470625,0.332 4.09322,0.41908 0.231593,0.0324 0.24037,0.0686 0.03749,0.0631 -0.150269,-0.004 -1.299005,-0.14725 -2.341785,-0.24735 -0.316913,-0.0304 -0.635536,-0.0722 -0.701358,-0.0955 -0.08428,-0.0298 -0.360839,-0.0584 -1.028905,-0.0778 -0.503266,-0.0146 -0.948555,-0.0149 -1.009783,-0.0104 -0.05628,0.004 -0.207783,-0.0131 -0.335114,-0.0377 -0.127943,-0.0247 -0.269047,-0.0348 -0.314179,-0.023 -0.08718,0.0227 -3.188457,0.0625 -4.08802,0.0972 -0.331268,0.0128 -0.782131,0.0403 -1.15813,0.0719 -0.324586,0.0273 -0.789314,0.0585 -0.961024,0.0621 -0.273259,0.006 -0.341013,0.0154 -0.337681,0.0433 0.0025,0.0205 -0.199915,0.0617 -0.491382,0.10376 -1.405404,0.2028 -2.685574,0.4194 -4.209147,0.73381 -1.017752,0.21003 -1.288637,0.29888 -1.203826,0.28781 0.700167,-0.0914 -0.589386,0.22488 -2.207563,0.67672 -1.339719,0.37409 -1.951679,0.60045 -2.414976,0.78066 -0.227015,0.0883 -0.581033,0.2201 -0.808989,0.30199 -0.08376,0.0303 -0.159239,0.057 -0.219881,0.0775 -0.627896,0.21175 -3.797804,1.55136 -5.150023,2.26647 -0.810151,0.42845 -1.378246,0.74675 -2.026404,1.117 -0.582047,0.33249 -1.329869,0.78325 -2.104201,1.28889 -0.873599,0.57046 -2.060067,1.37663 -3.454576,2.45993 -1.424035,1.10623 -2.717596,2.24718 -3.814073,3.30912 -1.46422,1.41809 -1.600649,1.63056 -1.631818,1.72217 -0.02966,0.0871 -0.222278,0.27463 -1.176101,1.38712 -0.66204,0.7723 -1.241724,1.51723 -1.508298,1.8845 -0.136093,0.18751 -0.270829,0.37597 -0.404194,0.56536 0.239551,-0.30268 0.482601,-0.60234 0.729071,-0.89892 0.406671,-0.48935 0.903905,-1.06768 1.095289,-1.29417 0.240135,-0.28411 0.943336,-1.0808 1.827143,-1.97948 1.049825,-1.06749 2.228161,-2.18657 3.662169,-3.39484 1.236012,-1.04144 2.306605,-1.82506 2.504046,-1.96262 0.255747,-0.17817 1.302249,-0.9614 2.851756,-1.94609 2.499469,-1.58837 4.656772,-2.63267 6.050051,-3.25298 0.468112,-0.2084 1.49703,-0.66166 2.841638,-1.1614 0,0 0,0 0,0 0.149553,-0.0552 0.298866,-0.10944 0.447941,-0.16275 1.399155,-0.50042 2.661897,-0.85938 2.780062,-0.88811 0.132451,-0.0322 0.335526,-0.0792 0.514858,-0.11843 0.139032,-0.0304 0.581933,-0.14014 0.869841,-0.21337 0.315958,-0.0804 0.650995,-0.14305 0.753347,-0.14454 0.204536,-0.003 0.471881,-0.0943 1.895019,-0.38424 0.945563,-0.19267 1.79353,-0.32301 1.877713,-0.32803 0.08413,-0.005 0.66167,-0.0863 1.285164,-0.16448 3.192587,-0.40021 5.774988,-0.40629 7.361934,-0.37477 1.023338,0.0203 2.425161,0.0971 3.939482,0.27205 1.569759,0.18134 2.773871,0.38745 3.752073,0.56707 3.382832,0.62117 6.18508,1.52044 8.305226,2.34457 1.091262,0.42677 1.997632,0.83196 2.66842,1.14967 0.85548,0.40518 1.68231,0.82074 2.60645,1.32149 0.75277,0.4079 1.38184,0.79029 1.41381,0.82284 0.0324,0.033 -0.13793,-0.0527 -0.3778,-0.18596 -0.27379,-0.15201 -0.57417,-0.31329 -0.81629,-0.43908 -0.20781,-0.10797 -0.40231,-0.21651 -0.42929,-0.24191 -0.0277,-0.0261 -0.27779,-0.1523 -0.5593,-0.27806 -0.21357,-0.0954 -0.97119,-0.45997 -1.39821,-0.66755 -0.31645,-0.15383 -1.542991,-0.73316 -3.157607,-1.34907 0,0 -10e-7,0 -10e-7,0 -0.882738,-0.33473 -1.834431,-0.66371 -2.851014,-0.97359 -3.260054,-0.99373 -5.992523,-1.44238 -7.752166,-1.67762 -2.423302,-0.32395 -3.119277,-0.32543 -1.526388,-0.14603 0.441877,0.0498 0.834559,0.10657 0.873684,0.11803 0.09978,0.0292 -0.443562,0.0151 -0.904515,-0.0173 -0.678415,-0.0478 -0.554961,-0.003 -0.248559,0.0261 0.263487,0.025 1.174466,0.11766 2.302758,0.2878 1.346429,0.20303 2.868202,0.48126 4.612984,0.91258 2.411886,0.59622 2.646489,0.74203 2.634343,0.78187 -0.01454,0.0477 0.431722,0.13438 2.734213,1.01943 0,0 0,0 0,0 0.364603,0.14091 0.7828,0.30753 1.243319,0.50054 1.356809,0.56864 2.460709,1.12802 2.494159,1.15771 0.0327,0.029 0.32803,0.18308 0.64989,0.34476 1.59931,0.80338 0.25229,0.22275 -0.61925,-0.15901 -0.30667,-0.13434 -0.99674,-0.43977 -1.16156,-0.51621 -1.652123,-0.76612 -1.224274,-0.54412 0.60298,0.36149 0.8866,0.43942 1.59452,0.81975 2.24311,1.17969 0.60122,0.33366 1.29965,0.74526 1.98347,1.17841 0.76709,0.48591 1.58716,1.02288 2.5914,1.73946 1.0237,0.73045 1.52094,1.14549 1.58658,1.22506 0.0512,0.0621 0.46259,0.40758 0.90116,0.77293 0.44123,0.36756 0.8291,0.72374 0.88196,0.79267 0.0477,0.0622 0.46107,0.44437 0.89389,0.84408 0.4467,0.41253 0.87312,0.84554 0.99946,0.9969 0.14041,0.16822 0.57909,0.60722 1.19523,1.24697 1.3151,1.36551 2.24202,2.52859 2.27693,2.60675 0.0123,0.0277 -0.80019,-0.82407 -0.94899,-1.03203 -0.0476,-0.0665 -0.095,-0.11318 -0.10514,-0.10401 -0.0102,0.009 0.13125,0.19381 0.31141,0.41231 0.38007,0.46094 0.37136,0.50668 0.10978,0.24583 -0.41305,-0.4119 0.14218,0.26768 0.99103,1.38608 0.76478,1.00762 1.19359,1.68297 0.84066,1.22099 -0.36351,-0.47579 0.17693,0.30499 0.64549,0.98336 0.29918,0.43313 0.5614,0.84896 0.60481,0.93885 0.0372,0.0771 0.30208,0.51203 0.56053,0.93827 1.12732,1.85923 0.2693,0.57105 -0.10269,0.0146 -0.3,-0.44878 -0.58971,-0.83467 -0.69517,-0.94526 -0.16911,-0.17734 -0.26377,-0.33176 -0.81511,-1.1127 -1.03687,-1.46869 -1.40934,-1.83944 -1.57745,-1.96667 -0.1127,-0.0853 -0.19332,-0.12712 -0.17924,-0.0943 0.0141,0.0329 0.29929,0.40297 0.6235,0.82988 0.32736,0.43107 0.61035,0.83537 0.65145,0.91026 0.036,0.0656 0.25128,0.38479 0.46068,0.69207 0.90719,1.33121 0.0939,0.23526 -0.27207,-0.26291 -0.34609,-0.47115 -0.6705,-0.876 -0.71809,-0.91882 -0.0453,-0.0408 -0.42229,-0.51293 -0.85355,-1.03648 -0.54529,-0.66197 -0.81681,-0.94875 -0.86223,-0.96605 -0.0463,-0.0177 0.0507,0.10603 0.295,0.39222 0.20992,0.2459 0.48021,0.58604 0.65658,0.8251 0.16445,0.22289 0.63297,0.8386 1.02782,1.37819 0.39873,0.54488 0.73479,1.05056 0.77795,1.13683 0.0402,0.0803 0.1003,0.17345 0.13335,0.20618 0.0336,0.0333 0.13779,0.18825 0.23175,0.34698 0.15782,0.26665 0.0128,0.0553 -0.41418,-0.52844 -0.56802,-0.77656 -1.17112,-1.50758 -1.57551,-1.94961 -0.32526,-0.35554 0.17875,0.27476 1.03092,1.50424 0.45848,0.66147 0.80758,1.21976 0.80049,1.22458 -0.007,0.005 0.2264,0.35025 0.50909,0.77449 0.41306,0.61987 0.4995,0.78082 0.47325,0.79708 -0.0405,0.0251 -0.34492,-0.3154 -0.49154,-0.54441 -0.0878,-0.13717 -0.0879,-0.14482 0.0278,-0.005 0.11273,0.13657 0.11968,0.13868 1.1e-4,-0.0477 -0.0755,-0.11755 -0.17347,-0.2347 -0.21795,-0.26149 -0.0686,-0.0413 -0.195,-0.26574 -1.00179,-1.41776 -1.08712,-1.5523 -1.26168,-1.63307 -1.17692,-1.45381 0.11886,0.25137 1.58808,2.58919 2.24835,3.6325 0.48898,0.77263 0.69786,1.20424 0.64526,1.23519 -0.0263,0.0155 -0.14026,-0.17866 -0.59709,-0.91263 -0.31659,-0.50872 -0.71571,-1.13579 -0.87665,-1.40049 -0.19735,-0.32453 -0.93059,-1.42115 -1.88361,-2.6367 -1.60787,-2.0508 -1.71761,-2.05719 -1.76971,-2.03835 -0.0516,0.0186 0.0367,0.17026 0.22824,0.40242 0.0658,0.0798 0.4164,0.50808 0.83554,1.05448 1.2835,1.67323 2.41884,3.3688 3.39484,5.0027 0.97435,1.63113 1.11019,2.07939 1.03012,2.00062 -0.0318,-0.0312 -0.0806,-0.11305 -0.10835,-0.18124 -0.0278,-0.0684 -0.0561,-0.10144 -0.0627,-0.0738 -0.007,0.0279 -0.0628,-0.0453 -0.12632,-0.1631 -0.0634,-0.1175 -0.10867,-0.18176 -0.10045,-0.14453 0.008,0.038 -0.0957,-0.11379 -0.23313,-0.33357 -0.30354,-0.48547 -0.40538,-0.55291 -0.32967,-0.27767 0.0421,0.15301 0.0282,0.1783 -0.0478,0.0978 -0.12892,-0.13653 -0.0867,-0.0146 0.0848,0.28174 0.0697,0.12046 0.12178,0.2218 0.11652,0.2248 -0.005,0.003 -0.007,0.0514 -0.004,0.10751 0.005,0.0937 -0.0292,0.007 -0.59861,-0.96621 -0.41081,-0.70216 -0.68218,-1.13201 -0.90487,-1.4914 -0.21668,-0.34972 -0.28191,-0.43315 -0.30889,-0.41482 -0.0186,0.0127 -0.0988,-0.0536 -0.17858,-0.14659 -0.21243,-0.24774 -0.21683,0.01 -0.0266,0.34309 0.14682,0.25723 0.1306,0.23413 -0.01,0.0324 -0.16427,-0.2359 -0.14933,-0.21212 -0.0216,0.0146 0.18931,0.33607 -0.13666,-0.17796 -0.89569,-1.20677 -0.34602,-0.46901 -0.64448,-0.79621 -0.67906,-0.76966 -0.0186,0.0143 -0.11558,-0.0891 -0.25955,-0.27283 -0.1329,-0.16959 -0.3183,-0.39128 -0.4385,-0.52519 -0.19819,-0.22085 -0.19632,-0.21191 -0.0827,-0.0205 0.0665,0.11197 0.23057,0.3435 0.35429,0.50136 0.13483,0.17217 0.43557,0.62522 0.69472,1.06283 0.23893,0.40348 0.58009,0.96247 0.70268,1.13962 0.46625,0.67372 1.12095,1.77124 1.07094,1.72831 -0.0275,-0.0236 0.007,0.0444 0.0744,0.15062 0.068,0.10652 0.11683,0.22286 0.10923,0.25846 -0.0176,0.0825 -0.51809,-0.54132 -0.72821,-0.89269 -0.0841,-0.1407 -0.17648,-0.26629 -0.20454,-0.28013 -0.029,-0.0143 -0.97744,-1.34945 -1.3037,-1.84285 -0.17953,-0.27149 -0.92147,-1.28815 -1.879,-2.41162 -1.55318,-1.82236 -2.09955,-2.28049 -1.50842,-1.60796 0.16338,0.18587 0.39223,0.4518 0.63287,0.74146 0.12993,0.15641 0.63685,0.75848 0.75663,0.89845 0.20387,0.23837 0.35869,0.44321 0.34759,0.45248 -0.0111,0.009 0.0404,0.0893 0.11397,0.17809 0.0753,0.091 0.20031,0.26351 0.28446,0.3933 0.1528,0.23566 0.14255,0.22348 -0.0731,0.005 -0.42633,-0.43214 -0.27967,-0.18588 0.2119,0.5245 0.26895,0.38867 0.4836,0.74195 0.48747,0.78261 0.004,0.0398 0.0331,0.11907 0.065,0.17563 0.10341,0.18387 -0.11309,0.0263 -0.23377,-0.1611 -0.0633,-0.0983 -0.098,-0.14308 -0.0783,-0.10291 0.0202,0.0412 -0.0784,-0.0275 -0.21884,-0.15 -0.1882,-0.16408 -0.35004,-0.34187 -0.61156,-0.66083 -0.19723,-0.24055 -0.35138,-0.41027 -0.34014,-0.38212 0.0114,0.0286 -0.33478,-0.3907 -0.78742,-0.91711 -0.63926,-0.74341 -0.89748,-0.98988 -1.01799,-1.07899 -0.13571,-0.10035 -1.17221,-1.11856 -1.58349,-1.54934 -0.17815,-0.1866 -0.31868,-0.31239 -0.37186,-0.33729 -0.0465,-0.0218 -0.18811,-0.13541 -0.31378,-0.25036 -0.2925,-0.26752 -0.5575,-0.4673 -0.57752,-0.44464 -0.009,0.01 0.0488,0.0743 0.12704,0.14411 0.0785,0.07 0.16716,0.17377 0.19807,0.23143 0.0347,0.0647 0.39487,0.43158 0.92696,0.98662 1.04834,1.09357 1.72203,1.98321 1.61057,1.94327 -0.0427,-0.0153 -0.12966,-0.0936 -0.19319,-0.17351 -0.0639,-0.0803 -0.1013,-0.11376 -0.0837,-0.0759 0.0179,0.0384 -0.0995,-0.0181 -0.26082,-0.12298 -0.21711,-0.14115 -0.33765,-0.24141 -0.46359,-0.38833 -0.0945,-0.11031 -0.15524,-0.16684 -0.13652,-0.12911 0.019,0.0383 -0.10904,-0.0758 -0.28518,-0.24948 -0.19813,-0.19539 -0.60614,-0.56748 -1.01157,-0.91013 -0.23168,-0.19581 -0.4654,-0.38897 -0.70108,-0.57943 0.0579,0.0797 0.11552,0.1596 0.17278,0.23963 0.0939,0.13124 0.21099,0.27749 0.25842,0.32134 0.0502,0.0464 0.21852,0.22859 0.38037,0.41524 0.28212,0.32534 0.27711,0.33041 0.10611,0.24499 -0.1157,-0.0578 -0.15239,-0.0533 -0.10121,0.01 0.0451,0.0557 0.0463,0.0842 0.003,0.0638 -0.0504,-0.024 -0.0981,-0.0738 -0.13462,-0.14033 -0.0367,-0.0669 -0.0878,-0.1195 -0.14514,-0.1496 -0.0474,-0.0249 -0.22728,-0.15308 -0.39569,-0.27982 -0.10276,-0.0773 -0.20583,-0.15413 -0.30922,-0.23042 0.0981,0.0926 0.19576,0.1857 0.29293,0.27925 0.33232,0.31998 0.4203,0.50003 0.18997,0.316 -0.0837,-0.0668 -0.17172,-0.14806 -0.19459,-0.17998 -0.0233,-0.0326 -0.19683,-0.17162 -0.3885,-0.30818 -0.17354,-0.12365 -0.53427,-0.39741 -0.72518,-0.54973 -0.21012,-0.16763 -0.44662,-0.33559 -0.53362,-0.38221 -0.24814,-0.133 -0.21582,-0.14135 -1.15001,-0.948 -0.78118,-0.67452 -1.08374,-0.86975 -1.45841,-1.04066 -0.24402,-0.11132 -0.2908,-0.1505 -0.84205,-0.55108 -0.63208,-0.4593 -2.16501,-1.42982 -2.03919,-1.28558 0.0248,0.0285 0.39647,0.27406 0.81856,0.55662 1.16726,0.78137 1.07872,0.77611 0.98708,0.731 -0.30507,-0.15015 0.96081,0.81028 2.22871,1.83593 0.3365,0.2722 0.62243,0.52521 0.64141,0.55505 0.019,0.03 -0.0777,0.004 -0.21475,-0.0559 -0.23196,-0.10161 -0.23808,-0.0947 -0.12048,0.0535 0.0708,0.0891 0.12407,0.16731 0.11911,0.17348 -0.0203,0.0253 -1.67025,-1.29591 -2.21478,-1.73159 -0.86126,-0.6891 -2.39138,-1.69707 -2.67039,-1.78868 -0.0965,-0.0317 -0.10542,-0.0162 -0.0346,0.053 0.0964,0.094 0.28301,0.17937 1.62514,1.16167 0.41853,0.30634 0.61673,0.47737 0.60197,0.49919 -0.0186,0.0276 -0.1378,-0.0578 -0.78136,-0.48945 -0.4903,-0.32885 -0.80065,-0.51074 -0.85312,-0.52224 -0.0453,-0.01 -0.0232,0.0176 0.0479,0.061 0.0716,0.0437 0.10153,0.0694 0.0678,0.0574 -0.08,-0.0284 -1.559078,-0.97632 -1.698679,-1.08531 -0.109767,-0.0857 -1.697856,-0.96196 -2.050552,-1.12014 -0.109034,-0.0489 -0.204586,-0.0748 -0.212149,-0.0584 -0.0076,0.0164 -0.04662,0.0323 -0.08669,0.0354 -0.06932,0.005 1.307456,0.6444 3.501585,2.04036 0.34819,0.22152 0.74042,0.49441 0.95379,0.65802 0.18371,0.14087 0.51304,0.37832 0.67679,0.4873 0.44818,0.29823 1.10983,0.82429 0.96844,0.76317 -0.0563,-0.0243 -0.67476,-0.44858 -1.39456,-0.91074 -0.71981,-0.46216 -1.31761,-0.80685 -1.30921,-0.79902 0.008,0.008 0.23855,0.17315 0.5077,0.37192 0.48512,0.35826 0.45736,0.35013 0.23558,0.24399 -0.19601,-0.0938 -0.36885,-0.20258 -0.75813,-0.45966 -0.62208,-0.4108 -0.71116,-0.45359 -0.72636,-0.42675 -0.007,0.0116 0.12739,0.1087 0.29637,0.21757 0.72308,0.46582 0.25499,0.21976 -0.27362,-0.0814 -0.410894,-0.23406 -0.819809,-0.43642 -1.03969,-0.52416 -0.213707,-0.0853 -0.451433,-0.19754 -0.589225,-0.27975 -0.34517,-0.20596 -1.96292,-1.00235 -3.701357,-1.65242 -1.010152,-0.38216 -1.839938,-0.63529 -1.817741,-0.61857 0.119503,0.09 -1.395986,-0.38918 -2.709778,-0.75112 -2.683347,-0.73907 -5.005342,-1.02509 -6.546226,-1.1205 -1.095694,-0.0678 -1.857158,-0.0911 -2.821235,-0.1063 -0.85206,-0.0134 -1.832411,0.007 -2.809263,0.0716 -0.834435,0.0551 -1.550434,0.12932 -1.593904,0.12916 -0.04347,-1.6e-4 -0.492055,0.0436 -0.995158,0.11051 -0.590629,0.0785 -1.017652,0.14683 -1.338627,0.19847 -0.771391,0.1241 -2.410372,0.44384 -4.244079,0.99722 -0.680689,0.20542 -1.439128,0.45191 -2.272144,0.75806 -0.611027,0.22214 -1.162022,0.43978 -1.654664,0.64373 -0.486503,0.20142 -1.709171,0.73781 -3.154977,1.52982 -1.538074,0.84255 -2.668691,1.58781 -3.422492,2.09405 -0.709742,0.47666 -1.954529,1.37632 -3.311862,2.5562 -1.85136,1.60931 -2.161139,2.03406 -2.206681,2.12606 -0.04655,0.094 -0.07017,0.11859 -0.158511,0.16449 -0.06891,0.0358 -0.185849,0.14535 -0.346184,0.32871 -0.132057,0.15101 -0.29158,0.31289 -0.353018,0.35614 -0.06358,0.0447 -0.238776,0.21222 -0.392871,0.3783 -0.140346,0.15127 -0.368776,0.39323 -0.451794,0.47706 -0.53414,0.53947 -1.0141,1.10978 -1.193929,1.38378 -0.143805,0.21911 -0.535318,0.67689 -0.5104,0.6017 0.01059,-0.0319 -0.363758,0.43431 -0.806893,1.05347 -1.193322,1.66737 -1.264317,1.87447 -1.420396,2.05079 -0.127224,0.14373 -0.134451,0.16049 -0.07679,0.15231 0.04452,-0.006 0.0316,0.0403 -0.03853,0.14455 -0.05995,0.0891 -0.164843,0.25711 -0.245016,0.39356 -0.07753,0.13181 -0.147833,0.23573 -0.157444,0.23019 -0.0096,-0.006 -0.06856,0.064 -0.130494,0.15493 -0.08206,0.12052 -0.09196,0.15313 -0.03999,0.12116 0.05006,-0.0308 0.04288,-0.006 -0.0209,0.0788 -0.04784,0.0636 -0.294922,0.48129 -0.563607,0.9855 0,0 0,0 0,0 -0.0299,0.0557 -0.05997,0.11218 -0.0901,0.16937 -0.244055,0.46322 -0.514949,0.99903 -0.83113,1.6934 -0.243235,0.53418 -1.161229,2.55055 -1.950954,5.32285 -0.792268,2.78123 -1.081471,4.95476 -1.178229,5.55678 -0.06841,0.42564 -0.118052,0.84911 -0.121672,0.972 -0.0062,0.21261 -0.210117,4.2716 -0.178722,5.51788 0.02521,1.0008 0.228202,2.04334 0.230566,1.4525 3.67e-4,-0.0933 0.02305,-0.0278 0.05604,0.15089 0.0311,0.16843 0.06964,0.33395 0.08508,0.37107 0.04431,0.10656 0.180479,1.19591 0.181954,1.46695 9.69e-4,0.17792 0.05215,0.69128 0.179402,1.4491 0.08857,0.52746 0.287714,1.68037 0.652333,3.11224 0.123848,0.49361 0.258734,0.98744 0.404838,1.48146 0.552373,1.86779 1.222664,3.46958 1.29271,3.61836 0.07005,0.14877 0.344703,0.79038 0.632122,1.41682 0.292562,0.63765 0.595426,1.21407 0.677429,1.33782 0.0845,0.12753 0.74964,1.27054 0.792944,1.36049 0.1054,0.2189 0.316232,0.58488 0.538663,0.92469 0.122418,0.18701 0.300161,0.46628 0.362028,0.57121 0.08422,0.14289 0.166288,0.28029 0.252209,0.42223 0.08113,0.13407 0.409163,0.62902 0.797793,1.16722 0.513672,0.7114 0.696823,0.94147 1.011948,1.36379 0.176042,0.23602 0.366986,0.46633 0.428241,0.52238 0.0571,0.0522 0.227033,0.23745 0.369337,0.40005 0.214902,0.24554 0.257733,0.30366 0.229512,0.32665 -0.03055,0.0249 0.02559,0.11088 0.549201,0.69956 0.450006,0.50591 1.052073,1.18423 1.944033,2.08098 0.810356,0.81471 1.586424,1.49611 1.924561,1.76695 0.282378,0.22618 0.536937,0.42367 0.561771,0.44472 0.02498,0.0212 0.0044,-0.0195 -0.04488,-0.0899 -0.04841,-0.0692 -0.231032,-0.24971 -0.399517,-0.39769 -0.169788,-0.14912 -0.303916,-0.2765 -0.299874,-0.281 0.004,-0.005 -0.0049,-0.0443 -0.01972,-0.0884 -0.03655,-0.10887 0.214117,0.12015 0.378879,0.3425 0.09307,0.12559 0.146067,0.17586 0.189004,0.18178 0.03275,0.005 0.0931,0.0459 0.134091,0.0918 0.04106,0.0459 0.08096,0.0761 0.08853,0.0672 0.0076,-0.009 0.108169,0.0624 0.224188,0.1575 0.153119,0.12541 0.725934,0.58823 1.46399,1.12492 0.345734,0.25141 0.803374,0.57912 1.363188,0.95423 0.637213,0.43064 1.25237,0.81889 1.856068,1.18002 1.117061,0.6682 2.096556,1.15863 2.283287,1.24323 0.514271,0.23305 3.364099,1.46155 4.941881,1.98822 2.923595,0.97591 5.256736,1.28537 5.748202,1.26058 0.151383,-0.008 0.420551,0.0102 0.605039,0.0397 1.776012,0.28308 3.45058,0.39464 4.633909,0.40711 0.521132,0.005 0.960859,0.005 1.537311,-0.006 0.50229,-0.01 1.035942,-0.0372 1.415255,-0.0677 0.327915,-0.0263 0.61478,-0.0539 0.638498,-0.0552 0.02372,-0.001 0.04484,0.0278 0.04693,0.0647 6.7e-5,6e-5 1.35e-4,1.2e-4 2.03e-4,1.8e-4 z m 0.01351,0.23872 c 0.0016,0.0287 0.05493,0.0282 0.235326,-0.005 0.139424,-0.0255 0.203515,-0.0574 0.160821,-0.0781 -0.05547,-0.0269 -0.108914,-0.0253 -0.234821,0.006 -0.08975,0.0222 -0.16248,0.0567 -0.161326,0.077 z m -19.789063,-3.86261 c -0.213168,-0.0902 -0.653468,-0.27673 0.475879,0.26969 2.082336,1.00752 2.788775,1.20759 2.795559,1.19079 0.01284,-0.0318 -2.799742,-1.26082 -3.271438,-1.46048 z m 49.907692,-13.14997 c 0.005,0.003 0.0528,-0.0645 0.1063,-0.15033 0.0535,-0.0859 0.0871,-0.16233 0.0751,-0.16967 -0.0119,-0.007 -0.0592,0.0606 -0.10552,0.15075 -0.0464,0.0901 -0.0807,0.16622 -0.0759,0.16925 z m -5.49273,6.93467 c -0.0201,0.04 0.0594,-0.0207 0.18305,-0.14258 0.1203,-0.11863 0.23272,-0.24803 0.25198,-0.28815 0.0198,-0.0412 -0.0592,0.0228 -0.18139,0.14429 -0.11895,0.11826 -0.23411,0.24745 -0.25364,0.28644 z m 3.93917,-4.28025 c 0.0217,0.0162 0.11272,-0.0998 0.256,-0.33348 0.18607,-0.30348 0.062,-0.17663 -0.1015,0.0655 -0.0946,0.14007 -0.16472,0.2603 -0.1545,0.26795 0,0 0,0 0,0 z m -60.569204,1.22021 c -0.274191,-0.29848 -0.338356,-0.36573 -0.206118,-0.18307 0.193852,0.26776 2.821578,3.20323 4.411066,4.57429 0.215962,0.18628 -0.49987,-0.45156 -1.310361,-1.25876 -0.939156,-0.93534 -1.579827,-1.66101 -2.001815,-2.13518 -0.18545,-0.20838 -0.802711,-0.89924 -0.892772,-0.99728 z m -2.590027,-3.41772 c -0.06012,-0.0832 0.03195,0.0756 0.298153,0.47124 0.590269,0.87731 0.86031,1.19843 0.492721,0.63829 -0.142439,-0.21706 -0.36235,-0.53608 -0.457969,-0.66153 -0.114152,-0.1498 -0.242563,-0.32296 -0.332908,-0.448 z m 65.774241,-1.63769 c -0.1176,0.20781 -0.1322,0.23394 0.04,-0.015 0.19273,-0.27863 0.31993,-0.53923 0.28025,-0.56115 -0.0144,-0.008 -0.0623,0.0659 -0.10714,0.16418 -0.0463,0.10144 -0.13872,0.28056 -0.21313,0.412 1e-5,-1e-5 2e-5,-2e-5 2e-5,-3e-5 z m -66.768881,0.0646 c -0.0222,-0.0244 0.08069,0.1689 0.235038,0.43055 0.154321,0.26162 0.314004,0.49771 0.353259,0.52965 0.05211,0.0424 -0.02679,-0.088 -0.2418,-0.42652 -0.169026,-0.26613 -0.324568,-0.50954 -0.346499,-0.53368 z m 48.719249,-55.1904 c 0.04777,0.004 -0.125855,-0.0831 -0.470587,-0.22348 -0.559388,-0.22777 -0.449354,-0.17317 -0.216642,-0.0637 0.497728,0.2341 0.590431,0.27983 0.687229,0.2872 z m 23.304642,42.99787 c 0.0245,-0.0881 0.0433,-0.19456 0.0423,-0.23752 -0.001,-0.0432 -0.0205,0.0298 -0.0438,0.15987 -0.0253,0.14129 -0.0263,0.17768 0.001,0.0777 0,-1e-5 0,-3e-5 0,-4e-5 z m -0.27138,1.46354 c -0.0379,0.23711 -0.0423,0.27736 0.007,0.0663 0.0324,-0.13863 0.0713,-0.3553 0.0891,-0.49698 0.0463,-0.3689 -0.0358,0.053 -0.0962,0.43064 0,1e-5 0,2e-5 0,3e-5 z m -0.4229,1.6384 c -0.0205,0.10811 -0.0174,0.20231 0.008,0.2093 0.0388,0.0108 0.0674,-0.064 0.17327,-0.50951 0.19777,-0.83246 0.11221,-0.67794 0.0687,-0.50527 -0.0364,0.14452 -0.0869,0.29255 -0.11191,0.33071 -0.0526,0.0801 -0.0848,0.19652 -0.13774,0.47477 z m -10.76518,-39.34695 c 0.01,-0.0106 -0.0556,-0.0878 -0.14603,-0.17109 -0.14372,-0.13237 -0.14369,-0.12628 -0.041,-0.003 0.15527,0.18694 0.16515,0.19715 0.18704,0.17373 0,0 -1e-5,-10e-6 -1e-5,-10e-6 z m 11.25917,42.84249 c 0.0392,-0.0867 0.076,-0.19299 0.0823,-0.23721 0.006,-0.0445 -0.0253,0.0275 -0.0705,0.15737 -0.0491,0.14101 -0.0563,0.17828 -0.0117,0.0798 -10e-6,1e-5 -2e-5,3e-5 -3e-5,4e-5 z m 0.42269,-0.98969 c 0.0405,0.0134 0.16117,-0.33162 0.26778,-0.80097 0.13627,-0.59984 0.0294,-0.31091 -0.13031,0.22519 -0.11296,0.37928 -0.1609,0.56803 -0.13747,0.57578 0,0 0,0 0,0 z m -0.85007,2.2837 c 0.0878,-0.10609 0.26706,-0.54042 0.2302,-0.55443 -0.0207,-0.008 -0.0821,0.11278 -0.15504,0.29998 -0.0668,0.17156 -0.10169,0.28653 -0.0752,0.25445 z m 0.383,-0.91765 c -0.0307,0.13394 -0.003,0.0855 0.12573,-0.2686 0.0923,-0.25478 0.15395,-0.46794 0.14029,-0.4727 -0.0316,-0.011 -0.20776,0.48702 -0.26602,0.7413 z m -1.91959,-38.83813 c 0.0119,-0.008 -0.0139,-0.0672 -0.0577,-0.13123 -0.0438,-0.064 -0.0895,-0.10947 -0.10144,-0.10126 -0.0119,0.008 0.0143,0.067 0.0581,0.13094 0.0438,0.0639 0.0891,0.10967 0.10109,0.10155 z m 0.97625,0.58527 c -0.0476,-0.0872 -0.13395,-0.21971 -0.19451,-0.2984 -0.0625,-0.0812 -0.0182,-0.004 0.0864,0.15623 0.10469,0.16059 0.15713,0.23208 0.10807,0.14217 z m -0.94571,-1.95057 c -0.10191,-0.15326 -0.26542,-0.37784 -0.37996,-0.5219 -0.12598,-0.15845 -0.0126,2e-5 0.18171,0.26696 0.19434,0.26693 0.31037,0.42354 0.19825,0.25494 z m -4.09568,-5.23538 c 0.008,-0.008 -0.34621,-0.40972 -0.80133,-0.88046 -0.45512,-0.47075 -0.94745,-0.95805 -1.08147,-1.09467 -0.15216,-0.15513 -0.2258,-0.21678 -0.19668,-0.16898 0.0263,0.0432 0.46114,0.47324 0.95083,0.97031 0.50075,0.50831 0.90994,0.95267 0.9723,1.02439 0.0576,0.0662 0.0996,0.11497 0.1181,0.13633 0.013,0.015 0.0301,0.0209 0.0382,0.0131 0,1e-5 0,1e-5 0,1e-5 z m -2.46475,65.23547 c -0.16776,0.17188 -0.18589,0.19408 0.0914,-0.0478 0.16229,-0.14147 0.31484,-0.29301 0.34214,-0.33724 0.0598,-0.0968 -0.15315,0.0978 -0.43353,0.38501 z m 2.0343,-66.23447 c 0.009,-0.009 -0.43989,-0.48916 -1.0171,-1.04782 -1.30012,-1.25833 -1.5714,-1.44484 -1.45241,-1.29935 0.0499,0.061 0.63088,0.58539 1.26806,1.18936 0.63716,0.60396 1.14954,1.13025 1.16234,1.14572 0.0128,0.0155 0.0304,0.0209 0.0391,0.0121 0,0 0,0 0,0 z m 3.92959,60.62919 c -0.0161,0.0398 0.0299,-0.002 0.10237,-0.0951 0.0724,-0.0925 0.12331,-0.17457 0.11379,-0.18194 -0.01,-0.007 -0.0553,0.0357 -0.10187,0.0955 -0.0465,0.0597 -0.0982,0.14163 -0.11429,0.18154 z m -15.01587,12.37179 c 0.0978,-0.0417 0.20902,-0.10035 0.24842,-0.13077 0.0397,-0.0306 -0.0409,0.005 -0.17699,0.0762 -0.14745,0.0774 -0.18293,0.10206 -0.0714,0.0546 -2e-5,1e-5 -4e-5,2e-5 -6e-5,3e-5 z m 16.93596,-14.85427 c 0.0119,0.008 0.0866,-0.0808 0.16528,-0.19827 0.12545,-0.18734 0.11799,-0.18444 -0.001,-0.0449 -0.18085,0.21208 -0.19075,0.22513 -0.16425,0.24316 0,-1e-5 10e-6,-2e-5 10e-6,-2e-5 z m -0.29963,0.50664 c 0.005,0.004 0.0474,-0.0475 0.0935,-0.11389 0.0461,-0.0664 0.0733,-0.12792 0.0607,-0.13661 -0.0126,-0.009 -0.0543,0.0427 -0.0931,0.11413 -0.0387,0.0714 -0.0663,0.13272 -0.0611,0.13637 z m -5.28647,6.51218 c -0.16088,0.17337 -0.55599,0.57658 -0.99081,0.99278 -0.31029,0.29699 -0.8168,0.76878 -1.1271,1.06577 -0.20596,0.19662 -0.37722,0.35472 -0.37799,0.35379 -0.006,-0.008 -0.75207,0.67933 -1.12477,1.01962 -0.48337,0.44132 -0.66649,0.64904 -0.0248,0.14872 0.28593,-0.22294 0.41505,-0.3122 0.43221,-0.29068 0.0252,0.0316 -0.48034,0.46588 -1.37671,1.10984 -0.21483,0.15434 -1.65557,1.24101 -1.73262,1.30484 -0.16196,0.13416 0.44044,-0.22304 1.26082,-0.80663 0.50906,-0.36212 0.9551,-0.71819 1.44645,-1.15769 0.36326,-0.32493 0.83692,-0.75073 0.93917,-0.83492 0.19321,-0.15914 0.1936,-0.16733 0.0542,-0.0763 -0.0995,0.0649 -0.22002,0.1568 -0.26567,0.20298 -0.0461,0.0466 -0.0909,0.076 -0.0995,0.0653 -0.0148,-0.0183 0.23604,-0.22606 1.07143,-0.99129 0.20055,-0.18371 0.3779,-0.37103 0.39761,-0.41586 0.0292,-0.0663 0.071,-0.10367 0.23126,-0.21033 0.16487,-0.10975 0.1792,-0.12583 0.10287,-0.10302 -0.0686,0.0205 -0.0274,-0.0286 0.14661,-0.18276 0.13859,-0.12274 0.3861,-0.36243 0.58044,-0.56445 0.23745,-0.24683 0.39094,-0.39302 0.51276,-0.48098 0.0977,-0.0706 0.16551,-0.13398 0.1553,-0.14437 -0.0203,-0.0207 0.71607,-0.87716 0.98759,-1.1623 0.0963,-0.10109 0.16267,-0.19532 0.14828,-0.20886 -0.0195,-0.0183 -0.15814,0.12301 -0.55678,0.53989 -0.22674,0.23711 -0.71868,0.74988 -0.7902,0.82696 1e-5,-1e-5 1e-5,-3e-5 2e-5,-4e-5 z m -4.03849,4.69976 c 0.0913,-0.0602 0.21388,-0.16169 0.27475,-0.22706 0.0799,-0.0859 0.0256,-0.0471 -0.16428,0.10961 -0.15421,0.12732 -0.20753,0.18143 -0.11048,0.11744 z m -24.437481,-84.5647 c 8.51e-4,-0.0108 -0.203555,-0.0386 -0.454258,-0.059 -0.261863,-0.0214 -0.417325,-0.0216 -0.36796,-0.004 0.102997,0.036 0.820387,0.0923 0.822218,0.0634 z m 24.250601,85.03824 c -0.10126,0.075 -0.20282,0.14959 -0.30467,0.22378 0.10018,-0.0621 0.20016,-0.12452 0.29994,-0.18737 0.33814,-0.21298 0.8718,-0.64516 0.84735,-0.67705 -0.009,-0.0116 -0.13237,0.0772 -0.27712,0.19762 -0.15258,0.12691 -0.38944,0.3126 -0.56551,0.44301 z M 83.871845,158.78244 c 6.44e-4,-0.012 -0.100701,-0.0274 -0.225264,-0.0335 -0.124594,-0.006 -0.226961,-7.1e-4 -0.227492,0.0113 -5.31e-4,0.012 0.100911,0.0263 0.225355,0.0324 0.124413,0.006 0.226758,0.002 0.227401,-0.0103 z m 0.631367,0.042 c -0.10867,-0.0149 -0.238134,-0.0221 -0.289133,-0.0164 -0.05144,0.006 0.03876,0.0171 0.197026,0.0262 0.171371,0.01 0.216074,0.007 0.09207,-0.01 1.4e-5,0 2.7e-5,1e-5 4e-5,2e-5 z m 22.699168,86.74913 c 0.0959,-0.0535 0.20387,-0.12561 0.24126,-0.16085 0.0376,-0.0355 -0.0413,0.01 -0.17344,0.0976 -0.1431,0.0952 -0.17727,0.12428 -0.0679,0.0633 10e-6,-1e-5 2e-5,-2e-5 4e-5,-3e-5 z m 12.31198,-11.60836 c 0.0117,0.009 0.0615,-0.0397 0.11042,-0.10739 0.0489,-0.0676 0.0792,-0.13003 0.0674,-0.13846 -0.0117,-0.008 -0.0611,0.0401 -0.11,0.10766 -0.0489,0.0675 -0.0795,0.12968 -0.0679,0.13819 z m -2.40481,3.13568 c 0.0222,0.0193 0.18951,-0.21437 0.2146,-0.30058 0.0249,-0.0856 0.009,-0.0673 -0.0959,0.0968 -0.0691,0.10862 -0.12286,0.2002 -0.11874,0.20378 z m -1.02034,1.13078 c 0.0159,0.0148 0.0473,0.007 0.0696,-0.0171 0.0225,-0.0242 0.0544,-0.0849 0.0712,-0.13508 0.0167,-0.0503 -0.0147,-0.0422 -0.0695,0.0172 -0.055,0.0595 -0.0872,0.12014 -0.0713,0.13489 0,0 0,0 0,0 z M 92.058556,158.8627 c -0.107624,-0.0321 -0.237407,-0.0599 -0.289849,-0.0624 -0.05281,-0.003 0.0366,0.0231 0.1952,0.0574 0.171593,0.0371 0.217588,0.0417 0.0946,0.005 1.7e-5,0 3.4e-5,0 5.1e-5,1e-5 z m -30.669224,91.73784 c -0.05048,-0.008 -0.03637,0.018 0.03217,0.0572 0.0685,0.0392 0.168445,0.071 0.222386,0.0709 0.10527,-1.8e-4 -0.10349,-0.10505 -0.254575,-0.12812 6e-6,1e-5 1.2e-5,1e-5 1.8e-5,2e-5 z m 53.366488,-27.54176 c 0.0473,-0.0535 0.0654,-0.0557 0.0395,-0.004 -0.0253,0.0508 0.01,0.0109 0.0804,-0.0943 0.15944,-0.23758 0.1042,-0.0279 -0.20413,0.55685 -0.16035,0.30423 -0.18883,0.33905 -0.12959,0.20511 0.0973,-0.21998 0.10847,-0.38593 0.0254,-0.22545 -0.16244,0.31402 -0.25578,0.55573 -0.19494,0.52532 0.0583,-0.0291 0.0526,-0.0173 -0.0559,0.0975 -0.14013,0.14832 -0.60804,0.95858 -0.6044,1.04201 0.002,0.0478 -0.0229,0.0906 -0.12203,0.20474 -0.16168,0.18634 -0.31116,0.23851 -0.19962,0.0829 0.0452,-0.0631 0.0868,-0.0918 0.0925,-0.0634 0.007,0.0358 0.0336,-0.0123 0.0865,-0.16239 0.0704,-0.19981 0.17618,-0.36714 0.59995,-1.13357 0.32795,-0.59313 0.5279,-0.9658 0.58623,-1.03181 1e-5,1e-5 3e-5,1e-5 4e-5,2e-5 z m 0.76912,-1.46877 c 0.084,-0.13414 0.10961,-0.0469 0.0288,0.12984 -0.058,0.12701 -0.17534,0.20301 -0.14215,0.0953 0.0148,-0.048 0.0661,-0.14979 0.11331,-0.22511 0,0 0,0 1e-5,0 z m -0.94597,2.39041 c 0.10287,-0.0948 0.10514,-0.0827 -0.008,0.13478 -0.0699,0.13384 -0.16568,0.31573 -0.21235,0.40449 -0.15414,0.29321 -0.20055,0.32096 -0.14242,0.11651 0.0756,-0.26599 0.2151,-0.51938 0.36311,-0.65578 z m -62.183257,6.73295 c -0.0048,0.004 -0.04999,-0.0295 -0.100225,-0.0751 -0.0502,-0.0455 -0.08159,-0.091 -0.06987,-0.10084 0.01172,-0.01 0.05662,0.0241 0.09996,0.0754 0.04332,0.0512 0.07499,0.0964 0.07014,0.10055 z m -0.922424,-1.09653 c -0.06558,-0.054 -0.13261,-0.1265 -0.149443,-0.16127 -0.01692,-0.0349 0.03662,0.0101 0.118664,0.0985 0.116623,0.12556 0.127876,0.14276 0.03079,0.0628 -5e-6,-1e-5 -10e-6,-2e-5 -1.5e-5,-2e-5 z m 57.637731,2.46855 c 0.009,0.009 -0.0298,0.0877 -0.0875,0.17541 -0.0812,0.12357 -0.13312,0.17824 -0.22921,0.2426 -0.0973,0.0651 -0.0992,0.0494 -0.0158,-0.0647 0.13655,-0.18682 0.31052,-0.37393 0.33248,-0.35327 0,0 0,-1e-5 0,-1e-5 z M 68.290989,169.85762 c -0.0049,-0.0136 0.06569,-0.0517 0.157123,-0.0841 0.09163,-0.0325 0.202075,-0.0587 0.246328,-0.0586 0.0443,4e-5 -0.02749,0.0371 -0.157618,0.083 -0.130462,0.046 -0.240948,0.0734 -0.245833,0.0598 z m -1.94619,0.73048 c -0.01168,-0.0275 0.290845,-0.15723 0.379546,-0.16206 0.03515,-0.002 -0.03468,0.0384 -0.15358,0.09 -0.119126,0.0517 -0.220677,0.0846 -0.225969,0.0721 10e-7,1e-5 2e-6,1e-5 3e-6,1e-5 z m 31.032019,70.29496 c 0.123028,0.009 -0.01911,0.0897 -0.430495,0.22443 -0.214785,0.0703 -0.334981,0.0998 -0.275756,0.0715 0.471638,-0.22548 0.636842,-0.30105 0.706251,-0.29595 z M 53.503516,179.33951 c -0.01041,-0.01 -0.0019,-0.0359 0.01889,-0.0575 0.02087,-0.0216 0.07025,-0.0557 0.109954,-0.0757 0.03976,-0.0201 0.03087,0.006 -0.01906,0.0574 -0.05005,0.0516 -0.09937,0.0858 -0.109792,0.0758 2e-6,0 4e-6,0 6e-6,0 z m -1.222676,1.29521 c -0.04881,0.0278 -0.07229,0.0211 -0.05179,-0.0154 0.05548,-0.0989 0.161364,-0.16595 0.150336,-0.0961 -0.0078,0.0491 -0.02698,0.0707 -0.09855,0.11147 4e-6,1e-5 7e-6,2e-5 1.1e-5,4e-5 z m 0.305062,-0.33497 c -0.152396,0.14268 -0.192599,0.12315 0.03032,-0.0975 0.09687,-0.0959 0.18431,-0.16665 0.193735,-0.15802 0.01849,0.0169 -0.04572,0.0885 -0.224058,0.2555 z m 53.408878,-4.03245 c -0.0888,-0.11265 -0.032,-0.10699 0.11873,0.0192 0.0786,0.0658 0.13119,0.13354 0.11719,0.15011 -0.0264,0.0313 -0.14565,-0.0548 -0.23592,-0.16934 z m -19.421554,68.183 c 0.03428,0.007 -0.04429,0.029 -0.176057,0.0485 -0.131844,0.0195 -0.208152,0.0194 -0.171016,0.001 0.08267,-0.0407 0.262227,-0.0664 0.347073,-0.0496 z m -1.101649,0.18064 c -0.03654,0.0257 -0.157105,0.0572 -0.268708,0.0697 -0.190765,0.0212 -0.372552,0.0436 -0.757753,0.0828 -0.414961,0.0423 -0.49116,0.0389 -0.372383,0.0133 0.15474,-0.0334 0.149875,-0.0374 0.0085,-0.0277 -0.09681,0.007 -0.140707,0.002 -0.09931,-0.01 0.03972,-0.0113 0.412163,-0.049 0.816963,-0.0909 0.616492,-0.0638 0.727913,-0.0762 0.672762,-0.0374 -8e-6,1e-5 -1.7e-5,1e-5 -2.6e-5,1e-5 z m 34.271573,-32.57895 c 0.0461,-0.0867 0.039,0.15119 -0.01,0.31085 -0.0421,0.13733 -0.0716,0.0332 -0.0435,-0.13572 0.01,-0.0595 0.034,-0.1385 0.0535,-0.17513 z m 0.46562,1.28953 c 0.0134,0.003 0.0207,0.0615 0.0161,0.13092 -0.005,0.0726 -0.0193,0.0911 -0.0339,0.0442 -0.0283,-0.0915 -0.0193,-0.18224 0.0178,-0.1751 0,0 0,0 0,0 z m -0.17347,0.91422 c 0.0206,0.004 0.0211,0.0542 8.9e-4,0.1106 -0.0202,0.0565 -0.0404,0.0678 -0.0449,0.0258 -0.0114,-0.10753 5.9e-4,-0.1458 0.044,-0.1364 0,-1e-5 0,-2e-5 0,-2e-5 z m -0.84799,-28.74169 c -0.0412,-0.10549 -0.0472,-0.14049 -0.0104,-0.0727 0.0367,0.0677 0.0991,0.20748 0.14055,0.31556 0.0414,0.10817 0.0446,0.13854 0.01,0.0728 -0.0348,-0.0656 -0.0987,-0.21027 -0.13993,-0.31563 -10e-6,-2e-5 -3e-5,-4e-5 -4e-5,-6e-5 z m 0.93747,43.20401 c 0.01,0.006 -0.0472,0.12248 -0.12782,0.25895 -0.0806,0.13647 -0.15677,0.24193 -0.16841,0.23496 -0.0116,-0.007 0.047,-0.12284 0.12938,-0.258 0.0823,-0.13518 0.15703,-0.24163 0.16685,-0.23591 z m -3.06907,5.23176 c 0.0829,-0.0794 0.16561,-0.15924 0.24802,-0.2394 -0.17108,0.23463 -0.34451,0.46767 -0.52028,0.6991 -0.32609,0.42933 -0.71439,0.90968 -1.02718,1.27473 -0.15619,0.18235 -0.30432,0.35611 -0.39105,0.46071 -0.0647,0.0778 -0.10203,0.12544 -0.099,0.12821 0.0152,0.0137 -0.59995,0.629 -0.71204,0.70965 -0.0417,0.03 0.0703,-0.0902 0.24299,-0.26561 0.17911,-0.18191 0.37338,-0.40792 0.52519,-0.61018 0.0142,-0.019 0.028,-0.0377 0.0413,-0.0561 0.12213,-0.16841 0.4902,-0.62738 0.74122,-0.93012 0.26811,-0.32342 0.47485,-0.59787 0.46579,-0.60518 -0.0293,-0.0237 0.22982,-0.32146 0.48499,-0.56584 0,0 0,0 0,0 z m 1.08949,-1.47271 c -0.0211,0.0446 -0.0931,0.14648 -0.16099,0.22723 -0.0774,0.0921 -0.057,0.0542 0.0386,-0.0805 0.0883,-0.12422 0.14371,-0.19179 0.12242,-0.14681 0,2e-5 -1e-5,3e-5 -1e-5,5e-5 z m 1.78011,-1.99959 c 0.0266,0.01 0.0215,0.047 -0.0119,0.0834 -0.0334,0.0365 -0.0553,0.0286 -0.0487,-0.0172 0.007,-0.0506 0.031,-0.0766 0.0607,-0.0663 -2e-5,3e-5 -4e-5,5e-5 -6e-5,8e-5 z m -2.10197,3.41944 c -0.0154,0.0397 0.0705,-0.0224 0.19072,-0.13997 0.19111,-0.18685 0.23527,-0.22438 -0.27332,0.56069 -0.59168,0.91333 -0.66502,0.98616 -0.71833,0.94258 -0.0251,-0.0205 0.0222,-0.11022 0.12209,-0.23441 0.13478,-0.16757 0.12982,-0.16985 0.0125,-0.0536 -0.0807,0.0799 -0.22473,0.24673 -0.31426,0.36342 -0.0909,0.11843 -0.17509,0.2071 -0.1864,0.19767 -0.0113,-0.009 0.1195,-0.18159 0.28819,-0.38442 0.18131,-0.218 0.37463,-0.45955 0.48571,-0.6037 0.15392,-0.19978 0.14914,-0.20303 0.0231,-0.0756 -0.13801,0.13953 -0.12957,0.12404 0.002,-0.045 0.0874,-0.11183 0.14877,-0.21099 0.13735,-0.21984 -0.0114,-0.009 0.0425,-0.0977 0.11921,-0.19789 0.0765,-0.0999 0.12661,-0.15011 0.11106,-0.10991 0,-10e-6 0,-2e-5 0,-3e-5 z m -1.00784,1.61032 c 0.10634,-0.10301 0.11334,-0.0942 0.0226,0.0549 -0.12791,0.2103 -0.27168,0.3303 -0.20324,0.17659 0.0248,-0.0557 0.1048,-0.15802 0.1806,-0.23147 0,0 1e-5,-1e-5 1e-5,-1e-5 z m 3.96885,-3.51903 c 0.0399,-0.0348 0.0178,0.0211 -0.0513,0.12603 -0.0689,0.10465 -0.15829,0.21765 -0.1992,0.25264 -0.0409,0.035 -0.0169,-0.0217 0.0521,-0.12562 0.0688,-0.1036 0.1584,-0.21819 0.19838,-0.25305 z m -1.68889,2.60773 c -0.0952,0.20219 -0.14534,0.27497 -0.17219,0.25445 -0.0102,-0.008 0.0436,-0.10795 0.11893,-0.2228 0.11232,-0.17125 0.12482,-0.18363 0.0532,-0.0316 1e-5,-1e-5 2e-5,-3e-5 3e-5,-4e-5 z m -16.60884,-71.49926 c 0.19812,0.0595 1.03798,0.46656 1.22285,0.59259 0.0957,0.0652 0.10944,0.0856 0.0355,0.0479 -0.73442,-0.37449 -1.32623,-0.66086 -1.25833,-0.64047 -1e-5,-1e-5 -3e-5,-1e-5 -4e-5,-2e-5 z m -0.82311,-0.43548 c -0.10344,-0.0634 -0.0257,-0.037 0.25159,0.0961 0.23126,0.11105 0.41498,0.21273 0.40966,0.22354 -0.0123,0.0251 -0.4395,-0.18362 -0.66127,-0.31962 z m -3.624003,-1.56916 c -0.42143,-0.17527 -2.288539,-0.91591 -4.985128,-1.60612 -0.989313,-0.25323 -1.948403,-0.46894 -2.122081,-0.52095 -0.192855,-0.0578 -0.858163,-0.20051 -1.681038,-0.3324 -0.752294,-0.12059 -1.370042,-0.20225 -1.369593,-0.20555 0.0012,-0.009 0.897044,0.0436 1.002013,0.0602 0.05102,0.008 0.04822,0.0196 -0.0051,0.0258 -0.05825,0.007 0.09675,0.0412 0.366179,0.0857 0.254972,0.0422 0.46541,0.0673 0.467904,0.0531 0.0025,-0.0142 0.07672,-0.0132 0.164957,0.003 0.08856,0.0158 0.10621,0.0342 0.04084,0.0407 -0.08992,0.009 -0.05969,0.0151 0.103407,0.0251 0.12492,0.008 0.356419,0.0403 0.524567,0.0745 0.230455,0.0469 0.597099,0.12118 1.10005,0.23324 0.438549,0.0977 0.762588,0.18569 0.721857,0.18729 -0.04072,0.002 0.341441,0.0968 0.846858,0.22275 0.515715,0.12846 1.02101,0.277 1.169829,0.33374 0.168625,0.0643 0.254973,0.0879 0.260266,0.0694 0.0044,-0.0152 0.08606,0.004 0.181306,0.0429 0.09525,0.039 0.740092,0.2401 1.426845,0.46794 0.686774,0.22785 1.242774,0.4331 1.242198,0.43471 -5.98e-4,0.002 0.315278,0.11906 0.702947,0.2694 -2.5e-5,-1e-5 0.01694,0.007 0.01691,0.007 0.394987,0.15436 0.730677,0.29527 0.749162,0.30607 0.03317,0.0194 0.174587,0.0835 0.419716,0.19442 0.111651,0.0505 -0.586357,-0.14876 -0.707018,-0.1998 -0.03366,-0.0143 -0.251642,-0.10902 -0.512076,-0.21881 0,0 0,0 0,0 -0.04105,-0.0172 -0.08282,-0.0346 -0.12539,-0.0523 -1.23e-4,-5e-5 -2.46e-4,-9e-5 -3.7e-4,-1.3e-4 z m -5.92601,-1.90548 c 0.0028,-0.0123 -0.125787,-0.0524 -0.286095,-0.088 -0.160727,-0.0357 -0.329904,-0.0616 -0.377695,-0.0587 -0.04794,0.003 0.08231,0.0407 0.286591,0.0857 0.204778,0.0451 0.374384,0.0734 0.377199,0.0611 z m 7.862454,2.45422 c -0.04356,-0.0345 -0.141049,-0.0812 -0.217392,-0.10403 -0.07615,-0.0228 -0.134005,-0.0522 -0.128486,-0.0655 0.01955,-0.0473 0.250229,0.048 0.400567,0.16648 0.0837,0.066 0.12271,0.10767 0.0879,0.0928 -0.0349,-0.0149 -0.0993,-0.0555 -0.142548,-0.0897 -4e-6,1e-5 -7e-6,2e-5 -1.1e-5,3e-5 z m -3.055774,-1.27632 c -0.145741,-0.079 -0.29716,-0.14751 -0.337056,-0.15364 -0.03954,-0.006 -0.395175,-0.11419 -0.792009,-0.23326 -0.700317,-0.21012 -1.514287,-0.49687 -1.301117,-0.47415 0.208343,0.0222 1.182688,0.32002 1.419201,0.43355 0.213792,0.10262 0.636081,0.24145 0.827437,0.27145 0.175306,0.0275 0.901494,0.28607 1.003166,0.3577 0.127003,0.0895 -0.113616,0.0979 -0.346621,0.0157 -0.112927,-0.0399 -0.329341,-0.13949 -0.472997,-0.21733 z m 1.496671,0.55986 c -0.05461,-0.04 -0.03225,-0.0374 0.05831,0.009 0.08269,0.042 0.195885,0.0814 0.250842,0.0871 0.148968,0.0154 0.32567,0.0932 0.308991,0.13528 -0.01707,0.043 -0.483837,-0.13263 -0.618158,-0.23109 7e-6,1e-5 1.4e-5,1e-5 2e-5,1e-5 z m -5.759905,92.08614 c -0.04825,0.0208 -0.177247,0.0531 -0.288215,0.0716 -0.126748,0.0212 -0.08332,0.005 0.0874,-0.0372 0.157762,-0.039 0.249524,-0.0555 0.200862,-0.0344 -1.6e-5,1e-5 -3.2e-5,2e-5 -4.8e-5,3e-5 z m -30.877027,-1.95072 c -0.0057,0.0133 -0.03904,0.0118 -0.07401,-0.003 -0.03508,-0.0151 -0.09893,-0.0557 -0.142212,-0.0903 -0.04335,-0.0347 -0.0097,-0.0328 0.07397,0.004 0.08388,0.0364 0.147941,0.0768 0.142231,0.0901 7e-6,1e-5 1.4e-5,1e-5 2e-5,1e-5 z m -3.309027,-1.57412 c 0.1993,0.13711 0.148365,0.16416 -0.106213,0.0164 -0.154584,-0.0897 -0.260672,-0.13413 -0.287513,-0.11891 -0.02382,0.0135 -0.06101,0.034 -0.08438,0.0466 -0.02302,0.0123 -0.157458,-0.0376 -0.298584,-0.1119 -0.135447,-0.0713 -0.309686,-0.16214 -0.362578,-0.18825 -0.07703,-0.038 -0.279506,-0.13844 -0.530712,-0.26664 -0.513991,-0.26229 -0.811743,-0.39729 -0.724341,-0.30834 0.03434,0.0349 -0.05817,-0.007 -0.206899,-0.0954 -0.148556,-0.0884 -0.292305,-0.19248 -0.32098,-0.23115 -0.03604,-0.0486 -0.09036,-0.0832 -0.178329,-0.11409 -0.229101,-0.0804 -0.64298,-0.3211 -0.844131,-0.49134 -0.156306,-0.13227 -0.177243,-0.1468 -0.09708,-0.0575 0.07027,0.0783 0.04181,0.0669 -0.129632,-0.0602 -0.118665,-0.0879 -0.30848,-0.22226 -0.402587,-0.28452 -0.09879,-0.0654 -0.202283,-0.16142 -0.230801,-0.21371 -0.03317,-0.0609 -0.138732,-0.14788 -0.295018,-0.2449 -0.04489,-0.0279 -0.08388,-0.0508 -0.117117,-0.0693 0,0 -1e-6,0 -1e-6,0 -0.173098,-0.0967 -0.192862,-0.0683 -0.03471,0.0504 0,0 0,0 0,0 0.03914,0.0292 0.08905,0.0636 0.149684,0.10224 0.245659,0.15657 0.301242,0.19051 0.0026,0.0198 -0.0436,-0.0249 -0.101181,-0.0596 -0.167003,-0.10064 0,0 0,0 0,0 0,0 0,0 0,0 -0.168046,-0.10542 -0.375049,-0.24287 -0.551725,-0.36761 -0.497233,-0.35091 -0.546296,-0.37874 -1.234702,-0.87292 -1.127008,-0.80906 -3.810208,-3.03476 -4.951098,-4.13659 -0.619124,-0.59793 -1.103092,-1.09439 -1.4569,-1.46317 -0.559953,-0.58366 -1.703973,-1.80689 -3.022374,-3.47339 -0.61013,-0.77122 -1.108508,-1.44408 -1.529142,-2.03036 -0.908979,-1.26693 -1.837231,-2.76846 -2.061855,-3.20777 -0.05982,-0.11697 -0.25396,-0.47981 -0.42713,-0.80852 -0.173206,-0.32877 -0.303188,-0.60384 -0.293849,-0.60897 0.0093,-0.005 0.127364,0.13162 0.263589,0.30234 0.212446,0.26623 0.30944,0.42533 0.645642,0.99972 0.239146,0.40874 0.40562,0.65998 0.402611,0.62465 -0.0028,-0.0327 -0.290148,-0.52715 -0.623114,-1.10801 -0.535992,-0.935 -0.800526,-1.52928 -0.670177,-1.35719 0.06528,0.0862 1.110473,1.89842 1.096541,1.90624 -0.0068,0.004 0.23481,0.41807 0.548587,0.91307 0.313783,0.49502 0.792963,1.24111 1.061853,1.66052 0.268889,0.41941 0.519889,0.78259 0.549292,0.81224 0.02815,0.0284 0.232602,0.30249 0.453634,0.59988 0.235668,0.31704 0.517868,0.67464 0.687055,0.87561 0.166289,0.19754 0.32401,0.40458 0.384031,0.50739 0.06053,0.10367 0.519213,0.70937 1.063674,1.36063 0.666859,0.79766 0.968992,1.13859 0.908468,1.09973 -0.04807,-0.0309 0.0028,0.0217 0.117012,0.1188 0.144209,0.12262 0.334434,0.32558 0.629396,0.65935 0.282297,0.31943 0.410205,0.44475 0.379558,0.38844 -0.05539,-0.10179 -0.05532,-0.0728 0.964457,0.93235 0.417534,0.41156 0.844752,0.80365 1.011345,0.94305 0.150205,0.12567 0.267353,0.23463 0.25927,0.24335 -0.008,0.009 0.115703,0.13677 0.276377,0.28337 0.160671,0.1466 0.299091,0.25875 0.306337,0.25068 0.0072,-0.008 0.09565,0.0595 0.196944,0.14952 0.101038,0.0898 0.150453,0.1464 0.108004,0.12534 -0.101816,-0.0505 1.160241,0.97508 1.270114,1.02724 0.20115,0.0955 2.580356,1.85453 2.550902,1.89545 -0.009,0.0125 0.04485,0.0669 0.119926,0.12068 0.0753,0.0539 0.109381,0.0645 0.0766,0.0247 -0.09243,-0.11232 0.213791,0.0759 0.390224,0.23946 0.116985,0.10843 0.179381,0.14976 0.242583,0.16232 4.39e-4,8e-5 8.88e-4,1.8e-4 0.0013,2.8e-4 0.05807,0.013 0.275581,0.15163 0.620294,0.38535 0.296403,0.20097 0.547082,0.35233 0.554421,0.34098 0.02361,-0.0365 0.693372,0.42198 0.801803,0.54652 0.05782,0.0664 0.167138,0.15013 0.243652,0.18658 0.07639,0.0364 0.112601,0.0386 0.08103,0.005 -0.03189,-0.0334 0.03477,-0.0119 0.147483,0.0466 0.112619,0.0584 0.236482,0.13795 0.273919,0.17643 0.04175,0.0429 0.218505,0.14157 0.453688,0.25017 0.352524,0.16276 1.870566,0.93902 1.94678,0.99145 -1.3e-5,-3e-5 -2.5e-5,-5e-5 -3.8e-5,-8e-5 z m 1.969092,1.10278 c -0.01941,0.0418 -0.108124,0.008 -0.215013,-0.0822 -0.03952,-0.0335 -0.0031,-0.0366 0.08027,-0.008 0.08348,0.0291 0.144219,0.0694 0.134722,0.0898 8e-6,0 1.6e-5,0 2.4e-5,0 z m -0.556557,-0.21237 c -0.08995,-0.026 -0.243244,-0.0921 -0.343394,-0.14804 -0.106643,-0.0596 -0.03047,-0.0351 0.162013,0.0479 0.236879,0.10225 0.299663,0.13436 0.181375,0.10013 z M 31.95256,206.89123 c -0.003,0.19522 -0.0133,0.35532 -0.02432,0.35557 -0.03215,7.5e-4 -0.02621,-0.68577 0.0071,-0.75388 0.01666,-0.0341 0.02885,-0.0381 0.02713,-0.009 -0.0019,0.031 -0.0068,0.21023 -0.0099,0.40752 0,0 -4e-6,-3.6e-4 -4e-6,-3.6e-4 z m 0.101547,3.27497 c -0.07514,-0.48521 -0.07344,-0.62573 -0.03094,-0.39402 0.02321,0.1265 0.05151,0.34335 0.06145,0.4708 0.01169,0.14917 0.0025,0.13637 -0.03051,-0.0767 -1e-6,-10e-6 -2e-6,-2e-5 -3e-6,-4e-5 z m -0.06712,-0.95515 c -0.0099,0.0488 -0.02125,-0.052 -0.02389,-0.2267 -0.0062,-0.41279 0.01269,-0.37327 0.02875,-0.0904 0.0071,0.12457 0.0051,0.26796 -0.0049,0.31705 1e-6,1e-5 1e-6,2e-5 2e-6,3e-5 z m 5.384437,19.52126 c 0.01308,0.0402 0.07877,0.34613 -0.851821,-1.60801 -0.493443,-1.03592 -0.92459,-2.04685 -1.005011,-2.22386 -0.08062,-0.17744 -0.149891,-0.35996 -0.155684,-0.40687 -0.0057,-0.0457 -0.09499,-0.28642 -0.195076,-0.5329 -0.271361,-0.6683 -0.236745,-0.68493 0.03732,-0.0181 0.129195,0.31429 0.218301,0.54396 0.191966,0.50914 -0.08039,-0.1063 0.02131,0.11297 0.154983,0.32762 0.140035,0.22487 0.416108,0.84997 0.437952,0.9929 0.01014,0.0664 0.06587,0.19223 0.166901,0.37224 0.171235,0.30526 0.292454,0.61475 0.184914,0.48592 -0.04595,-0.0551 -0.03278,-0.0207 0.04397,0.10754 0.05588,0.0934 0.293137,0.55576 0.504617,0.9688 0.318605,0.62226 0.415081,0.81023 0.485214,1.02602 -8.2e-5,-1.3e-4 -1.63e-4,-2.6e-4 -2.44e-4,-3.9e-4 z m -4.333902,-11.9091 c -0.0141,0.003 -0.03252,-0.0251 -0.04084,-0.0627 -0.0084,-0.0377 -0.01306,-0.11406 -0.0104,-0.17003 0.0027,-0.0561 0.02088,-0.0273 0.04062,0.0628 0.0198,0.0904 0.02474,0.16678 0.01063,0.16995 z m 1.745344,6.10443 c 0.03435,0.13724 0.0329,0.1635 -0.0074,0.0549 -0.03622,-0.0978 -0.06933,-0.2225 -0.07411,-0.27842 -0.01113,-0.1303 0.0083,-0.069 0.08147,0.22348 6e-6,1e-5 1.2e-5,3e-5 1.8e-5,5e-5 z M 50.560561,167.1947 c 0.06607,-0.0893 -0.453143,0.30759 -0.517984,0.38117 -0.113949,0.12931 -0.650196,0.58291 -0.667599,0.5623 -0.01076,-0.0128 -0.359999,0.27161 -0.933847,0.7935 -0.763791,0.69464 -0.93145,0.85999 -1.328912,1.18368 -0.22325,0.18182 -0.352341,0.28499 -0.228797,0.17634 0.110201,-0.0969 0.210225,-0.19887 0.221362,-0.22673 0.01128,-0.0281 0.09517,-0.1272 0.187317,-0.22028 0.09151,-0.0924 0.198422,-0.21361 0.235177,-0.26717 0.03717,-0.0542 0.08609,-0.0801 0.108531,-0.0577 0.0385,0.0385 0.05558,0.022 0.336665,-0.28102 0.26433,-0.28494 0.321988,-0.33311 0.493435,-0.43062 0.183669,-0.10445 0.191543,-0.10945 0.09286,-0.0818 -0.07748,0.0216 -0.03763,-0.0293 0.186379,-0.22394 0.160013,-0.13901 0.358205,-0.28152 0.443155,-0.32016 0.08475,-0.0385 0.145051,-0.0817 0.135334,-0.0974 -0.01775,-0.0293 0.336495,-0.34594 0.359715,-0.3179 0.0069,0.008 0.426103,-0.33 0.942492,-0.73839 0.516375,-0.40846 0.981925,-0.74511 1.023724,-0.7618 0.04133,-0.0165 0.198576,-0.12186 0.34827,-0.23197 0.221942,-0.16325 0.242153,-0.16828 0.133097,-0.0569 -0.140353,0.14338 -1.644154,1.31674 -1.570303,1.21691 z m 2.072966,-1.56081 c -0.007,-0.01 0.03028,-0.0495 0.08296,-0.088 0.05275,-0.0385 0.278959,-0.20557 0.504688,-0.36881 0.507541,-0.36704 0.718039,-0.45329 0.231561,-0.0985 -0.480958,0.35073 -0.80394,0.57678 -0.819213,0.55537 z m -8.509135,7.53648 c -0.01081,-0.01 -0.19724,0.18248 -0.411235,0.42988 -0.21489,0.24843 -0.410496,0.49845 -0.441292,0.55805 -0.03656,0.0707 -0.06195,0.10119 -0.0766,0.0914 -0.02469,-0.0168 -0.64339,0.70556 -0.610583,0.73197 0.0103,0.008 -0.02706,0.0614 -0.08291,0.11822 -0.128903,0.13116 -0.977233,1.15749 -1.862776,2.39016 -0.280516,0.39046 -0.506112,0.71314 -0.508791,0.71132 -0.01457,-0.01 -1.154276,1.74776 -1.209563,1.87116 -0.09859,0.22037 -0.88429,1.60554 -0.908798,1.59174 -0.01165,-0.007 -0.07414,0.0818 -0.138298,0.19678 -0.06417,0.11498 -0.106148,0.21482 -0.09392,0.22154 0.0079,0.004 -0.166894,0.3261 -0.4732,0.91346 -0.226865,0.43835 -0.531687,1.03786 -0.873712,1.75681 -0.738141,1.55164 -1.236752,2.82359 -1.340088,3.0893 -0.06403,0.16474 -0.246291,0.60857 -0.346452,0.84631 -0.124046,0.29439 -0.194654,0.49387 -0.181014,0.49873 0.02249,0.008 -0.165,0.53093 -0.237192,0.66557 -0.02084,0.0389 -0.256791,0.72279 -0.496923,1.52751 -0.296515,0.99363 -0.434415,1.51601 -0.502227,1.67754 -0.06831,0.16263 -0.07968,0.2116 -0.05298,0.22056 0.02151,0.008 0.01358,0.0504 -0.02174,0.11736 -0.03355,0.0636 -0.279605,0.9337 -0.548852,2.19158 -0.323615,1.51189 -0.85663,4.30224 -1.051218,7.85707 -0.201181,3.67545 0.03534,6.79296 0.331113,9.08305 0.232906,1.80326 0.525986,3.26753 0.517158,3.2695 -0.0088,0.002 0.06033,0.39154 0.163167,0.86415 0.102838,0.47261 0.203367,0.85586 0.213913,0.85334 0.01055,-0.003 0.0367,0.0696 0.05844,0.16019 0.02169,0.0903 0.01795,0.12454 -0.009,0.0748 -0.02662,-0.0491 -0.0227,0.0188 0.01008,0.15268 0.0056,0.0227 0.01062,0.0447 0.01514,0.0657 0,0 0,0 0,0 0.02239,0.10249 0.03161,0.18005 0.01996,0.18299 -0.01402,0.004 -0.0067,0.0805 0.01654,0.17093 0.02336,0.0908 0.04277,0.11793 0.04313,0.0619 4e-4,-0.0619 0.05441,0.10931 0.134872,0.41014 0.100355,0.37544 0.122059,0.46781 0.05087,0.28625 -0.06369,-0.16243 -0.0746,-0.17547 -0.03254,-0.0208 0.04198,0.15454 0.03333,0.15611 -0.04599,-0.0172 -0.05671,-0.12388 -0.139245,-0.36432 -0.185988,-0.54348 -0.04617,-0.17696 -0.09514,-0.31906 -0.1101,-0.31529 -0.01145,0.003 -0.0341,-0.0635 -0.06,-0.17352 0,0 0,0 0,0 -0.01047,-0.0451 -0.02144,-0.0975 -0.03238,-0.15552 -0.04234,-0.22452 -0.06323,-0.30082 -0.06519,-0.22254 -0.0016,0.0624 -0.01268,0.0724 -0.02484,0.0213 -0.01215,-0.051 -0.01097,-0.15161 0.0027,-0.22401 0.0083,-0.0438 0.01662,-0.0875 0.02502,-0.13126 -0.04944,-0.13329 -0.09831,-0.26684 -0.146626,-0.40065 -0.09918,-0.27471 -0.141481,-0.43912 -0.137452,-0.51754 0.0042,-0.0818 -0.01212,-0.15133 -0.05609,-0.23975 -0.05038,-0.10126 -0.4798,-1.16326 -0.873455,-5.79982 -0.303084,-3.56981 -0.162192,-6.58286 0.02018,-8.58164 0.174611,-1.91369 0.4581,-3.83246 0.858205,-5.7562 1.19347,-5.73831 2.026142,-7.08522 2.083682,-7.20425 0.09637,-0.19938 0.637138,-1.52825 0.67121,-1.64526 0.03385,-0.11625 0.09083,-0.24378 0.135151,-0.30337 0.05709,-0.0767 0.08244,-0.14314 0.100766,-0.26299 0.01349,-0.0883 0.03617,-0.15697 0.05005,-0.15268 0.01613,0.004 0.391406,-0.91003 1.133104,-2.43268 0.16917,-0.34729 0.357547,-0.72137 0.564498,-1.11627 1.236737,-2.34149 3.132772,-5.10018 3.152672,-5.08679 0.0067,0.005 0.325721,-0.45087 0.723833,-1.00081 0.682254,-0.94246 2.400015,-2.99592 2.729417,-3.33747 0.122691,-0.12721 0.130182,-0.12039 0.04985,0.0204 -0.08335,0.14609 -0.07331,0.14127 0.03557,0.002 0.08451,-0.10809 0.252281,-0.31637 0.417924,-0.51597 0.173759,-0.2094 0.252503,-0.32247 0.199076,-0.29338 -0.04637,0.0253 -0.01655,-0.002 0.06938,-0.063 0.13572,-0.0957 0.254158,-0.22965 0.741254,-0.76677 0.34108,-0.37612 0.684428,-0.72176 0.810799,-0.82825 0.110752,-0.0933 0.36359,-0.32608 0.534169,-0.49028 0.337524,-0.3249 0.261217,-0.2461 0.05664,-0.0336 -0.209672,0.21777 -0.219637,0.24044 -0.08842,0.13613 0.192715,-0.15316 0.01259,-0.041 -1.504923,1.59248 -0.529368,0.56984 -0.884365,0.96133 -0.89604,0.95089 -4.1e-5,4e-5 -8.3e-5,7e-5 -1.24e-4,1e-4 z m -11.605606,43.05307 c -0.01089,0.054 -7.9e-5,0.15962 0.0242,0.23521 0.07209,0.22445 0.09521,0.1417 0.04357,-0.10316 -0.02937,-0.13926 -0.05571,-0.19191 -0.06778,-0.13211 4e-6,2e-5 8e-6,4e-5 1.1e-5,6e-5 z m 2.853016,8.85513 c -0.108244,-0.12958 -0.112864,-0.12268 -0.01114,0.082 0.09914,0.19948 0.100831,0.21524 -0.0099,0.0834 -0.04222,-0.0503 -0.08436,-0.10071 -0.126414,-0.15123 -0.0024,-0.0564 -0.0047,-0.11271 -0.0069,-0.16903 -0.0075,-0.19286 -0.122566,-0.50258 -0.22545,-0.60548 -0.03872,-0.0387 -0.04941,-0.0174 -0.0232,0.0482 0.02611,0.0653 0.03107,0.12542 0.0108,0.13359 -0.02996,0.0121 -0.09139,-0.11894 -0.304218,-0.70993 -0.178827,-0.49657 -0.264961,-0.72565 -0.283975,-0.71867 -0.01545,0.006 -0.115449,-0.22724 -0.221169,-0.52557 -0.125725,-0.35479 -0.164128,-0.50346 -0.124632,-0.44461 0.04588,0.0684 0.02162,0.003 -0.07386,-0.21466 -0.113571,-0.25821 -0.122095,-0.29479 -0.06723,-0.23301 0.03707,0.0418 0.08811,0.13712 0.113243,0.21132 0.02519,0.0743 0.05719,0.13134 0.07087,0.12667 0.05183,-0.0177 -0.07098,-0.28048 -0.202832,-0.4379 -0.151824,-0.18129 -0.157944,-0.19209 -0.245159,-0.58283 -0.04438,-0.19888 -0.03574,-0.26639 0.02581,-0.22794 0.04857,0.0304 0.066,-0.004 0.03916,-0.0762 -0.02689,-0.0722 -0.04821,-0.16887 -0.04756,-0.21517 6.85e-4,-0.0496 0.121303,0.31062 0.309132,0.87659 0.295519,0.89053 0.326838,0.95124 0.325511,1.13843 -0.0013,0.18265 0.175577,0.74688 0.226342,0.72805 0.01435,-0.005 -0.0054,-0.0737 -0.0436,-0.15214 -0.03934,-0.0807 -0.03941,-0.11103 -0.0012,-0.0704 0.03969,0.0421 0.09801,0.1729 0.140806,0.31402 0.04799,0.15823 0.06964,0.20001 0.06222,0.12586 -0.01325,-0.1325 0.195333,0.35587 0.413008,0.92914 0.07942,0.20916 0.199743,0.48419 0.275203,0.63097 0.117764,0.22906 0.122581,0.24568 0.0064,0.10662 -3.9e-5,-2e-5 -7.8e-5,-4e-5 -1.16e-4,-6e-5 z m -1.599869,-4.05932 c -0.02506,-0.0392 -0.01526,0.0247 0.02295,0.14328 0.03821,0.11856 0.06758,0.17617 0.06503,0.12973 -0.0026,-0.0467 -0.01307,-0.11127 -0.02334,-0.14314 -0.01027,-0.0319 -0.03947,-0.0905 -0.06464,-0.12987 z m 2.474247,6.01524 c 0.0087,0.0484 -0.05032,-0.0372 -0.130813,-0.19256 -0.09697,-0.18715 -0.144418,-0.24763 -0.142665,-0.17642 0.0014,0.0581 -0.02552,0.0448 -0.05991,-0.0302 -0.093,-0.20309 0.0043,-0.1981 0.134516,-0.005 0.135078,0.19991 0.177165,0.28403 0.19888,0.40458 z m -0.472948,-0.85661 c -0.0359,-0.0331 -0.07348,-0.0789 -0.08369,-0.10186 -0.0102,-0.023 -0.01891,-0.0816 -0.01935,-0.13044 -4.35e-4,-0.049 0.03699,-0.003 0.08339,0.10201 0.04639,0.10459 0.05565,0.16348 0.01964,0.13029 z m -0.314629,-0.53327 c -0.08893,-0.15121 -0.217977,-0.41088 -0.29386,-0.5919 -0.151621,-0.36172 -0.195433,-0.58192 -0.08814,-0.37995 0.03848,0.0725 0.06818,0.16238 0.06556,0.19977 -0.0034,0.0506 0.03445,0.14429 0.154582,0.37117 0.208326,0.3934 0.372876,0.75974 0.161849,0.40092 z m 0.877928,1.92878 c -0.03111,-0.0442 -0.09121,-0.16711 -0.133938,-0.27471 -0.04884,-0.12297 -0.02331,-0.0825 0.05579,0.0802 0.07306,0.15039 0.109532,0.23915 0.07817,0.19458 -6e-6,-2e-5 -1.2e-5,-3e-5 -1.9e-5,-4e-5 z m -3.019404,-7.85533 c 0.03481,0.1964 0.03266,0.20587 -0.03597,-0.0314 -0.04287,-0.14832 -0.06585,-0.27304 -0.05193,-0.27694 0.03087,-0.009 0.03484,0.009 0.0879,0.3083 -10e-7,0 -2e-6,0 -3e-6,-1e-5 z m 0.20753,0.8363 c -0.0086,0.0809 -0.0233,0.0457 -0.07687,-0.21005 -0.08072,-0.38551 -0.06112,-0.38452 0.02297,-0.10476 0.03526,0.11729 0.05976,0.25934 0.05389,0.3148 1e-6,0 2e-6,1e-5 3e-6,1e-5 z"
       transform="translate(194.35803,-1.0805653)" /></g></svg>
